<svg width="470" height="266" viewBox="0 0 470 266" fill="none" xmlns="http://www.w3.org/2000/svg">
<path d="M236.467 120.5L213.967 173H199.342L176.917 120.5H192.967L207.217 154.7L221.767 120.5H236.467ZM239.541 120.5H254.391V173H239.541V120.5ZM307.106 161.525V173H264.956V120.5H306.131V131.975H279.656V140.825H302.981V151.925H279.656V161.525H307.106ZM326.521 132.275H310.396V120.5H357.421V132.275H341.371V173H326.521V132.275ZM223.567 217.625C226.567 218.675 228.917 220.325 230.617 222.575C232.317 224.775 233.167 227.45 233.167 230.6C233.167 235.2 231.317 238.75 227.617 241.25C223.917 243.75 218.567 245 211.567 245H183.217V192.5H210.067C216.767 192.5 221.867 193.75 225.367 196.25C228.867 198.7 230.617 202.025 230.617 206.225C230.617 208.725 229.992 210.975 228.742 212.975C227.542 214.925 225.817 216.475 223.567 217.625ZM197.917 203.225V213.35H208.117C213.117 213.35 215.617 211.65 215.617 208.25C215.617 204.9 213.117 203.225 208.117 203.225H197.917ZM210.367 234.275C215.567 234.275 218.167 232.5 218.167 228.95C218.167 225.4 215.567 223.625 210.367 223.625H197.917V234.275H210.367ZM240.859 192.5H255.709V233.225H280.759V245H240.859V192.5ZM312.305 246.05C306.755 246.05 301.755 244.875 297.305 242.525C292.905 240.175 289.43 236.925 286.88 232.775C284.38 228.625 283.13 223.95 283.13 218.75C283.13 213.55 284.38 208.875 286.88 204.725C289.43 200.575 292.905 197.325 297.305 194.975C301.755 192.625 306.755 191.45 312.305 191.45C317.855 191.45 322.83 192.625 327.23 194.975C331.68 197.325 335.155 200.575 337.655 204.725C340.205 208.875 341.48 213.55 341.48 218.75C341.48 223.95 340.205 228.625 337.655 232.775C335.155 236.925 331.68 240.175 327.23 242.525C322.83 244.875 317.855 246.05 312.305 246.05ZM312.305 233.75C314.955 233.75 317.355 233.125 319.505 231.875C321.655 230.625 323.355 228.875 324.605 226.625C325.855 224.325 326.48 221.7 326.48 218.75C326.48 215.8 325.855 213.2 324.605 210.95C323.355 208.65 321.655 206.875 319.505 205.625C317.355 204.375 314.955 203.75 312.305 203.75C309.655 203.75 307.255 204.375 305.105 205.625C302.955 206.875 301.255 208.65 300.005 210.95C298.755 213.2 298.13 215.8 298.13 218.75C298.13 221.7 298.755 224.325 300.005 226.625C301.255 228.875 302.955 230.625 305.105 231.875C307.255 233.125 309.655 233.75 312.305 233.75ZM375.732 246.05C370.182 246.05 365.182 244.875 360.732 242.525C356.332 240.175 352.857 236.925 350.307 232.775C347.807 228.625 346.557 223.95 346.557 218.75C346.557 213.55 347.807 208.875 350.307 204.725C352.857 200.575 356.332 197.325 360.732 194.975C365.182 192.625 370.182 191.45 375.732 191.45C381.282 191.45 386.257 192.625 390.657 194.975C395.107 197.325 398.582 200.575 401.082 204.725C403.632 208.875 404.907 213.55 404.907 218.75C404.907 223.95 403.632 228.625 401.082 232.775C398.582 236.925 395.107 240.175 390.657 242.525C386.257 244.875 381.282 246.05 375.732 246.05ZM375.732 233.75C378.382 233.75 380.782 233.125 382.932 231.875C385.082 230.625 386.782 228.875 388.032 226.625C389.282 224.325 389.907 221.7 389.907 218.75C389.907 215.8 389.282 213.2 388.032 210.95C386.782 208.65 385.082 206.875 382.932 205.625C380.782 204.375 378.382 203.75 375.732 203.75C373.082 203.75 370.682 204.375 368.532 205.625C366.382 206.875 364.682 208.65 363.432 210.95C362.182 213.2 361.557 215.8 361.557 218.75C361.557 221.7 362.182 224.325 363.432 226.625C364.682 228.875 366.382 230.625 368.532 231.875C370.682 233.125 373.082 233.75 375.732 233.75ZM412.685 192.5H437.51C443.26 192.5 448.36 193.575 452.81 195.725C457.26 197.875 460.71 200.925 463.16 204.875C465.61 208.825 466.835 213.45 466.835 218.75C466.835 224.05 465.61 228.675 463.16 232.625C460.71 236.575 457.26 239.625 452.81 241.775C448.36 243.925 443.26 245 437.51 245H412.685V192.5ZM436.91 233.15C441.41 233.15 445.01 231.875 447.71 229.325C450.46 226.775 451.835 223.25 451.835 218.75C451.835 214.25 450.46 210.725 447.71 208.175C445.01 205.625 441.41 204.35 436.91 204.35H427.535V233.15H436.91Z" fill="url(#paint0_linear_158_236)"/>
<path d="M96.0873 5C-70.0745 229.793 50.5904 255.449 77.8229 259.11C175.315 272.222 201.782 136.488 141.293 117.546C110 109.5 91.4796 123.791 103.712 162.893C77.2915 158.101 57.8965 162.521 52.5153 185.293C47.2431 214.582 70.6393 225.666 112 235.5C26.5 252 -2 162.893 117.5 45L96.0873 5Z" fill="white"/>
<path d="M96.0873 5C-70.0745 229.793 50.5904 255.449 77.8229 259.11C175.315 272.222 201.782 136.488 141.293 117.546C110 109.5 91.4796 123.791 103.712 162.893C77.2915 158.101 57.8965 162.521 52.5153 185.293C47.2431 214.582 70.6393 225.666 112 235.5C26.5 252 -2 162.893 117.5 45L96.0873 5Z" fill="url(#paint1_linear_158_236)"/>
<path d="M96.0873 5C-70.0745 229.793 50.5904 255.449 77.8229 259.11C175.315 272.222 201.782 136.488 141.293 117.546C110 109.5 91.4796 123.791 103.712 162.893C77.2915 158.101 57.8965 162.521 52.5153 185.293C47.2431 214.582 70.6393 225.666 112 235.5C26.5 252 -2 162.893 117.5 45L96.0873 5Z" stroke="#A30000" stroke-width="2" stroke-miterlimit="10"/>
<path d="M124.336 153L131.969 176.493L156.672 176.493L136.687 191.013L144.321 214.507L124.336 199.987L104.351 214.507L111.985 191.013L92 176.493L116.702 176.493L124.336 153Z" fill="white"/>
<defs>
<linearGradient id="paint0_linear_158_236" x1="323.967" y1="69.5" x2="323.967" y2="249.05" gradientUnits="userSpaceOnUse">
<stop stop-color="#E52D27"/>
<stop offset="1" stop-color="#B31217"/>
</linearGradient>
<linearGradient id="paint1_linear_158_236" x1="9.96737" y1="132.02" x2="173.556" y2="132.02" gradientUnits="userSpaceOnUse">
<stop stop-color="#E52D27"/>
<stop offset="1" stop-color="#B31217"/>
</linearGradient>
</defs>
</svg>
