<svg width="56" height="56" viewBox="0 0 56 56" fill="none" xmlns="http://www.w3.org/2000/svg">
<path d="M45.8544 17.4746C47.7209 17.4746 49.2337 18.9874 49.2337 20.854V34.3715H42.475V20.854C42.475 18.9874 43.9878 17.4746 45.8544 17.4746Z" fill="#FF876C"/>
<path d="M49.2337 10.1533C47.3671 10.1533 45.8543 11.6662 45.8543 13.5327V27.0502H52.6131V13.5327C52.6131 11.6662 51.1002 10.1533 49.2337 10.1533Z" fill="#FF9E90"/>
<path d="M52.6131 6.77344C52.1051 6.77344 51.623 6.88608 51.1904 7.08772L49.7091 35.354L43.6014 49.8042L55.0784 33.6524C55.6167 32.8949 55.9925 31.4711 55.9925 30.5417V10.1528C55.9925 8.28627 54.4797 6.77344 52.6131 6.77344Z" fill="#FF9E90"/>
<path d="M52.6131 10.153V32.2316C52.6131 33.1609 52.3202 34.5656 51.962 35.3541L43.6014 49.8043V55.9999H29.6996V52.6205L33.3506 39.8273L49.2337 27.0499V10.153C49.2337 8.79448 50.0346 7.62409 51.1903 7.08789C52.0307 7.62409 52.6131 8.7956 52.6131 10.153Z" fill="#FFB4B3"/>
<path d="M43.4655 24.6601C44.7846 23.3399 46.9249 23.3399 48.244 24.6601C48.9041 25.3191 49.2341 26.1842 49.2341 27.0493C49.2341 27.9144 48.9041 28.7795 48.244 29.4385L36.4584 41.2252V45.8615C36.4584 49.5788 33.417 52.6203 29.6996 52.6203V41.2331C29.6996 39.3666 30.4521 37.6735 31.6743 36.4502L43.4655 24.6601Z" fill="#FFCAD6"/>
<path d="M10.1456 17.4746C8.27901 17.4746 6.76617 18.9874 6.76617 20.854V34.3715H13.5249V20.854C13.5249 18.9874 12.0121 17.4746 10.1456 17.4746Z" fill="#FF876C"/>
<path d="M6.76622 10.1533C4.89968 10.1533 3.38684 11.6662 3.38684 13.5327V27.0502H10.1456V13.5327C10.1456 11.6662 8.63276 10.1533 6.76622 10.1533Z" fill="#FF9E90"/>
<path d="M26.3004 52.6206V56H22.921L16.1622 42.4521L26.3004 52.6206Z" fill="#FF9E90"/>
<path d="M24.3257 36.4499L12.5352 24.6599C11.8177 23.9412 10.8568 23.6145 9.91736 23.6776L22.921 51.7087C23.9168 52.2877 25.0714 52.62 26.3004 52.62V41.2329C26.3004 39.3663 25.5479 37.6733 24.3257 36.4499Z" fill="#FFB4B3"/>
<path d="M22.086 40.3982L6.7662 27.0497V10.1528C6.7662 8.28627 5.25337 6.77344 3.38682 6.77344C1.52028 6.77344 0.00744629 8.28627 0.00744629 10.1528V30.5417C0.00744629 31.4711 0.383233 32.8949 0.921568 33.6524L12.3985 49.8042V55.9997H22.921V51.709L22.086 40.3982Z" fill="#FFB4B3"/>
<path d="M22.921 41.233V51.7089C20.9046 50.5362 19.5416 48.3498 19.5416 45.8614V41.2252L7.75603 29.4384C7.09592 28.7795 6.76587 27.9143 6.76587 27.0492C6.76587 26.1841 7.09592 25.319 7.75603 24.66C8.35643 24.0585 9.12918 23.7307 9.91658 23.6777C10.5665 23.7307 11.2052 24.0585 11.702 24.66L21.2899 36.4501C22.3003 37.6734 22.921 39.3665 22.921 41.233Z" fill="#FFCAD6"/>
<path d="M34.7456 0C34.4614 0 34.1808 0.0147566 33.9039 0.0421296L27.9999 28.1615C28.0006 28.1611 43.2071 19.2459 43.2071 8.46027C43.2071 3.78783 39.4187 0 34.7456 0Z" fill="#FF2B59"/>
<path d="M39.8278 8.46027C39.8278 4.07305 37.2298 0.466241 33.9039 0.0421296C31.4963 0.280038 29.3858 1.52669 28 3.35381C26.4549 1.31661 24.0088 0 21.2544 0C16.5812 0 12.7928 3.78783 12.7928 8.46027C12.7928 19.2459 27.9993 28.1611 28 28.1615C28.0005 28.1611 39.8278 19.2459 39.8278 8.46027Z" fill="#FF4E51"/>
</svg>
