<svg width="60" height="60" viewBox="0 0 60 60" fill="none" xmlns="http://www.w3.org/2000/svg">
<path fill-rule="evenodd" clip-rule="evenodd" d="M29.5564 41.7233C30.1012 42.1693 30.3724 42.4119 30.6462 42.4223C30.9172 42.4118 31.191 42.1692 31.7359 41.7233L46.1026 27.0121C50.3519 22.4657 50.3519 15.0241 46.1026 10.4751C42.2417 6.34345 35.9017 7.26167 31.8792 11.2185L31.1232 11.9619C30.6852 12.3923 30.6018 12.3923 30.1534 11.9514L29.4104 11.2185C25.3957 7.25901 19.0478 6.34345 15.187 10.4751C10.9377 15.0241 10.9377 22.4657 15.187 27.0121L16.9101 28.778L29.5564 41.7233Z" fill="#FFAD62"/>
<path fill-rule="evenodd" clip-rule="evenodd" d="M33.6493 9.77092C35.7166 12.7706 36.9158 16.3335 36.9158 20.1548C36.9158 20.5721 36.9001 20.9843 36.8715 21.3912C36.6421 24.7847 35.4637 27.9408 33.5815 30.6352C32.7525 31.8221 31.7879 32.9201 30.7035 33.9114C29.5461 34.9704 28.2556 35.9042 26.8557 36.6893C26.376 36.958 25.8833 37.2109 25.3776 37.4457L29.5565 41.7234C30.1013 42.1695 30.3725 42.4121 30.6462 42.4224C30.9173 42.412 31.1911 42.1694 31.736 41.7234L36.1312 37.2214L46.1026 27.0121C49.4603 23.4204 50.1642 18.0185 48.2168 13.6678C47.698 12.5123 46.9942 11.4298 46.1026 10.4751C45.516 9.84915 44.8721 9.33787 44.1891 8.93625C41.9628 7.6295 39.3115 7.48081 36.8089 8.2476C35.7114 8.58409 34.6399 9.1006 33.6493 9.77092Z" fill="#F58B4F"/>
<path d="M34.8824 25.4192C34.8784 25.4192 34.8743 25.4192 34.8703 25.4192C34.6251 25.4148 34.401 25.2793 34.2829 25.0643L30.7483 18.6197L28.1166 23.2204C27.9973 23.4289 27.7775 23.5595 27.5374 23.5646C27.2955 23.569 27.0721 23.4483 26.9443 23.245L25.3096 20.646L24.076 22.6961C23.9523 22.9017 23.73 23.0274 23.4902 23.0274H19.2174C18.8398 23.0274 18.5336 22.7211 18.5336 22.3432C18.5336 21.9654 18.8398 21.6591 19.2174 21.6591H23.1037L24.7109 18.9882C24.8334 18.7847 25.0525 18.6592 25.29 18.6569C25.2923 18.6568 25.2945 18.6568 25.2967 18.6568C25.5316 18.6568 25.7502 18.7774 25.8754 18.9766L27.4952 21.5518L30.1674 16.8805C30.2892 16.6674 30.5158 16.5362 30.7608 16.5362C30.7629 16.5362 30.7648 16.5362 30.767 16.5363C31.0143 16.5385 31.2413 16.6743 31.3603 16.8913L34.9067 23.3574L36.6959 20.3524C36.8192 20.1453 37.0424 20.0184 37.2834 20.0184H42.9821C43.3597 20.0184 43.6658 20.3247 43.6658 20.7026C43.6658 21.0804 43.3597 21.3867 42.9821 21.3867H37.672L35.4698 25.0852C35.3464 25.2925 35.1231 25.4192 34.8824 25.4192Z" fill="#F8F2F0"/>
<path fill-rule="evenodd" clip-rule="evenodd" d="M44.1891 14.8546C48.2768 14.8546 51.6111 11.5185 51.6111 7.42603C51.6111 3.33612 48.2768 0 44.1891 0C40.0989 0 36.7646 3.33612 36.7646 7.42603C36.7646 11.5185 40.0989 14.8546 44.1891 14.8546Z" fill="#F8F2F0"/>
<path fill-rule="evenodd" clip-rule="evenodd" d="M41.5274 0.490396C44.137 1.64333 45.9566 4.25169 45.9566 7.28779C45.9566 7.33469 45.9566 7.38169 45.954 7.42603C45.9383 8.28937 45.7767 9.11626 45.49 9.88048C44.7497 11.8733 43.175 13.4618 41.1938 14.2234C42.1088 14.6304 43.1229 14.8546 44.1892 14.8546C45.6725 14.8546 47.0568 14.419 48.2169 13.6678C50.2607 12.3427 51.611 10.0422 51.611 7.42603C51.611 3.32568 48.2872 0 44.1891 0C43.2506 0 42.3539 0.172139 41.5274 0.490396Z" fill="#D6DCEA"/>
<path d="M46.8898 6.7418H44.8728V4.72376C44.8728 4.34594 44.5667 4.03963 44.189 4.03963C43.8114 4.03963 43.5053 4.34594 43.5053 4.72376V6.74189H41.4883C41.1106 6.74189 40.8045 7.0482 40.8045 7.42602C40.8045 7.80384 41.1106 8.11015 41.4883 8.11015H43.5053V10.1283C43.5053 10.5061 43.8114 10.8124 44.189 10.8124C44.5667 10.8124 44.8728 10.5061 44.8728 10.1283V8.11006H46.8898C47.2674 8.11006 47.5736 7.80375 47.5736 7.42593C47.5736 7.04811 47.2675 6.7418 46.8898 6.7418Z" fill="#FFAD62"/>
<path d="M43.7685 48.1842L53.3805 42.5906C53.7974 42.3478 54.2569 42.2305 54.7117 42.2305C55.4851 42.2305 56.2454 42.568 56.763 43.2029C57.7152 44.3659 57.5091 46.0855 56.3117 46.9927L41.986 57.8294C40.4961 58.9557 38.6794 59.5656 36.8117 59.5656H33.9634C32.8276 59.5656 31.7036 59.3394 30.6555 58.9012L20.1244 54.4978H12.1183L5.54053 54.518V43.1827H12.1183H14.8897C16.8272 41.2451 19.4553 40.1567 22.1946 40.1567H22.4315C25.1709 40.1567 27.7977 41.2451 29.7353 43.1827L30.344 43.7903H38.1749C39.403 43.7903 40.5648 44.174 41.5265 44.8443C42.487 45.5159 43.2474 46.4764 43.6702 47.6287C43.7353 47.8064 43.7685 47.9947 43.7685 48.1842Z" fill="#FFE6C4"/>
<path d="M56.4674 42.8955C56.4173 42.9397 56.3659 42.983 56.3117 43.024L41.986 53.8607C40.4961 54.987 38.6794 55.5969 36.8117 55.5969H33.9634C32.8276 55.5969 31.7036 55.3707 30.6555 54.9325L20.4096 50.6484C20.2214 50.5697 20.0194 50.5292 19.8153 50.5292H12.1183L5.54053 50.5493V54.518L12.1183 54.4979H20.1244L30.6555 58.9012C31.7036 59.3394 32.8276 59.5656 33.9634 59.5656H36.8117C38.6794 59.5656 40.4961 58.9557 41.986 57.8294L56.3117 46.9927C57.5091 46.0855 57.7152 44.3659 56.763 43.2029C56.6717 43.0909 56.5725 42.9887 56.4674 42.8955Z" fill="#FED3A7"/>
<path d="M42.2794 50.8367C43.4178 50.8367 44.5165 50.059 45.1375 49.3562C45.7985 48.6079 46.0962 47.8169 45.9834 47.1159L45.979 46.8976L43.8365 48.1445C43.8084 48.1773 43.7791 48.2105 43.7474 48.2445C43.2701 48.7538 42.6277 49.0962 42.2181 49.0574C42.1905 49.0548 42.1629 49.0535 42.1352 49.0535H32.2341C31.7436 49.0535 31.3459 49.4512 31.3459 49.9417C31.3459 50.4323 31.7436 50.83 32.2341 50.83H42.0985C42.1589 50.8346 42.219 50.8367 42.2794 50.8367Z" fill="#FED3A7"/>
<path d="M12.0698 54.692V50.5835H12.1186V42.5662C12.1186 41.5299 11.2785 40.6897 10.2422 40.6897H3.55151V56.9905H10.2423C11.2786 56.9905 12.1187 56.1505 12.1187 55.1141V54.6431L12.0698 54.692Z" fill="#FF9F9F"/>
<path d="M10.2423 52.0335H3.55151V56.9905H10.2423C11.2786 56.9905 12.1187 56.1505 12.1187 55.1141V50.157C12.1186 51.1934 11.2786 52.0335 10.2423 52.0335Z" fill="#B31217"/>
<path d="M3.55152 59.6769C3.06097 59.6769 2.66327 59.2792 2.66327 58.7886V38.9039C2.66327 38.4133 3.06097 38.0156 3.55152 38.0156C4.04207 38.0156 4.43977 38.4133 4.43977 38.9039V58.7886C4.43977 59.2792 4.04207 59.6769 3.55152 59.6769Z" fill="#921115"/>
</svg>
