<svg width="60" height="60" viewBox="0 0 60 60" fill="none" xmlns="http://www.w3.org/2000/svg">
<g clip-path="url(#clip0_96_3842)">
<path d="M29.0646 49.9188H28.217" stroke="black" stroke-width="15.472" stroke-miterlimit="10" stroke-linecap="round" stroke-linejoin="round"/>
<path d="M44.0394 48.2704L53.8496 42.5614C54.2751 42.3136 54.7441 42.194 55.2082 42.194C55.9976 42.194 56.7736 42.5385 57.3018 43.1864C58.2736 44.3733 58.0633 46.1285 56.8413 47.0544L42.2202 58.1145C40.6996 59.264 38.8453 59.8865 36.9391 59.8865H34.0321C32.8729 59.8865 31.7258 59.6556 30.656 59.2084L19.9078 54.7142H11.7366L5.02319 54.7348V43.1658H11.7366H14.5651C16.5426 41.1883 19.2248 40.0774 22.0207 40.0774H22.2624C25.0583 40.0774 27.7393 41.1883 29.7168 43.1658L30.3381 43.7859H38.3304C39.5839 43.7859 40.7697 44.1775 41.7512 44.8617C42.7315 45.5471 43.5075 46.5273 43.939 47.7035C44.0055 47.8848 44.0394 48.077 44.0394 48.2704Z" fill="#FFE6C4"/>
<path d="M57.0001 42.8727C56.949 42.9178 56.8965 42.962 56.8413 43.0038L42.2202 54.0639C40.6996 55.2134 38.8453 55.836 36.9391 55.836H34.0321C32.8729 55.836 31.7258 55.6051 30.656 55.1578L20.1989 50.7854C20.0068 50.705 19.8006 50.6637 19.5923 50.6637H11.7366L5.02319 50.6842V54.7348L11.7366 54.7142H19.9078L30.656 59.2084C31.7258 59.6556 32.8729 59.8865 34.0321 59.8865H36.9391C38.8453 59.8865 40.6996 59.264 42.2202 58.1145L56.8413 47.0544C58.0633 46.1285 58.2736 44.3733 57.3018 43.1863C57.2086 43.0721 57.1074 42.9678 57.0001 42.8727Z" fill="#FED3A7"/>
<path d="M42.5196 50.9776C43.6814 50.9776 44.8028 50.1838 45.4365 49.4666C46.1113 48.7029 46.415 47.8955 46.2999 47.1801L46.2955 46.9573L44.1087 48.2299C44.0801 48.2634 44.0502 48.2972 44.0178 48.3319C43.5307 48.8518 42.8751 49.2012 42.457 49.1616C42.4288 49.1589 42.4006 49.1576 42.3723 49.1576H32.2672C31.7665 49.1576 31.3606 49.5635 31.3606 50.0642C31.3606 50.5648 31.7665 50.9707 32.2672 50.9707H42.3349C42.3965 50.9754 42.4579 50.9776 42.5196 50.9776Z" fill="#FED3A7"/>
<path d="M11.6872 54.9124V50.7192H11.737V42.5365C11.737 41.4789 10.8795 40.6214 9.82184 40.6214H2.99323V57.2583H9.82196C10.8796 57.2583 11.7371 56.4009 11.7371 55.3432V54.8624L11.6872 54.9124Z" fill="#FF9F9F"/>
<path d="M9.82196 52.1991H2.99323V57.2583H9.82196C10.8796 57.2583 11.7371 56.4009 11.7371 55.3432V50.2839C11.737 51.3417 10.8796 52.1991 9.82196 52.1991Z" fill="#B31217"/>
<path d="M2.99324 60C2.49257 60 2.08667 59.5941 2.08667 59.0934V38.7987C2.08667 38.298 2.49257 37.8921 2.99324 37.8921C3.4939 37.8921 3.8998 38.298 3.8998 38.7987V59.0934C3.8998 59.5941 3.4939 60 2.99324 60Z" fill="#921115"/>
<path d="M47.908 3.57767C43.1377 -1.19256 35.4036 -1.19256 30.6333 3.57767L30.3246 3.88627L30.0159 3.57767C25.2457 -1.19256 17.5115 -1.19256 12.7412 3.57767C7.97102 8.3479 7.97102 16.0821 12.7412 20.8523L28.1947 36.3058C29.371 37.4821 31.2782 37.4821 32.4544 36.3058L47.9079 20.8523C52.6782 16.0821 52.6782 8.34802 47.908 3.57767Z" fill="#FFAD62"/>
<path d="M20.2329 20.8525C15.4626 16.0822 15.4626 8.34802 20.2329 3.57779C21.6528 2.15775 23.3355 1.16064 25.1243 0.586124C20.9036 -0.769614 16.0914 0.227487 12.7411 3.57779C7.9709 8.34802 7.9709 16.0822 12.7411 20.8525L28.1946 36.3059C29.3709 37.4822 31.2781 37.4822 32.4543 36.3059L34.0702 34.69L20.2329 20.8525Z" fill="#F58B4F"/>
<path d="M30.3297 28.9575C36.3254 28.9575 41.1859 24.097 41.1859 18.1013C41.1859 12.1056 36.3254 7.24515 30.3297 7.24515C24.334 7.24515 19.4735 12.1056 19.4735 18.1013C19.4735 24.097 24.334 28.9575 30.3297 28.9575Z" fill="#F9F7F8"/>
<path d="M20.2329 20.8525C20.0445 20.6641 19.8644 20.4706 19.691 20.2733C20.5515 24.5106 23.8799 27.8514 28.1106 28.7301L20.2329 20.8525Z" fill="#EFEDEF"/>
<path d="M35.6927 16.3872H32.5314V13.2259C32.5314 12.9693 32.3234 12.7613 32.0668 12.7613H28.5824C28.3258 12.7613 28.1178 12.9693 28.1178 13.2259V16.3872H24.9565C24.6999 16.3872 24.4919 16.5952 24.4919 16.8518V20.3362C24.4919 20.5928 24.6999 20.8008 24.9565 20.8008H28.1178V23.9621C28.1178 24.2187 28.3258 24.4267 28.5824 24.4267H32.0668C32.3234 24.4267 32.5314 24.2187 32.5314 23.9621V20.8008H35.6927C35.9493 20.8008 36.1573 20.5928 36.1573 20.3362V16.8518C36.1572 16.5952 35.9492 16.3872 35.6927 16.3872Z" fill="#F58B4F"/>
<path d="M53.5515 30.7657H51.5356V28.7498C51.5356 28.4651 51.3047 28.2342 51.0199 28.2342H48.3659C48.0811 28.2342 47.8502 28.4651 47.8502 28.7498V30.7657H45.8343C45.5495 30.7657 45.3186 30.9966 45.3186 31.2813V33.9354C45.3186 34.2202 45.5495 34.4511 45.8343 34.4511H47.8502V36.467C47.8502 36.7518 48.0811 36.9827 48.3659 36.9827H51.0199C51.3047 36.9827 51.5356 36.7518 51.5356 36.467V34.4511H53.5515C53.8363 34.4511 54.0672 34.2202 54.0672 33.9354V31.2813C54.0672 30.9966 53.8363 30.7657 53.5515 30.7657Z" fill="#F58B4F"/>
<path d="M7.22873 30.7657H9.24457V28.7498C9.24457 28.4651 9.47544 28.2342 9.76022 28.2342H12.4143C12.6991 28.2342 12.9299 28.4651 12.9299 28.7498V30.7657H14.9459C15.2307 30.7657 15.4616 30.9966 15.4616 31.2813V33.9354C15.4616 34.2202 15.2307 34.4511 14.9459 34.4511H12.9299V36.467C12.9299 36.7518 12.6991 36.9827 12.4143 36.9827H9.76022C9.47544 36.9827 9.24457 36.7518 9.24457 36.467V34.4511H7.22873C6.94395 34.4511 6.71307 34.2202 6.71307 33.9354V31.2813C6.71307 30.9966 6.94395 30.7657 7.22873 30.7657Z" fill="#F58B4F"/>
</g>
<defs>
<clipPath id="clip0_96_3842">
<rect width="60" height="60" fill="white"/>
</clipPath>
</defs>
</svg>
