<svg width="33" height="30" viewBox="0 0 33 30" fill="none" xmlns="http://www.w3.org/2000/svg">
<path d="M30.0458 0.0558777H2.95417C1.59888 0.0558777 0.5 1.15476 0.5 2.51005V4.69818L2.67058 7.8913H30.8661L32.5 4.69818V2.51005C32.5 1.15476 31.4011 0.0558777 30.0458 0.0558777Z" fill="#EE878A"/>
<path d="M3.39585 0.0558777H2.95417C1.59888 0.0558777 0.5 1.15476 0.5 2.51005V4.69818L2.67058 7.8913H3.39585V0.0558777Z" fill="#EC6E73"/>
<path d="M32.5 4.69818V24.241C32.5 25.5962 31.4011 26.6951 30.0458 26.6951H2.95417C1.59888 26.6951 0.5 25.5962 0.5 24.241V4.69818H32.5Z" fill="#F9F7F7"/>
<path d="M28.5403 10.0486H4.48737C4.07384 10.0486 3.73859 9.71339 3.73859 9.29986V7.58394C3.73859 7.17041 4.07384 6.83515 4.48737 6.83515H28.5403C28.9538 6.83515 29.289 7.17041 29.289 7.58394V9.29986C29.289 9.71339 28.9538 10.0486 28.5403 10.0486Z" fill="#A9E4F9"/>
<path d="M17.3566 14.6395H15.671C15.3898 14.6395 15.1618 14.4116 15.1618 14.1304V12.8748C15.1618 12.5936 15.3897 12.3656 15.671 12.3656H17.3566C17.6378 12.3656 17.8658 12.5936 17.8658 12.8748V14.1304C17.8658 14.4116 17.6378 14.6395 17.3566 14.6395Z" fill="#DED4CF"/>
<path d="M12.5788 14.6395H10.8932C10.612 14.6395 10.384 14.4116 10.384 14.1304V12.8748C10.384 12.5936 10.612 12.3656 10.8932 12.3656H12.5788C12.8601 12.3656 13.088 12.5936 13.088 12.8748V14.1304C13.088 14.4116 12.8601 14.6395 12.5788 14.6395Z" fill="#DED4CF"/>
<path d="M7.80113 14.6395H6.11547C5.83433 14.6395 5.60632 14.4116 5.60632 14.1304V12.8748C5.60632 12.5936 5.83426 12.3656 6.11547 12.3656H7.80113C8.08228 12.3656 8.31028 12.5936 8.31028 12.8748V14.1304C8.31022 14.4116 8.08228 14.6395 7.80113 14.6395Z" fill="#DED4CF"/>
<path d="M20.4487 14.6395H22.1344C22.4156 14.6395 22.6435 14.4116 22.6435 14.1304V12.8748C22.6435 12.5936 22.4156 12.3656 22.1344 12.3656H20.4487C20.1676 12.3656 19.9396 12.5936 19.9396 12.8748V14.1304C19.9396 14.4116 20.1675 14.6395 20.4487 14.6395Z" fill="#DED4CF"/>
<path d="M25.2264 14.6395H26.9121C27.1932 14.6395 27.4212 14.4116 27.4212 14.1304V12.8748C27.4212 12.5936 27.1933 12.3656 26.9121 12.3656H25.2264C24.9453 12.3656 24.7173 12.5936 24.7173 12.8748V14.1304C24.7173 14.4116 24.9453 14.6395 25.2264 14.6395Z" fill="#DED4CF"/>
<path d="M17.3566 19.0379H15.671C15.3898 19.0379 15.1618 18.81 15.1618 18.5288V17.2731C15.1618 16.992 15.3897 16.764 15.671 16.764H17.3566C17.6378 16.764 17.8658 16.9919 17.8658 17.2731V18.5288C17.8658 18.81 17.6378 19.0379 17.3566 19.0379Z" fill="#DED4CF"/>
<path d="M12.5788 19.0379H10.8932C10.612 19.0379 10.384 18.81 10.384 18.5288V17.2731C10.384 16.992 10.612 16.764 10.8932 16.764H12.5788C12.8601 16.764 13.088 16.9919 13.088 17.2731V18.5288C13.088 18.81 12.8601 19.0379 12.5788 19.0379Z" fill="#DED4CF"/>
<path d="M7.80113 19.0379H6.11547C5.83433 19.0379 5.60632 18.81 5.60632 18.5288V17.2731C5.60632 16.992 5.83426 16.764 6.11547 16.764H7.80113C8.08228 16.764 8.31028 16.9919 8.31028 17.2731V18.5288C8.31022 18.81 8.08228 19.0379 7.80113 19.0379Z" fill="#DED4CF"/>
<path d="M17.3566 23.4363H15.671C15.3898 23.4363 15.1618 23.2084 15.1618 22.9272V21.6716C15.1618 21.3904 15.3897 21.1624 15.671 21.1624H17.3566C17.6378 21.1624 17.8658 21.3904 17.8658 21.6716V22.9272C17.8658 23.2084 17.6378 23.4363 17.3566 23.4363Z" fill="#DED4CF"/>
<path d="M12.5788 23.4363H10.8932C10.612 23.4363 10.384 23.2084 10.384 22.9272V21.6716C10.384 21.3904 10.612 21.1624 10.8932 21.1624H12.5788C12.8601 21.1624 13.088 21.3904 13.088 21.6716V22.9272C13.088 23.2084 12.8601 23.4363 12.5788 23.4363Z" fill="#DED4CF"/>
<path d="M7.80113 23.4363H6.11547C5.83433 23.4363 5.60632 23.2084 5.60632 22.9272V21.6716C5.60632 21.3904 5.83426 21.1624 6.11547 21.1624H7.80113C8.08228 21.1624 8.31028 21.3904 8.31028 21.6716V22.9272C8.31022 23.2084 8.08228 23.4363 7.80113 23.4363Z" fill="#DED4CF"/>
<path d="M26.3952 16.6155C22.3606 16.6155 19.0783 19.8978 19.0783 23.9322V23.9348C19.0784 24.0758 18.9659 24.1908 18.8249 24.1908H7.07987C5.04526 24.1908 3.39585 22.5414 3.39585 20.5068V4.69818H0.5V24.241C0.5 25.5964 1.59875 26.6951 2.95417 26.6951H30.0458C31.24 26.6951 32.2345 25.842 32.4543 24.7122C32.4566 24.7004 32.4585 24.6884 32.4607 24.6765C32.4668 24.6423 32.4723 24.6078 32.477 24.5731C32.479 24.5583 32.4809 24.5436 32.4826 24.5288C32.4866 24.4949 32.4897 24.4608 32.4923 24.4265C32.4933 24.4126 32.4947 24.3987 32.4954 24.3847C32.4982 24.3372 32.4999 24.2893 32.4999 24.241V24.1909V19.9039C31.1892 17.924 28.9423 16.6155 26.3952 16.6155Z" fill="#F2EAE7"/>
<path d="M26.3952 29.9638C29.7263 29.9638 32.4268 27.2634 32.4268 23.9322C32.4268 20.6011 29.7263 17.9007 26.3952 17.9007C23.064 17.9007 20.3636 20.6011 20.3636 23.9322C20.3636 27.2634 23.064 29.9638 26.3952 29.9638Z" fill="#CFEFFC"/>
<path d="M29.2599 22.5624H27.7651V21.0676C27.7651 20.8455 27.585 20.6655 27.3629 20.6655H25.4275C25.2054 20.6655 25.0254 20.8455 25.0254 21.0676V22.5624H23.5306C23.3085 22.5624 23.1284 22.7425 23.1284 22.9646V24.9C23.1284 25.122 23.3085 25.3021 23.5306 25.3021H25.0254V26.7969C25.0254 27.019 25.2054 27.1991 25.4275 27.1991H27.3629C27.585 27.1991 27.7651 27.019 27.7651 26.7969V25.3021H29.2599C29.482 25.3021 29.662 25.122 29.662 24.9V22.9646C29.662 22.7424 29.482 22.5624 29.2599 22.5624Z" fill="#EE878A"/>
<path d="M22.6435 23.9322C22.6435 20.9909 24.7495 18.5411 27.5356 18.0081C27.1664 17.9375 26.7849 17.9007 26.3952 17.9007C23.064 17.9007 20.3636 20.6011 20.3636 23.9323C20.3636 27.2635 23.064 29.9639 26.3952 29.9639C26.7849 29.9639 27.1668 29.9268 27.536 29.8562C24.7499 29.3231 22.6435 26.8736 22.6435 23.9322Z" fill="#A9E4F9"/>
</svg>
