<svg width="45" height="50" viewBox="0 0 45 50" fill="none" xmlns="http://www.w3.org/2000/svg">
<path d="M36.6664 4.99932C36.6664 3.1584 35.174 1.66602 33.3331 1.66602H25.8334H10.8334H3.33336C1.49244 1.66602 6.10352e-05 3.1584 6.10352e-05 4.99932V46.6663C6.10352e-05 48.5072 1.49244 49.9996 3.33336 49.9996H33.3333C35.1742 49.9996 36.6666 48.5072 36.6666 46.6663L36.6664 4.99932Z" fill="#D07D62"/>
<path d="M33.3329 6.6667C33.3329 5.74619 32.5867 5 31.6662 5H25.8331H10.8333H4.99983C4.07932 5 3.33313 5.74619 3.33313 6.6667V45.0002C3.33313 45.9207 4.07932 46.6669 4.99983 46.6669H31.6662C32.5867 46.6669 33.3329 45.9207 33.3329 45.0002V6.6667Z" fill="#FFF5F5"/>
<path d="M31.6663 5H29.3524C30.2729 5 31.019 5.74619 31.019 6.6667V45.0002C31.019 45.9207 30.2728 46.6669 29.3524 46.6669H31.6663C32.5868 46.6669 33.333 45.9207 33.333 45.0002V6.6667C33.333 5.74619 32.5868 5 31.6663 5Z" fill="#ECE6F2"/>
<path d="M36.6664 4.99932C36.6664 3.1584 35.174 1.66602 33.3331 1.66602H31.0192C32.8601 1.66602 34.3525 3.1584 34.3525 4.99932L34.3527 46.6663C34.3527 48.5072 32.8603 49.9996 31.0194 49.9996H33.3333C35.1742 49.9996 36.6666 48.5072 36.6666 46.6663L36.6664 4.99932Z" fill="#CA6348"/>
<path d="M24.1457 0H11.6146C11.1832 0 10.8334 0.349805 10.8334 0.78125V5.10439C10.8334 5.96738 11.5329 6.66689 12.3959 6.66689H24.1457V0Z" fill="#E6FFFF"/>
<path d="M25.0282 0H22.7144C23.159 0 23.5192 0.360352 23.5192 0.804785V5.05723C23.5192 5.94619 22.7985 6.66689 21.9095 6.66689H24.2233C25.1123 6.66689 25.833 5.94619 25.833 5.05723V0.804785C25.8331 0.360352 25.4727 0 25.0282 0Z" fill="#B3F2FF"/>
<path d="M18.333 4.24512C17.9163 4.24512 17.5786 4.58291 17.5786 4.99961V6.66621H19.0876V4.99971C19.0876 4.58301 18.7497 4.24512 18.333 4.24512Z" fill="#B3F2FF"/>
<path d="M20.8852 33.3343H14.1144C13.683 33.3343 13.3332 32.9845 13.3332 32.553V30.7822C13.3332 30.3508 13.683 30.001 14.1144 30.001H20.8852C21.3167 30.001 21.6665 30.3508 21.6665 30.7822V32.553C21.6665 32.9845 21.3167 33.3343 20.8852 33.3343Z" fill="#333373"/>
<path d="M29.2185 33.3343H25.781C25.3496 33.3343 24.9998 32.9845 24.9998 32.553V30.7822C24.9998 30.3508 25.3496 30.001 25.781 30.001H29.2185C29.65 30.001 29.9998 30.3508 29.9998 30.7822V32.553C29.9998 32.9845 29.65 33.3343 29.2185 33.3343Z" fill="#333373"/>
<path d="M9.19503 34.0885H7.4713C6.61144 34.0885 5.91193 33.389 5.91193 32.5291V30.8055C5.91193 29.9456 6.61144 29.2461 7.4713 29.2461H9.19503C10.0549 29.2461 10.7544 29.9456 10.7544 30.8055V32.5291C10.7544 33.389 10.0549 34.0885 9.19503 34.0885ZM7.4713 30.7552C7.44357 30.7552 7.42101 30.7777 7.42101 30.8055V32.5291C7.42101 32.5568 7.44357 32.5794 7.4713 32.5794H9.19503C9.22277 32.5794 9.24533 32.5568 9.24533 32.5291V30.8055C9.24533 30.7777 9.22277 30.7552 9.19503 30.7552H7.4713Z" fill="#ECE6F2"/>
<path d="M22.4477 36.666H29.2185C29.6499 36.666 29.9997 37.0158 29.9997 37.4473V39.2181C29.9997 39.6495 29.6499 39.9993 29.2185 39.9993H22.4477C22.0162 39.9993 21.6664 39.6495 21.6664 39.2181V37.4473C21.6664 37.0158 22.0162 36.666 22.4477 36.666Z" fill="#333373"/>
<path d="M14.1144 36.666H17.5519C17.9834 36.666 18.3332 37.0158 18.3332 37.4473V39.2181C18.3332 39.6495 17.9834 39.9993 17.5519 39.9993H14.1144C13.683 39.9993 13.3332 39.6495 13.3332 39.2181V37.4473C13.3332 37.0158 13.6829 36.666 14.1144 36.666Z" fill="#333373"/>
<path d="M9.19497 40.7545H7.47124C6.61138 40.7545 5.91187 40.055 5.91187 39.1951V37.4715C5.91187 36.6116 6.61138 35.9121 7.47124 35.9121H9.19497C10.0548 35.9121 10.7543 36.6116 10.7543 37.4715V39.1951C10.7543 40.055 10.0548 40.7545 9.19497 40.7545ZM7.47124 37.4212C7.44351 37.4212 7.42095 37.4438 7.42095 37.4715V39.1951C7.42095 39.2229 7.44351 39.2454 7.47124 39.2454H9.19497C9.22271 39.2454 9.24526 39.2229 9.24526 39.1951V37.4715C9.24526 37.4438 9.22271 37.4212 9.19497 37.4212H7.47124Z" fill="#ECE6F2"/>
<path d="M20.8615 30H18.5476C18.9921 30 19.3524 30.3604 19.3524 30.8048V32.5284C19.3524 32.973 18.992 33.3332 18.5476 33.3332H20.8615C21.306 33.3332 21.6664 32.9729 21.6664 32.5284V30.8048C21.6664 30.3603 21.306 30 20.8615 30Z" fill="#0F0F4D"/>
<path d="M29.1948 30H26.881C27.3254 30 27.6858 30.3604 27.6858 30.8048V32.5284C27.6858 32.973 27.3254 33.3332 26.881 33.3332H29.1948C29.6394 33.3332 29.9997 32.9729 29.9997 32.5284V30.8048C29.9997 30.3603 29.6394 30 29.1948 30Z" fill="#0F0F4D"/>
<path d="M29.1948 36.667H26.881C27.3254 36.667 27.6858 37.0273 27.6858 37.4719V39.1955C27.6858 39.64 27.3254 40.0003 26.881 40.0003H29.1948C29.6394 40.0003 29.9997 39.6399 29.9997 39.1955V37.4719C29.9997 37.0273 29.6394 36.667 29.1948 36.667Z" fill="#0F0F4D"/>
<path d="M17.5282 36.667H15.2144C15.6589 36.667 16.0191 37.0273 16.0191 37.4719V39.1955C16.0191 39.64 15.6588 40.0003 15.2144 40.0003H17.5282C17.9728 40.0003 18.3331 39.6399 18.3331 39.1955V37.4719C18.3331 37.0273 17.9728 36.667 17.5282 36.667Z" fill="#0F0F4D"/>
<path d="M25.1896 13.0014C23.6474 11.4691 21.2894 11.2568 19.52 12.3627C19.3029 12.4983 19.0299 12.4983 18.8128 12.3627C17.0434 11.2568 14.6855 11.4691 13.1432 13.0014C11.3444 14.7886 11.3922 17.77 13.1853 19.563L18.2381 24.6158C18.7508 25.1285 19.5821 25.1285 20.0948 24.6158L25.1475 19.563C26.9406 17.7699 26.9884 14.7886 25.1896 13.0014Z" fill="#FF77AB"/>
<path d="M25.1896 13.0017C23.9964 11.8162 22.315 11.4215 20.7955 11.8156C21.5569 12.013 22.2777 12.4077 22.8757 13.0017C24.6745 14.7889 24.6266 17.7704 22.8336 19.5633L18.0095 24.3875L18.2381 24.6161C18.7508 25.1288 19.582 25.1288 20.0947 24.6161L25.1474 19.5632C26.9406 17.7704 26.9885 14.7889 25.1896 13.0017Z" fill="#FF5597"/>
<path d="M19.9998 20.7545C19.9819 20.7545 19.9642 20.7539 19.9463 20.7526C19.7281 20.7372 19.5275 20.6277 19.3962 20.4527L17.4182 17.8153L16.3666 18.8667C16.2251 19.0083 16.0332 19.0877 15.8331 19.0877H9.16642C8.74972 19.0877 8.41193 18.75 8.41193 18.3333C8.41193 17.9166 8.74972 17.5788 9.16642 17.5788H15.5205L16.9662 16.1332C17.1209 15.9784 17.335 15.8985 17.5532 15.914C17.7714 15.9295 17.9721 16.0389 18.1033 16.2139L20.0814 18.8513L21.1328 17.7998C21.2743 17.6583 21.4662 17.5788 21.6663 17.5788H29.1663C29.583 17.5788 29.9208 17.9166 29.9208 18.3333C29.9208 18.75 29.583 19.0877 29.1663 19.0877H21.9788L20.5332 20.5334C20.3913 20.6755 20.1991 20.7545 19.9998 20.7545Z" fill="#333373"/>
<path d="M36.2864 43.2522L38.4662 42.7535L42.8957 39.4207L43.6267 33.4968L40.3154 28.3341L36.5095 26.7772L35.5096 26.749C31.4551 27.3125 28.3332 30.791 28.3332 35.0006C28.3332 39.2102 31.4552 42.6888 35.5097 43.2521H36.2864V43.2522Z" fill="#2EE6A8"/>
<path d="M36.6665 26.667C36.2737 26.667 35.8878 26.6962 35.5095 26.7487C39.564 27.3122 42.6859 30.7907 42.6859 35.0003C42.6859 39.2099 39.564 42.6884 35.5095 43.2519C35.8878 43.3044 36.2737 43.3336 36.6665 43.3336C41.2688 43.3336 44.9998 39.6026 44.9998 35.0003C44.9998 30.398 41.2688 26.667 36.6665 26.667Z" fill="#24B3B3"/>
<path d="M35.5474 38.6439L31.9634 35.6059C31.6027 35.3004 31.5678 34.7564 31.8869 34.4075L33.0357 33.151C33.3277 32.8316 33.8155 32.7889 34.1585 33.0525L35.5762 34.1747C35.734 34.296 35.9556 34.2888 36.1051 34.1573L39.1685 31.4661C39.5122 31.1642 40.035 31.1957 40.3399 31.5367L41.4524 32.7813C41.7602 33.1257 41.7292 33.6548 41.3832 33.9608L36.0926 38.6379C35.9376 38.7751 35.7053 38.7776 35.5474 38.6439Z" fill="#FFF5F5"/>
<path d="M41.4524 32.7813L40.3399 31.5367C40.035 31.1957 39.5123 31.1642 39.1685 31.4661L38.4932 32.0594L39.1385 32.7813C39.4464 33.1257 39.4154 33.6548 39.0694 33.9608L34.6412 37.8756L35.5474 38.6439C35.7054 38.7776 35.9377 38.7751 36.0927 38.6379L41.3833 33.9608C41.7293 33.6548 41.7602 33.1256 41.4524 32.7813Z" fill="#ECE6F2"/>
</svg>
