<svg width="150" height="150" viewBox="0 0 150 150" fill="none" xmlns="http://www.w3.org/2000/svg">
<g clip-path="url(#clip0_329_967)">
<path d="M138.496 9.6377H11.5039C5.15102 9.6377 0 14.7887 0 21.1416V31.3985L10.1746 46.3662H142.341L150 31.3985V21.1416C150 14.7887 144.849 9.6377 138.496 9.6377Z" fill="#FFDEDF"/>
<path d="M13.5743 9.6377H11.5039C5.15102 9.6377 0 14.7887 0 21.1416V31.3985L10.1746 46.3662H13.5743V9.6377Z" fill="#FCD3D5"/>
<path d="M150 31.3984V123.005C150 129.358 144.849 134.509 138.496 134.509H11.5039C5.15102 134.509 0 129.358 0 123.005V31.3984H150Z" fill="#F9F9F9"/>
<path d="M131.438 56.4793H18.6906C16.7522 56.4793 15.1807 54.9078 15.1807 52.9694V44.9259C15.1807 42.9875 16.7522 41.416 18.6906 41.416H131.438C133.377 41.416 134.948 42.9875 134.948 44.9259V52.9694C134.948 54.9078 133.377 56.4793 131.438 56.4793Z" fill="#E4F8FF"/>
<path d="M79.0154 77.9988H71.1139C69.796 77.9988 68.7272 76.9304 68.7272 75.6122V69.7265C68.7272 68.4083 69.7957 67.3398 71.1139 67.3398H79.0154C80.3333 67.3398 81.402 68.4083 81.402 69.7265V75.6122C81.402 76.9304 80.3336 77.9988 79.0154 77.9988Z" fill="#FAF0EA"/>
<path d="M56.6196 77.9988H48.7181C47.3999 77.9988 46.3314 76.9304 46.3314 75.6122V69.7265C46.3314 68.4083 47.3999 67.3398 48.7181 67.3398H56.6196C57.9378 67.3398 59.0062 68.4083 59.0062 69.7265V75.6122C59.0062 76.9304 57.9378 77.9988 56.6196 77.9988Z" fill="#FAF0EA"/>
<path d="M34.2242 77.9988H26.3226C25.0047 77.9988 23.936 76.9304 23.936 75.6122V69.7265C23.936 68.4083 25.0044 67.3398 26.3226 67.3398H34.2242C35.542 67.3398 36.6108 68.4083 36.6108 69.7265V75.6122C36.6105 76.9304 35.542 77.9988 34.2242 77.9988Z" fill="#FAF0EA"/>
<path d="M93.5096 77.9988H101.411C102.729 77.9988 103.798 76.9304 103.798 75.6122V69.7265C103.798 68.4083 102.729 67.3398 101.411 67.3398H93.5096C92.1917 67.3398 91.123 68.4083 91.123 69.7265V75.6122C91.123 76.9304 92.1914 77.9988 93.5096 77.9988Z" fill="#FAF0EA"/>
<path d="M115.905 77.9988H123.807C125.125 77.9988 126.193 76.9304 126.193 75.6122V69.7265C126.193 68.4083 125.125 67.3398 123.807 67.3398H115.905C114.587 67.3398 113.518 68.4083 113.518 69.7265V75.6122C113.519 76.9304 114.587 77.9988 115.905 77.9988Z" fill="#FAF0EA"/>
<path d="M79.0154 98.616H71.1139C69.796 98.616 68.7272 97.5476 68.7272 96.2294V90.3437C68.7272 89.0258 69.7957 87.957 71.1139 87.957H79.0154C80.3333 87.957 81.402 89.0255 81.402 90.3437V96.2294C81.402 97.5476 80.3336 98.616 79.0154 98.616Z" fill="#FAF0EA"/>
<path d="M56.6196 98.616H48.7181C47.3999 98.616 46.3314 97.5476 46.3314 96.2294V90.3437C46.3314 89.0258 47.3999 87.957 48.7181 87.957H56.6196C57.9378 87.957 59.0062 89.0255 59.0062 90.3437V96.2294C59.0062 97.5476 57.9378 98.616 56.6196 98.616Z" fill="#FAF0EA"/>
<path d="M34.2242 98.616H26.3226C25.0047 98.616 23.936 97.5476 23.936 96.2294V90.3437C23.936 89.0258 25.0044 87.957 26.3226 87.957H34.2242C35.542 87.957 36.6108 89.0255 36.6108 90.3437V96.2294C36.6105 97.5476 35.542 98.616 34.2242 98.616Z" fill="#FAF0EA"/>
<path d="M79.0154 119.234H71.1139C69.796 119.234 68.7272 118.166 68.7272 116.848V110.962C68.7272 109.644 69.7957 108.575 71.1139 108.575H79.0154C80.3333 108.575 81.402 109.644 81.402 110.962V116.848C81.402 118.166 80.3336 119.234 79.0154 119.234Z" fill="#FAF0EA"/>
<path d="M56.6197 119.234H48.7181C47.3999 119.234 46.3315 118.166 46.3315 116.848V110.962C46.3315 109.644 47.3999 108.575 48.7181 108.575H56.6197C57.9378 108.575 59.0063 109.644 59.0063 110.962V116.848C59.0063 118.166 57.9378 119.234 56.6197 119.234Z" fill="#FAF0EA"/>
<path d="M34.2242 119.234H26.3226C25.0047 119.234 23.936 118.166 23.936 116.848V110.962C23.936 109.644 25.0044 108.575 26.3226 108.575H34.2242C35.542 108.575 36.6108 109.644 36.6108 110.962V116.848C36.6105 118.166 35.542 119.234 34.2242 119.234Z" fill="#FAF0EA"/>
<path d="M121.384 87.2608C102.472 87.2608 87.0859 102.647 87.0859 121.558V121.57C87.0862 122.231 86.5591 122.77 85.8982 122.77H30.8431C21.3059 122.77 13.5743 115.039 13.5743 105.501V31.3984H0V123.005C0 129.359 5.15041 134.509 11.5039 134.509H138.496C144.094 134.509 148.756 130.51 149.786 125.214C149.797 125.159 149.806 125.103 149.816 125.047C149.845 124.886 149.87 124.725 149.892 124.562C149.902 124.493 149.911 124.424 149.919 124.354C149.937 124.196 149.952 124.036 149.964 123.875C149.969 123.81 149.975 123.745 149.979 123.679C149.992 123.456 150 123.232 150 123.005V122.771V102.675C143.856 93.3947 133.323 87.2608 121.384 87.2608Z" fill="#F7F7F7"/>
<path d="M121.384 149.831C136.998 149.831 149.657 137.173 149.657 121.558C149.657 105.943 136.998 93.2852 121.384 93.2852C105.769 93.2852 93.1105 105.943 93.1105 121.558C93.1105 137.173 105.769 149.831 121.384 149.831Z" fill="#F1FBFF"/>
<path d="M126.338 107.523L121.384 112.478L116.429 107.523C115.693 106.787 114.499 106.787 113.763 107.523L107.348 113.938C106.612 114.674 106.612 115.868 107.348 116.604L112.303 121.559L107.348 126.513C106.612 127.249 106.612 128.443 107.348 129.179L113.763 135.594C114.499 136.33 115.693 136.33 116.429 135.594L121.384 130.639L126.338 135.594C127.074 136.33 128.268 136.33 129.004 135.594L135.419 129.179C136.155 128.443 136.155 127.249 135.419 126.513L130.465 121.559L135.419 116.604C136.155 115.868 136.155 114.674 135.419 113.938L129.004 107.523C128.268 106.787 127.074 106.787 126.338 107.523Z" fill="#FFDEDF"/>
<path d="M103.797 121.558C103.797 107.77 113.67 96.2869 126.729 93.7885C124.999 93.4575 123.21 93.2852 121.384 93.2852C105.769 93.2852 93.1105 105.943 93.1105 121.558C93.1105 137.173 105.769 149.831 121.384 149.831C123.21 149.831 125 149.657 126.731 149.326C113.671 146.828 103.797 135.346 103.797 121.558Z" fill="#E4F8FF"/>
<path d="M24.6643 23.6265C29.5647 23.6265 33.5514 19.6397 33.5514 14.7393V9.6377H15.7771V14.7393C15.7771 19.6397 19.7639 23.6265 24.6643 23.6265Z" fill="#FCD3D5"/>
<path d="M24.6643 19.1076C22.2515 19.1076 20.2956 17.1517 20.2956 14.7389V4.53865C20.2956 2.1258 22.2515 0.169922 24.6643 0.169922C27.0772 0.169922 29.033 2.1258 29.033 4.53865V14.7389C29.0333 17.1517 27.0772 19.1076 24.6643 19.1076Z" fill="#F7F7F7"/>
<path d="M44.7861 23.6265C49.6865 23.6265 53.6733 19.6397 53.6733 14.7393V9.6377H35.8987V14.7393C35.8987 19.6397 39.8857 23.6265 44.7861 23.6265Z" fill="#FCD3D5"/>
<path d="M44.7861 19.1076C42.3733 19.1076 40.4174 17.1517 40.4174 14.7389V4.53865C40.4174 2.1258 42.3733 0.169922 44.7861 0.169922C47.199 0.169922 49.1549 2.1258 49.1549 4.53865V14.7389C49.1549 17.1517 47.199 19.1076 44.7861 19.1076Z" fill="#F7F7F7"/>
<path d="M64.9077 23.6265C69.8081 23.6265 73.7949 19.6397 73.7949 14.7393V9.6377H56.0203V14.7393C56.0206 19.6397 60.0073 23.6265 64.9077 23.6265Z" fill="#FCD3D5"/>
<path d="M64.9076 19.1076C62.4948 19.1076 60.5389 17.1517 60.5389 14.7389V4.53865C60.5389 2.1258 62.4948 0.169922 64.9076 0.169922C67.3204 0.169922 69.2763 2.1258 69.2763 4.53865V14.7389C69.2763 17.1517 67.3204 19.1076 64.9076 19.1076Z" fill="#F7F7F7"/>
<path d="M85.029 23.6265C89.9297 23.6265 93.9165 19.6397 93.9165 14.7393V9.6377H76.1418V14.7393C76.1418 19.6397 80.1286 23.6265 85.029 23.6265Z" fill="#FCD3D5"/>
<path d="M85.0291 19.1076C82.6163 19.1076 80.6604 17.1517 80.6604 14.7389V4.53865C80.6604 2.1258 82.6163 0.169922 85.0291 0.169922C87.442 0.169922 89.3979 2.1258 89.3979 4.53865V14.7389C89.3982 17.1517 87.442 19.1076 85.0291 19.1076Z" fill="#F7F7F7"/>
<path d="M105.151 23.6265C110.051 23.6265 114.038 19.6397 114.038 14.7393V9.6377H96.2637V14.7393C96.2637 19.6397 100.25 23.6265 105.151 23.6265Z" fill="#FCD3D5"/>
<path d="M105.151 19.1076C102.738 19.1076 100.782 17.1517 100.782 14.7389V4.53865C100.782 2.1258 102.738 0.169922 105.151 0.169922C107.564 0.169922 109.52 2.1258 109.52 4.53865V14.7389C109.52 17.1517 107.564 19.1076 105.151 19.1076Z" fill="#F7F7F7"/>
<path d="M125.272 23.6265C130.173 23.6265 134.16 19.6397 134.16 14.7393V9.6377H116.385V14.7393C116.385 19.6397 120.372 23.6265 125.272 23.6265Z" fill="#FCD3D5"/>
<path d="M125.272 19.1076C122.86 19.1076 120.904 17.1517 120.904 14.7389V4.53865C120.904 2.1258 122.86 0.169922 125.272 0.169922C127.685 0.169922 129.641 2.1258 129.641 4.53865V14.7389C129.641 17.1517 127.685 19.1076 125.272 19.1076Z" fill="#F7F7F7"/>
</g>
<defs>
<clipPath id="clip0_329_967">
<rect width="150" height="150" fill="white"/>
</clipPath>
</defs>
</svg>
