<svg width="32" height="32" viewBox="0 0 32 32" fill="none" xmlns="http://www.w3.org/2000/svg">
<path d="M29.4634 32C28.0625 32 26.9269 30.9074 26.9269 29.5598V5.33331C26.9269 4.61488 26.3445 4.0325 25.6261 4.0325H1.30081C0.582375 4.0325 0 4.61494 0 5.33331V29.5597C0 30.9074 1.13569 32 2.53656 32H29.4634Z" fill="#E7ECF6"/>
<path d="M2.0813 18.0097V27.1284C2.0813 27.4841 2.36955 27.7723 2.72517 27.7723H10.5431C10.8987 27.7723 11.187 27.4841 11.187 27.1284V18.0097C11.187 17.6541 10.8987 17.3658 10.5431 17.3658H2.72517C2.36955 17.3659 2.0813 17.6541 2.0813 18.0097Z" fill="#DF75A5"/>
<path d="M2.0813 6.62825V14.1848C2.0813 14.5048 2.34074 14.7643 2.6608 14.7643H24.266C24.5861 14.7643 24.8455 14.5048 24.8455 14.1848V6.62825C24.8455 6.30819 24.5861 6.04875 24.266 6.04875H2.66074C2.34074 6.04875 2.0813 6.30825 2.0813 6.62825Z" fill="#FFE07D"/>
<path d="M30.7317 0C30.0312 0 29.4634 0.567812 29.4634 1.26831V24.1301C29.4634 24.8486 28.881 25.4309 28.1626 25.4309H26.9268V5.33331C26.9268 4.61487 26.3444 4.0325 25.626 4.0325H2.66669V1.26831C2.66669 0.567812 3.2345 0 3.93494 0L30.7317 0Z" fill="#D8E2F1"/>
<path d="M26.9268 29.5598C26.9268 30.9074 28.0625 32 29.4634 32C30.8643 32 32 30.9074 32 29.5598V1.29869C32 0.611001 31.4653 0.0252513 30.7779 0.000813769C30.0564 -0.0248112 29.4634 0.552439 29.4634 1.26831V24.1301C29.4634 24.8486 28.881 25.4309 28.1626 25.4309H26.9268V29.5598Z" fill="#A2B9E2"/>
<path d="M24.3626 17.8487H13.7886C13.5219 17.8487 13.3057 17.6326 13.3057 17.3659C13.3057 17.0992 13.5219 16.883 13.7886 16.883H24.3626C24.6293 16.883 24.8455 17.0992 24.8455 17.3659C24.8455 17.6326 24.6293 17.8487 24.3626 17.8487Z" fill="#5E54AC"/>
<path d="M24.3626 19.9301H13.7886C13.5219 19.9301 13.3057 19.7139 13.3057 19.4472C13.3057 19.1805 13.5219 18.9643 13.7886 18.9643H24.3626C24.6293 18.9643 24.8455 19.1805 24.8455 19.4472C24.8455 19.7139 24.6293 19.9301 24.3626 19.9301Z" fill="#5E54AC"/>
<path d="M24.3626 22.0114H13.7886C13.5219 22.0114 13.3057 21.7952 13.3057 21.5285C13.3057 21.2618 13.5219 21.0456 13.7886 21.0456H24.3626C24.6293 21.0456 24.8455 21.2618 24.8455 21.5285C24.8455 21.7952 24.6293 22.0114 24.3626 22.0114Z" fill="#5E54AC"/>
<path d="M24.3626 24.0926H13.7886C13.5219 24.0926 13.3057 23.8764 13.3057 23.6098C13.3057 23.3431 13.5219 23.1269 13.7886 23.1269H24.3626C24.6293 23.1269 24.8455 23.3431 24.8455 23.6098C24.8455 23.8764 24.6293 24.0926 24.3626 24.0926Z" fill="#5E54AC"/>
<path d="M24.3626 26.1739H13.7886C13.5219 26.1739 13.3057 25.9577 13.3057 25.6911C13.3057 25.4244 13.5219 25.2082 13.7886 25.2082H24.3626C24.6293 25.2082 24.8455 25.4244 24.8455 25.6911C24.8455 25.9577 24.6293 26.1739 24.3626 26.1739Z" fill="#5E54AC"/>
<path d="M24.3626 28.2552H13.7886C13.5219 28.2552 13.3057 28.0391 13.3057 27.7724C13.3057 27.5057 13.5219 27.2895 13.7886 27.2895H24.3626C24.6293 27.2895 24.8455 27.5057 24.8455 27.7724C24.8455 28.0391 24.6293 28.2552 24.3626 28.2552Z" fill="#5E54AC"/>
<path d="M24.3626 30.3366H2.56417C2.29749 30.3366 2.0813 30.1204 2.0813 29.8537C2.0813 29.587 2.29749 29.3708 2.56417 29.3708H24.3626C24.6293 29.3708 24.8455 29.587 24.8455 29.8537C24.8455 30.1204 24.6293 30.3366 24.3626 30.3366Z" fill="#5E54AC"/>
<path d="M3.98715 13.1658C3.72046 13.1658 3.50427 12.9496 3.50427 12.6829V8.13855C3.50427 7.92724 3.64171 7.74043 3.84346 7.67755C4.04527 7.61468 4.26446 7.69024 4.38452 7.86418L6.68171 11.1906L6.65215 8.1348C6.64958 7.86812 6.86365 7.6498 7.13033 7.64724C7.1319 7.64718 7.13352 7.64718 7.13509 7.64718C7.39959 7.64718 7.61533 7.8603 7.61784 8.12543L7.6604 12.5248C7.66046 12.7977 7.50977 13.0181 7.27665 13.091C7.04902 13.1621 6.8079 13.0725 6.66258 12.8626L4.47009 9.68768V12.683C4.47002 12.9496 4.25383 13.1658 3.98715 13.1658Z" fill="#9DC6FB"/>
<path d="M11.1377 12.2001H9.7022V10.8894H10.9962C11.2629 10.8894 11.4791 10.6733 11.4791 10.4066C11.4791 10.1399 11.2629 9.92369 10.9962 9.92369H9.7022V8.61307H11.1377C11.4044 8.61307 11.6206 8.39688 11.6206 8.13019C11.6206 7.8635 11.4044 7.64732 11.1377 7.64732H9.21933C8.95264 7.64732 8.73645 7.8635 8.73645 8.13019V12.6831C8.73645 12.9498 8.95264 13.1659 9.21933 13.1659H11.1377C11.4044 13.1659 11.6206 12.9498 11.6206 12.6831C11.6206 12.4164 11.4044 12.2001 11.1377 12.2001Z" fill="#9DC6FB"/>
<path d="M21.5698 13.1658C20.8253 13.1658 20.0984 12.8543 19.6254 12.3323C19.4463 12.1347 19.4613 11.8293 19.6589 11.6503C19.8565 11.4711 20.1619 11.4862 20.341 11.6838C20.634 12.0071 21.0934 12.2001 21.5697 12.2001C22.0549 12.2001 22.3982 11.9008 22.4499 11.6113C22.5005 11.3279 22.2629 11.0669 21.798 10.8954C21.0945 10.6359 20.4701 10.358 20.4438 10.3463C20.4205 10.3359 20.3982 10.3237 20.3769 10.3098C19.9252 10.0154 19.6925 9.49888 19.7696 8.96182C19.852 8.38725 20.2735 7.91875 20.8697 7.73925C22.0693 7.37794 23.0585 8.19357 23.1 8.22844C23.3042 8.40007 23.3305 8.70469 23.1589 8.90882C22.988 9.11238 22.6848 9.13925 22.4806 8.9695C22.4653 8.95707 21.8366 8.45682 21.1482 8.664C20.8084 8.76638 20.7395 9.00238 20.7255 9.09907C20.7037 9.2515 20.7604 9.39244 20.878 9.48232C21.0265 9.54744 21.559 9.77794 22.1322 9.98938C23.2309 10.3946 23.5079 11.1806 23.4007 11.7811C23.2575 12.5835 22.4875 13.1658 21.5698 13.1658Z" fill="#9DC6FB"/>
<path d="M18.2457 7.66481C17.9843 7.61294 17.7299 7.78256 17.6779 8.04419L17.0838 11.0294L16.1468 7.98794C16.0683 7.73306 15.7979 7.59019 15.5432 7.66863C15.3679 7.72263 15.2455 7.86738 15.2117 8.03544L14.2849 11.0298L13.6929 8.03644C13.6411 7.77475 13.3868 7.60463 13.1255 7.65644C12.8639 7.70819 12.6937 7.96225 12.7455 8.22381L13.6325 12.7083C13.6371 12.7314 13.6434 12.7541 13.6512 12.7762C13.7341 13.0097 13.9556 13.1658 14.2031 13.1658H14.207C14.4562 13.1641 14.6774 13.0046 14.7576 12.7688C14.759 12.7646 14.7604 12.7603 14.7617 12.7561L15.6857 9.77094L16.6055 12.7568C16.6075 12.7633 16.6097 12.7699 16.612 12.7763C16.6949 13.0097 16.9164 13.1658 17.1638 13.1658H17.1678C17.4168 13.1641 17.638 13.0046 17.7182 12.7688C17.725 12.7488 17.7305 12.7283 17.7347 12.7075L18.625 8.23269C18.6771 7.97113 18.5073 7.71688 18.2457 7.66481Z" fill="#9DC6FB"/>
</svg>
