<svg width="31" height="32" viewBox="0 0 31 32" fill="none" xmlns="http://www.w3.org/2000/svg">
<path fill-rule="evenodd" clip-rule="evenodd" d="M0.66243 18.5673L1.45155 31.0654C1.4972 31.7882 2.02877 31.9544 2.4854 31.958L4.12751 31.9744L5.97784 24.0507L4.12751 17.2586L1.84611 17.2677C1.29078 17.2714 0.603967 17.6382 0.66243 18.5673Z" fill="#FDB440"/>
<path fill-rule="evenodd" clip-rule="evenodd" d="M5.2198 2.40399L5.2216 15.258C5.25811 15.2562 5.30196 15.2361 5.33486 15.2543L6.77241 16.01L8.32682 15.2525L9.95065 7.34699L8.32682 1.87647H5.74583C5.45726 1.87647 5.21793 2.11374 5.2198 2.40399Z" fill="#92BCDE"/>
<path fill-rule="evenodd" clip-rule="evenodd" d="M8.32684 1.87647V15.2525L18.5266 17.2202L28.2112 13.0055V0.527517C28.2112 0.237264 27.9737 0 27.6833 0H8.85475C8.5643 0 8.32684 0.237264 8.32684 0.527517V1.87647Z" fill="#F8F2F0"/>
<path fill-rule="evenodd" clip-rule="evenodd" d="M8.32684 15.2525L5.33487 15.2543C4.43804 15.2561 4.1275 15.7983 4.1275 16.3897V17.2586V31.9744L6.55139 32H28.2697C29.5556 32 30.2643 31.1762 30.341 30.6049V14.6411C30.3301 12.9672 29.0332 13.0056 28.5674 13.0056H28.2112H20.6783H14.8369C14.1483 13.0056 14.004 13.5094 14.004 13.743V14.9587C14.004 15.2763 13.8158 15.2507 13.509 15.2507L8.32684 15.2525Z" fill="#FECE85"/>
<path fill-rule="evenodd" clip-rule="evenodd" d="M27.6834 0H16.7548C21.7999 2.36748 22.6785 7.74857 23.3634 13.0055H28.2112V0.527517C28.2112 0.237264 27.9738 0 27.6834 0Z" fill="#D6DCEA"/>
<path fill-rule="evenodd" clip-rule="evenodd" d="M23.3634 13.0055C24.1233 18.8211 22.3314 27.0844 19.3322 32H28.2697C29.5556 32 30.2643 31.1762 30.3411 30.6049V14.6411C30.3301 12.9672 29.0332 13.0056 28.5674 13.0056H28.2112L23.3634 13.0055Z" fill="#FDB440"/>
<path fill-rule="evenodd" clip-rule="evenodd" d="M20.6418 21.0735H19.0655C18.8134 21.0735 18.6088 21.2798 18.6088 21.5298V23.8644C18.6088 24.1145 18.8134 24.3189 19.0655 24.3189H20.6418V25.896C20.6418 26.1461 20.8464 26.3505 21.0985 26.3505H23.4328C23.6849 26.3505 23.8895 26.1461 23.8895 25.896V24.3189H25.4658C25.7179 24.3189 25.9225 24.1145 25.9225 23.8644V21.5298C25.9225 21.2797 25.7179 21.0735 25.4658 21.0735H23.8895V19.4982C23.8895 19.2482 23.6849 19.0419 23.4328 19.0419H21.0985C20.8464 19.0419 20.6418 19.2482 20.6418 19.4982V21.0735Z" fill="#FD8087"/>
<path fill-rule="evenodd" clip-rule="evenodd" d="M21.851 19.0419C22.3113 20.0276 22.5871 21.2597 22.5871 22.5977C22.5871 24.0269 22.2729 25.3357 21.7524 26.3506H23.4329C23.6849 26.3506 23.8895 26.1461 23.8895 25.896V24.319H25.4659C25.7179 24.319 25.9225 24.1145 25.9225 23.8645V21.5299C25.9225 21.2798 25.7179 21.0736 25.4659 21.0736H23.8895V19.4983C23.8895 19.2482 23.6849 19.042 23.4329 19.042H21.851V19.0419Z" fill="#FE636E"/>
<path d="M14.74 24.831H8.29399C8.02731 24.831 7.8111 24.6149 7.8111 24.3481C7.8111 24.0814 8.02731 23.8652 8.29399 23.8652H14.7401C15.0068 23.8652 15.223 24.0814 15.223 24.3481C15.223 24.6149 15.0067 24.831 14.74 24.831Z" fill="#609ECF"/>
<path d="M14.74 21.6258H8.29399C8.02731 21.6258 7.8111 21.4097 7.8111 21.1429C7.8111 20.8762 8.02731 20.66 8.29399 20.66H14.7401C15.0068 20.66 15.223 20.8762 15.223 21.1429C15.223 21.4097 15.0067 21.6258 14.74 21.6258Z" fill="#609ECF"/>
<path d="M24.7078 8.82653H12.5372C12.2705 8.82653 12.0543 8.61038 12.0543 8.34363C12.0543 8.07688 12.2705 7.86073 12.5372 7.86073H24.7078C24.9745 7.86073 25.1907 8.07688 25.1907 8.34363C25.1907 8.61038 24.9745 8.82653 24.7078 8.82653Z" fill="#609ECF"/>
<path d="M24.7078 4.94223H12.5372C12.2705 4.94223 12.0543 4.72608 12.0543 4.45933C12.0543 4.19258 12.2705 3.97643 12.5372 3.97643H24.7078C24.9745 3.97643 25.1907 4.19258 25.1907 4.45933C25.1907 4.72608 24.9745 4.94223 24.7078 4.94223Z" fill="#609ECF"/>
</svg>
