<svg width="56" height="56" viewBox="0 0 56 56" fill="none" xmlns="http://www.w3.org/2000/svg">
<path d="M9.37315 6.68575V14.2151H2V6.68575C2 4.65034 3.65034 3 5.6873 3C6.70495 3 7.62641 3.41336 8.29377 4.07928C8.96124 4.74664 9.37315 5.6681 9.37315 6.68575Z" fill="#BCBCCE"/>
<path d="M9.37311 6.68575V53H46.2971V14.2151V6.68575C46.2971 5.6681 45.8853 4.74664 45.2178 4.07928C44.5504 3.41336 43.629 3 42.6112 3H5.68726C6.70491 3 7.62637 3.41336 8.29384 4.07928C8.9612 4.74664 9.37311 5.6681 9.37311 6.68575Z" fill="white"/>
<path d="M45.2179 4.07928C44.5505 3.41346 43.6291 3 42.6114 3H39.946C40.9637 3 41.8852 3.41336 42.5525 4.07928C43.22 4.74664 43.6318 5.6681 43.6318 6.68575V14.2151V53H46.2971V14.2151V6.68575C46.297 5.6681 45.8853 4.74664 45.2179 4.07928Z" fill="#BCBCCE"/>
<path d="M42.6808 27.0064H12.9894C12.5568 27.0064 12.2064 26.6559 12.2064 26.2234C12.2064 25.7909 12.5569 25.4404 12.9894 25.4404H42.6809C43.1135 25.4404 43.464 25.7909 43.464 26.2234C43.4639 26.6559 43.1133 27.0064 42.6808 27.0064Z" fill="#2B2F52"/>
<path d="M42.6808 34.485H12.9894C12.5568 34.485 12.2064 34.1344 12.2064 33.702C12.2064 33.2694 12.5569 32.9189 12.9894 32.9189H42.6809C43.1135 32.9189 43.464 33.2694 43.464 33.702C43.4639 34.1345 43.1133 34.485 42.6808 34.485Z" fill="#2B2F52"/>
<path d="M42.6808 41.9635H12.9894C12.5568 41.9635 12.2064 41.613 12.2064 41.1806C12.2064 40.748 12.5569 40.3975 12.9894 40.3975H42.6809C43.1135 40.3975 43.464 40.748 43.464 41.1806C43.4639 41.613 43.1133 41.9635 42.6808 41.9635Z" fill="#2B2F52"/>
<path d="M25.9923 49.444H12.9894C12.5568 49.444 12.2064 49.0935 12.2064 48.6609C12.2064 48.2283 12.5569 47.8779 12.9894 47.8779H25.9923C26.4249 47.8779 26.7753 48.2284 26.7753 48.6609C26.7753 49.0934 26.4248 49.444 25.9923 49.444Z" fill="#2B2F52"/>
<path d="M54.6513 29.4709C54.6353 29.1037 54.3657 28.797 54.0036 28.7337C51.3399 28.2689 49.138 26.2871 48.3938 23.685C48.2976 23.3489 47.9905 23.1172 47.6409 23.1172H34.8637C34.5141 23.1172 34.2069 23.3489 34.1108 23.685C33.3666 26.2872 31.1645 28.2689 28.501 28.7337C28.1387 28.7969 27.8693 29.1037 27.8532 29.4709C27.8391 29.7961 27.8318 30.1174 27.8318 30.4258C27.8318 39.0901 32.9786 46.8948 40.9438 50.3094C41.0422 50.3516 41.1472 50.3727 41.2523 50.3727C41.3573 50.3727 41.4624 50.3516 41.5608 50.3094C49.5259 46.8948 54.6727 39.0901 54.6727 30.4257C54.6727 30.1174 54.6655 29.7962 54.6513 29.4709Z" fill="#D07D62"/>
<path d="M54.6513 29.4709C54.6353 29.1037 54.3657 28.797 54.0036 28.7337C51.3399 28.2689 49.138 26.2871 48.3938 23.685C48.2976 23.3489 47.9905 23.1172 47.6409 23.1172H45.9345C46.1907 23.1172 46.4157 23.3489 46.4863 23.685C47.0318 26.2872 48.6455 28.2689 50.5978 28.7337C50.8632 28.7969 51.0607 29.1037 51.0726 29.4709C51.0828 29.7961 51.0882 30.1174 51.0882 30.4258C51.0882 39.0901 47.3161 46.8948 41.4784 50.3094C41.4063 50.3516 41.3293 50.3727 41.2524 50.3727C41.3574 50.3727 41.4624 50.3516 41.5609 50.3094C49.5259 46.8948 54.6727 39.0901 54.6727 30.4257C54.6727 30.1174 54.6655 29.7962 54.6513 29.4709Z" fill="#CA6348"/>
<path d="M36.0853 33.6649H39.1448V30.6055C39.1448 30.3881 39.321 30.2119 39.5384 30.2119H42.9662C43.1836 30.2119 43.3598 30.3881 43.3598 30.6055V33.6649H46.4193C46.6366 33.6649 46.8129 33.8411 46.8129 34.0585V37.4863C46.8129 37.7037 46.6366 37.8799 46.4193 37.8799H43.3598V40.9394C43.3598 41.1567 43.1836 41.333 42.9662 41.333H39.5384C39.321 41.333 39.1448 41.1567 39.1448 40.9394V37.8799H36.0853C35.8679 37.8799 35.6917 37.7037 35.6917 37.4863V34.0585C35.6917 33.8411 35.8679 33.6649 36.0853 33.6649Z" fill="white"/>
<path d="M26.9978 13.847C26.9978 16.4262 25.603 18.6792 23.5268 19.8945C22.4901 20.5026 21.2823 20.8503 19.9936 20.8503C18.7049 20.8503 17.4971 20.5025 16.4603 19.8945C14.384 18.6792 12.9893 16.4263 12.9893 13.847C12.9893 9.97814 16.1256 6.84277 19.9936 6.84277C23.8615 6.84277 26.9978 9.97803 26.9978 13.847Z" fill="#7EBFE7"/>
<path d="M22.4267 12.7163V14.1353C22.4267 14.8029 22.1583 15.4074 21.7234 15.8469L21.7144 15.8559C21.2742 16.2962 20.6658 16.5683 19.9938 16.5683C19.3171 16.5683 18.7058 16.2923 18.264 15.8468C17.829 15.4073 17.5607 14.8028 17.5607 14.1352V12.7162C17.5607 11.3728 18.6503 10.2832 19.9938 10.2832C21.337 10.2832 22.4267 11.3728 22.4267 12.7163Z" fill="#FFD2C0"/>
<path d="M23.5268 18.9272V19.8952C22.49 20.5033 21.2822 20.851 19.9935 20.851C18.7049 20.851 17.497 20.5032 16.4602 19.8952V18.9272C16.4602 17.6041 17.1873 16.4521 18.264 15.8467C18.7057 16.292 19.3166 16.5683 19.9934 16.5683C20.6657 16.5683 21.2737 16.2958 21.7144 15.856L21.7227 15.8468C22.0063 16.0049 22.2648 16.202 22.4917 16.4289C23.1316 17.0684 23.5268 17.9518 23.5268 18.9272Z" fill="#E36F91"/>
<path d="M42.2721 16.7375H31.1463C30.9206 16.7375 30.7375 16.5545 30.7375 16.3288V11.3648C30.7375 11.1391 30.9206 10.9561 31.1463 10.9561H42.2722C42.4979 10.9561 42.6809 11.1391 42.6809 11.3648V16.3288C42.6808 16.5545 42.4978 16.7375 42.2721 16.7375Z" fill="#E8C778"/>
</svg>
