<svg xmlns="http://www.w3.org/2000/svg" xmlns:xlink="http://www.w3.org/1999/xlink" viewBox="0,0,255.99626,255.99626" width="100px" height="100px" fill-rule="nonzero"><g fill="none" fill-rule="nonzero" stroke="none" stroke-width="1" stroke-linecap="butt" stroke-linejoin="miter" stroke-miterlimit="10" stroke-dasharray="" stroke-dashoffset="0" font-family="none" font-weight="none" font-size="none" text-anchor="none" style="mix-blend-mode: normal"><g transform="scale(2.56,2.56)"><path d="M87.234,55.551c0.3,-0.616 0.566,-1.264 0.796,-1.943c2.633,-7.77 -1.349,-17.078 -9.733,-19.325c-0.906,-11.383 -8.906,-19.193 -17.941,-20.525c-10.341,-1.525 -19.814,5.044 -22.966,15.485c-3.799,-1.346 -7.501,-1.182 -10.99,0.857c-1.583,0.732 -3.031,1.812 -4.33,3.233c-1.907,2.086 -3.147,4.719 -3.652,7.495c-0.748,0.118 -1.483,0.236 -2.176,0.484c-4.04,1.449 -6.589,4.431 -7.288,8.923c-0.435,2.797 0.443,5.587 0.933,6.714c1.935,4.455 6.422,6.98 10.981,6.312c0.227,-0.033 0.557,0.069 0.752,0.233c0.241,7.12 3.698,13.417 8.884,17.014c8.321,5.772 19.027,3.994 25.781,-3.921c2.894,2.96 6.338,4.398 10.384,3.876c4.023,-0.519 7.147,-2.739 9.426,-6.349c1.053,0.283 2.051,0.691 3.083,0.804c4.042,0.442 7.297,-1.184 9.732,-4.8c0.083,-0.124 0.203,-0.219 0.306,-0.328c0.348,-0.798 0.696,-1.596 1.044,-2.394c0.155,-1.211 0.429,-2.423 0.443,-3.632c0.039,-3.256 -1.292,-6.224 -3.469,-8.213z" fill="#c8ede6"></path><path d="M73.337,44.423c0,0 11.691,0 11.762,0c2.7,0 4.888,-2.189 4.888,-4.889c0,-2.355 -1.666,-4.321 -3.884,-4.784c0.026,-0.206 0.043,-0.415 0.043,-0.628c0,-2.796 -2.267,-5.063 -5.063,-5.063c-1.651,0 -3.113,0.794 -4.037,2.017c-0.236,-3.113 -3.017,-5.514 -6.27,-5.116c-2.379,0.291 -4.346,2.13 -4.784,4.486c-0.14,0.756 -0.126,1.489 0.014,2.177c-0.638,-0.687 -1.546,-1.119 -2.557,-1.119c-1.85,0 -3.361,1.441 -3.48,3.261c-0.84,-0.186 -1.754,-0.174 -2.717,0.188c-1.84,0.691 -3.15,2.423 -3.227,4.387c-0.109,2.789 2.12,5.085 4.885,5.085c0.21,0 0.948,0 1.118,0h10.151" fill="#fdfcef"></path><path d="M85.099,44.923h-11.762c-0.276,0 -0.5,-0.224 -0.5,-0.5c0,-0.276 0.224,-0.5 0.5,-0.5h11.762c2.42,0 4.389,-1.969 4.389,-4.389c0,-2.066 -1.466,-3.873 -3.486,-4.295c-0.255,-0.053 -0.426,-0.293 -0.394,-0.552c0.023,-0.186 0.039,-0.374 0.039,-0.565c0,-2.517 -2.047,-4.563 -4.562,-4.563c-1.438,0 -2.765,0.663 -3.638,1.818c-0.125,0.166 -0.338,0.237 -0.54,0.178c-0.199,-0.059 -0.342,-0.234 -0.357,-0.441c-0.104,-1.377 -0.779,-2.671 -1.85,-3.549c-1.083,-0.888 -2.456,-1.282 -3.86,-1.109c-2.166,0.266 -3.956,1.943 -4.353,4.081c-0.124,0.667 -0.12,1.335 0.013,1.986c0.044,0.22 -0.062,0.442 -0.262,0.544c-0.2,0.104 -0.443,0.06 -0.595,-0.104c-0.575,-0.618 -1.353,-0.959 -2.19,-0.959c-1.569,0 -2.878,1.228 -2.981,2.794c-0.01,0.146 -0.082,0.279 -0.199,0.366c-0.117,0.089 -0.268,0.12 -0.408,0.089c-0.841,-0.185 -1.637,-0.132 -2.433,0.167c-1.669,0.627 -2.835,2.209 -2.903,3.938c-0.047,1.207 0.387,2.35 1.221,3.218c0.835,0.869 1.959,1.348 3.164,1.348h11.269c0.276,0 0.5,0.224 0.5,0.5c0,0.276 -0.224,0.5 -0.5,0.5h-11.271c-1.479,0 -2.858,-0.588 -3.884,-1.654c-1.025,-1.066 -1.558,-2.469 -1.5,-3.95c0.083,-2.126 1.51,-4.069 3.55,-4.835c0.8,-0.301 1.626,-0.398 2.468,-0.299c0.377,-1.822 1.998,-3.182 3.905,-3.182c0.684,0 1.354,0.18 1.944,0.51c0,-0.386 0.035,-0.772 0.106,-1.159c0.477,-2.562 2.621,-4.573 5.215,-4.891c1.679,-0.205 3.32,0.266 4.616,1.328c1.003,0.823 1.716,1.951 2.038,3.193c1.012,-0.916 2.319,-1.426 3.714,-1.426c3.067,0 5.562,2.496 5.562,5.563c0,0.083 -0.002,0.166 -0.007,0.248c2.254,0.673 3.848,2.776 3.848,5.164c0.001,2.973 -2.416,5.389 -5.388,5.389z" fill="#472b29"></path><path d="M70.504,33.655c-1.808,-0.119 -3.365,1.13 -3.476,2.789c-0.014,0.206 -0.005,0.409 0.025,0.606c-0.349,-0.394 -0.865,-0.661 -1.458,-0.7c-1.085,-0.071 -2.022,0.645 -2.158,1.62c-0.197,-0.054 -0.403,-0.09 -0.616,-0.104c-1.582,-0.104 -2.944,0.989 -3.042,2.441" fill="#fdfcef"></path><path d="M59.78,40.556c-0.006,0 -0.012,0 -0.017,-0.001c-0.138,-0.009 -0.242,-0.128 -0.233,-0.266c0.107,-1.587 1.588,-2.789 3.308,-2.674c0.137,0.009 0.273,0.026 0.409,0.053c0.274,-0.968 1.256,-1.645 2.366,-1.567c0.425,0.027 0.823,0.159 1.164,0.382c0,-0.019 0.002,-0.037 0.003,-0.056c0.12,-1.795 1.787,-3.16 3.742,-3.021c0.138,0.009 0.242,0.128 0.233,0.266c-0.009,0.138 -0.124,0.255 -0.266,0.232c-1.651,-0.105 -3.108,1.037 -3.21,2.557c-0.012,0.184 -0.004,0.37 0.023,0.553c0.017,0.109 -0.041,0.217 -0.141,0.264c-0.1,0.047 -0.219,0.022 -0.293,-0.061c-0.323,-0.365 -0.78,-0.584 -1.287,-0.617c-0.951,-0.034 -1.775,0.556 -1.894,1.404c-0.01,0.071 -0.05,0.135 -0.11,0.175c-0.06,0.039 -0.133,0.051 -0.204,0.032c-0.187,-0.051 -0.377,-0.083 -0.567,-0.097c-1.44,-0.092 -2.687,0.896 -2.775,2.209c-0.011,0.132 -0.121,0.233 -0.251,0.233z" fill="#472b29"></path><path d="M87.079,35.323c-1.699,-0.801 -3.664,-0.234 -4.389,1.267c-0.09,0.186 -0.157,0.379 -0.201,0.574" fill="#fdfcef"></path><path d="M82.489,37.414c-0.018,0 -0.037,-0.002 -0.056,-0.006c-0.134,-0.031 -0.219,-0.165 -0.188,-0.3c0.049,-0.217 0.123,-0.428 0.219,-0.627c0.783,-1.621 2.902,-2.239 4.721,-1.385c0.125,0.06 0.179,0.208 0.12,0.333c-0.059,0.126 -0.209,0.176 -0.333,0.12c-1.574,-0.744 -3.394,-0.227 -4.058,1.149c-0.08,0.165 -0.141,0.34 -0.182,0.521c-0.026,0.117 -0.129,0.195 -0.243,0.195z" fill="#472b29"></path><path d="M50.899,19h-10.03c-0.276,0 -0.5,-0.224 -0.5,-0.5c0,-0.276 0.224,-0.5 0.5,-0.5h10.03c0.276,0 0.5,0.224 0.5,0.5c0,0.276 -0.223,0.5 -0.5,0.5zM54.28,18.5c0,-0.276 -0.224,-0.5 -0.5,-0.5h-1.446c-0.276,0 -0.5,0.224 -0.5,0.5c0,0.276 0.224,0.5 0.5,0.5h1.446c0.277,0 0.5,-0.224 0.5,-0.5zM58.335,18.5c0,-0.276 -0.224,-0.5 -0.5,-0.5h-2.546c-0.276,0 -0.5,0.224 -0.5,0.5c0,0.276 0.224,0.5 0.5,0.5h2.546c0.277,0 0.5,-0.224 0.5,-0.5zM58.335,20.5c0,-0.276 -0.224,-0.5 -0.5,-0.5h-9.616c-0.276,0 -0.5,0.224 -0.5,0.5c0,0.276 0.224,0.5 0.5,0.5h9.616c0.277,0 0.5,-0.224 0.5,-0.5zM46.987,20.5c0,-0.276 -0.224,-0.5 -0.5,-0.5h-0.58c-0.276,0 -0.5,0.224 -0.5,0.5c0,0.276 0.224,0.5 0.5,0.5h0.58c0.276,0 0.5,-0.224 0.5,-0.5zM44.611,20.5c0,-0.276 -0.224,-0.5 -0.5,-0.5h-1.457c-0.276,0 -0.5,0.224 -0.5,0.5c0,0.276 0.224,0.5 0.5,0.5h1.457c0.276,0 0.5,-0.224 0.5,-0.5zM53.746,16.5c0,-0.276 -0.224,-0.5 -0.5,-0.5h-5.027c-0.276,0 -0.5,0.224 -0.5,0.5c0,0.276 0.224,0.5 0.5,0.5h5.027c0.277,0 0.5,-0.224 0.5,-0.5zM53.746,14.5c0,-0.276 -0.224,-0.5 -0.5,-0.5h-1.257c-0.276,0 -0.5,0.224 -0.5,0.5c0,0.276 0.224,0.5 0.5,0.5h1.257c0.277,0 0.5,-0.224 0.5,-0.5zM50.477,22.5c0,-0.276 -0.224,-0.5 -0.5,-0.5h-1.758c-0.276,0 -0.5,0.224 -0.5,0.5c0,0.276 0.224,0.5 0.5,0.5h1.758c0.277,0 0.5,-0.224 0.5,-0.5zM84.744,58h-10.03c-0.276,0 -0.5,-0.224 -0.5,-0.5c0,-0.276 0.224,-0.5 0.5,-0.5h10.031c0.276,0 0.5,0.224 0.5,0.5c0,0.276 -0.224,0.5 -0.501,0.5zM88.125,57.5c0,-0.276 -0.224,-0.5 -0.5,-0.5h-1.446c-0.276,0 -0.5,0.224 -0.5,0.5c0,0.276 0.224,0.5 0.5,0.5h1.446c0.277,0 0.5,-0.224 0.5,-0.5zM92.18,57.5c0,-0.276 -0.224,-0.5 -0.5,-0.5h-2.546c-0.276,0 -0.5,0.224 -0.5,0.5c0,0.276 0.224,0.5 0.5,0.5h2.546c0.276,0 0.5,-0.224 0.5,-0.5zM90.154,53.5c0,-0.276 -0.224,-0.5 -0.5,-0.5h-9.616c-0.276,0 -0.5,0.224 -0.5,0.5c0,0.276 0.224,0.5 0.5,0.5h9.616c0.276,0 0.5,-0.224 0.5,-0.5zM78.806,53.5c0,-0.276 -0.224,-0.5 -0.5,-0.5h-0.58c-0.276,0 -0.5,0.224 -0.5,0.5c0,0.276 0.224,0.5 0.5,0.5h0.58c0.277,0 0.5,-0.224 0.5,-0.5zM76.429,53.5c0,-0.276 -0.224,-0.5 -0.5,-0.5h-1.456c-0.276,0 -0.5,0.224 -0.5,0.5c0,0.276 0.224,0.5 0.5,0.5h1.456c0.277,0 0.5,-0.224 0.5,-0.5zM87.591,55.5c0,-0.276 -0.224,-0.5 -0.5,-0.5h-5.027c-0.276,0 -0.5,0.224 -0.5,0.5c0,0.276 0.224,0.5 0.5,0.5h5.027c0.276,0 0.5,-0.224 0.5,-0.5zM87.591,53.5c0,-0.276 -0.224,-0.5 -0.5,-0.5h-1.257c-0.276,0 -0.5,0.224 -0.5,0.5c0,0.276 0.224,0.5 0.5,0.5h1.257c0.276,0 0.5,-0.224 0.5,-0.5zM81.108,55.5c0,-0.276 -0.224,-0.5 -0.5,-0.5h-1.758c-0.276,0 -0.5,0.224 -0.5,0.5c0,0.276 0.224,0.5 0.5,0.5h1.758c0.277,0 0.5,-0.224 0.5,-0.5z" fill="#ffffff"></path><path d="M54.125,30.735c-0.428,-2.07 -2.112,-3.615 -4.125,-3.615c-2.013,0 -3.698,1.545 -4.125,3.615z" fill="#b9d8f2"></path><path d="M54.984,31.435h-9.968l0.173,-0.842c0.499,-2.418 2.522,-4.173 4.811,-4.173c2.325,0 4.303,1.716 4.811,4.173zM46.829,30.034h6.345c-0.579,-1.337 -1.793,-2.214 -3.174,-2.214c-1.356,0 -2.587,0.893 -3.171,2.214z" fill="#472b29"></path><g><path d="M50,73.755c-3.223,0 -5.844,-2.622 -5.844,-5.844h11.688c0,3.222 -2.621,5.844 -5.844,5.844z" fill="#b9d8f2"></path><path d="M50,74.455c-3.608,0 -6.544,-2.936 -6.544,-6.544v-0.7h13.088v0.7c0,3.609 -2.936,6.544 -6.544,6.544zM44.904,68.611c0.342,2.506 2.497,4.443 5.096,4.443c2.599,0 4.754,-1.938 5.096,-4.443z" fill="#472b29"></path></g><g><path d="M31.235,67.67c-1.398,0 -2.535,-1.149 -2.535,-2.563c0,-1.414 1.137,-2.563 2.535,-2.563h0.62l2.357,-19.406c0.87,-7.165 6.921,-12.568 14.077,-12.568h3.422c7.155,0 13.207,5.403 14.077,12.568l2.356,19.406h0.62c1.398,0 2.535,1.149 2.535,2.563c0,1.414 -1.137,2.563 -2.535,2.563z" fill="#b9d8f2"></path><path d="M51.711,31.27c6.802,0 12.555,5.139 13.382,11.953l2.282,18.79l0.149,1.231h1.24c1.012,0 1.835,0.836 1.835,1.863c0,1.027 -0.823,1.863 -1.835,1.863h-37.529c-1.012,0 -1.835,-0.836 -1.835,-1.863c0,-1.027 0.823,-1.863 1.835,-1.863h1.24l0.15,-1.231l2.282,-18.79c0.827,-6.815 6.58,-11.953 13.382,-11.953h3.422M51.711,29.87h-3.422c-7.519,0 -13.858,5.657 -14.772,13.185l-2.282,18.79c-1.787,0 -3.235,1.461 -3.235,3.263c0,1.802 1.449,3.263 3.235,3.263h37.529c1.787,0 3.235,-1.461 3.235,-3.263c0,-1.802 -1.449,-3.263 -3.235,-3.263l-2.282,-18.79c-0.912,-7.528 -7.251,-13.185 -14.771,-13.185z" fill="#472b29"></path></g><g fill="#472b29"><path d="M54.125,62.911h-22.917c-0.276,0 -0.5,-0.224 -0.5,-0.5c0,-0.276 0.224,-0.5 0.5,-0.5h22.917c0.276,0 0.5,0.224 0.5,0.5c0,0.276 -0.224,0.5 -0.5,0.5z"></path></g><g fill="#472b29"><path d="M60.542,62.911h-3.667c-0.276,0 -0.5,-0.224 -0.5,-0.5c0,-0.276 0.224,-0.5 0.5,-0.5h3.667c0.276,0 0.5,0.224 0.5,0.5c0,0.276 -0.224,0.5 -0.5,0.5z"></path></g><g fill="#472b29"><path d="M65.125,62.911h-1.833c-0.276,0 -0.5,-0.224 -0.5,-0.5c0,-0.276 0.224,-0.5 0.5,-0.5h1.833c0.276,0 0.5,0.224 0.5,0.5c0,0.276 -0.224,0.5 -0.5,0.5z"></path></g><g><path d="M33.178,57.287c1.883,0 3.517,0 3.54,0c2.11,0 3.821,-1.674 3.821,-3.739c0,-1.802 -1.302,-3.305 -3.035,-3.66c0.02,-0.158 0.034,-0.317 0.034,-0.48c0,-2.139 -1.772,-3.873 -3.957,-3.873c-1.29,0 -2.433,0.607 -3.155,1.543c-0.185,-2.381 -2.358,-4.218 -4.9,-3.913c-1.859,0.223 -3.397,1.629 -3.739,3.431c-0.11,0.578 -0.098,1.139 0.011,1.665c-0.498,-0.525 -1.208,-0.856 -1.998,-0.856c-1.446,0 -2.627,1.102 -2.72,2.494c-0.657,-0.142 -1.371,-0.133 -2.123,0.143c-1.438,0.528 -2.462,1.853 -2.522,3.356c-0.085,2.133 1.657,3.889 3.818,3.889c0.164,0 0.741,0 0.874,0h7.934M26.701,57.287h0.36" fill="#fdfcef"></path><path d="M36.718,57.788h-3.54c-0.276,0 -0.5,-0.224 -0.5,-0.5c0,-0.276 0.224,-0.5 0.5,-0.5h3.54c1.831,0 3.321,-1.453 3.321,-3.239c0,-1.524 -1.108,-2.858 -2.636,-3.17c-0.256,-0.053 -0.429,-0.294 -0.396,-0.554c0.018,-0.137 0.03,-0.275 0.03,-0.417c0,-1.86 -1.551,-3.373 -3.457,-3.373c-1.092,0 -2.098,0.491 -2.76,1.349c-0.126,0.164 -0.341,0.231 -0.539,0.174c-0.198,-0.06 -0.339,-0.234 -0.355,-0.44c-0.079,-1.02 -0.565,-1.944 -1.369,-2.604c-0.829,-0.68 -1.885,-0.979 -2.973,-0.853c-1.646,0.197 -3.006,1.442 -3.307,3.027c-0.094,0.495 -0.091,0.99 0.009,1.472c0.045,0.219 -0.06,0.441 -0.258,0.545c-0.197,0.102 -0.44,0.063 -0.594,-0.1c-0.428,-0.451 -1.009,-0.7 -1.635,-0.7c-1.169,0 -2.145,0.891 -2.221,2.027c-0.01,0.146 -0.082,0.278 -0.198,0.366c-0.116,0.087 -0.264,0.12 -0.406,0.089c-0.639,-0.138 -1.243,-0.098 -1.846,0.125c-1.262,0.463 -2.144,1.631 -2.195,2.905c-0.035,0.876 0.283,1.709 0.895,2.346c0.635,0.66 1.496,1.024 2.423,1.024h8.807c0.276,0 0.5,0.224 0.5,0.5c0,0.276 -0.224,0.5 -0.5,0.5h-8.807c-1.185,0 -2.331,-0.485 -3.144,-1.331c-0.803,-0.836 -1.219,-1.929 -1.173,-3.078c0.067,-1.675 1.212,-3.204 2.849,-3.806c0.61,-0.225 1.24,-0.304 1.88,-0.244c0.344,-1.396 1.629,-2.424 3.135,-2.424c0.493,0 0.977,0.113 1.414,0.323c0.009,-0.242 0.037,-0.484 0.083,-0.727c0.381,-2.009 2.096,-3.585 4.17,-3.833c1.365,-0.167 2.685,0.218 3.726,1.071c0.748,0.613 1.278,1.409 1.546,2.302c0.791,-0.648 1.786,-1.007 2.842,-1.007c2.458,0 4.457,1.962 4.457,4.373c0,0.034 0,0.068 -0.001,0.103c1.764,0.555 3.003,2.188 3.003,4.038c0.001,2.339 -1.937,4.241 -4.32,4.241zM27.061,57.788h-0.36c-0.276,0 -0.5,-0.224 -0.5,-0.5c0,-0.276 0.224,-0.5 0.5,-0.5h0.36c0.276,0 0.5,0.224 0.5,0.5c0,0.276 -0.224,0.5 -0.5,0.5z" fill="#472b29"></path><g fill="#472b29"><path d="M35.011,51.984c-0.018,0 -0.036,-0.002 -0.055,-0.006c-0.135,-0.03 -0.22,-0.164 -0.189,-0.299c0.037,-0.164 0.094,-0.325 0.17,-0.479c0.604,-1.224 2.272,-1.677 3.722,-1.007c0.125,0.058 0.18,0.206 0.122,0.331c-0.058,0.126 -0.207,0.179 -0.332,0.122c-1.201,-0.556 -2.577,-0.208 -3.063,0.774c-0.058,0.118 -0.102,0.242 -0.13,0.367c-0.027,0.118 -0.13,0.197 -0.245,0.197z"></path></g><g fill="#472b29"><path d="M29.852,57.788h-1.107c-0.276,0 -0.5,-0.224 -0.5,-0.5c0,-0.276 0.224,-0.5 0.5,-0.5h1.107c0.276,0 0.5,0.224 0.5,0.5c0,0.276 -0.223,0.5 -0.5,0.5z"></path></g></g></g></g></svg>