<svg width="150" height="150" viewBox="0 0 150 150" fill="none" xmlns="http://www.w3.org/2000/svg">
<path fill-rule="evenodd" clip-rule="evenodd" d="M5.4489 87.0343L9.14789 145.619C9.36187 149.007 11.8536 149.786 13.9941 149.803L21.6915 149.88L30.3649 112.737L21.6915 80.8994L10.9974 80.9423C8.39427 80.9595 5.17485 82.6792 5.4489 87.0343Z" fill="#FFE4BA"/>
<path fill-rule="evenodd" clip-rule="evenodd" d="M26.8117 11.2686L26.8201 71.5219C26.9912 71.5134 27.1968 71.4192 27.351 71.5047L34.0895 75.047L41.3759 71.4962L48.9875 34.439L41.3759 8.7959H29.2775C27.9247 8.7959 26.8029 9.90807 26.8117 11.2686Z" fill="#E3F2FF"/>
<path fill-rule="evenodd" clip-rule="evenodd" d="M41.3759 8.79598V71.4963L89.1872 80.7199L134.584 60.9634V2.47274C134.584 1.11217 133.471 0 132.109 0H43.8504C42.4889 0 41.3759 1.11217 41.3759 2.47274V8.79598Z" fill="white"/>
<path fill-rule="evenodd" clip-rule="evenodd" d="M41.3759 71.4958L27.351 71.5043C23.1471 71.5127 21.6915 74.054 21.6915 76.8264V80.8991V149.88L33.0534 150H134.858C140.886 150 144.208 146.138 144.567 143.46V68.6295C144.516 60.7834 138.437 60.9632 136.253 60.9632H134.584H99.2734H71.8916C68.6638 60.9632 67.9874 63.3249 67.9874 64.4199V70.1184C67.9874 71.6072 67.1055 71.4874 65.6671 71.4874L41.3759 71.4958Z" fill="#FFE9C7"/>
<path fill-rule="evenodd" clip-rule="evenodd" d="M132.11 0H80.882C104.531 11.0976 108.649 36.3214 111.86 60.9634H134.584V2.47274C134.584 1.11217 133.471 0 132.11 0Z" fill="#EAF0FF"/>
<path fill-rule="evenodd" clip-rule="evenodd" d="M111.86 60.9629C115.422 88.2234 107.022 126.958 92.9632 150H134.858C140.886 150 144.208 146.138 144.567 143.46V68.6295C144.516 60.7834 138.437 60.9632 136.253 60.9632H134.584L111.86 60.9629Z" fill="#FFE0AF"/>
<path fill-rule="evenodd" clip-rule="evenodd" d="M95.9531 106.392L90.7281 111.617C89.8926 112.452 89.8984 113.814 90.727 114.643L98.4652 122.381C99.2941 123.21 100.65 123.209 101.485 122.374L106.71 117.149L111.937 122.376C112.766 123.205 114.122 123.205 114.957 122.369L122.695 114.632C123.53 113.796 123.531 112.441 122.702 111.612L117.475 106.384L122.7 101.159C123.535 100.324 123.536 98.9682 122.707 98.1393L114.969 90.4012C114.14 89.5723 112.778 89.5668 111.943 90.4023L106.718 95.6273L101.496 90.4059C100.667 89.577 99.3058 89.5715 98.4703 90.407L90.7328 98.1445C89.8973 98.98 89.9031 100.342 90.7317 101.17L95.9531 106.392Z" fill="#FBBBBF"/>
<path fill-rule="evenodd" clip-rule="evenodd" d="M93.2272 95.6496C98.02 97.3911 103.018 100.561 107.453 104.995C112.19 109.733 115.487 115.112 117.125 120.201L122.695 114.631C123.531 113.796 123.531 112.44 122.702 111.611L117.475 106.384L122.7 101.159C123.535 100.324 123.536 98.968 122.707 98.1391L114.969 90.4009C114.14 89.5721 112.778 89.5665 111.943 90.402L106.718 95.627L101.496 90.4056C100.668 89.5767 99.306 89.5712 98.4705 90.4067L93.2274 95.6498L93.2272 95.6496Z" fill="#FBBBBF"/>
<path d="M71.4377 116.395H41.2219C39.9718 116.395 38.9584 115.382 38.9584 114.132C38.9584 112.881 39.9718 111.868 41.2219 111.868H71.438C72.6881 111.868 73.7016 112.881 73.7016 114.132C73.7016 115.382 72.6878 116.395 71.4377 116.395Z" fill="#FFF0F6"/>
<path d="M71.4377 101.371H41.2219C39.9718 101.371 38.9584 100.358 38.9584 99.1073C38.9584 97.8569 39.9718 96.8438 41.2219 96.8438H71.438C72.6881 96.8438 73.7016 97.8569 73.7016 99.1073C73.7016 100.358 72.6878 101.371 71.4377 101.371Z" fill="#FFF0F6"/>
<path d="M118.162 41.3748H61.1116C59.8615 41.3748 58.848 40.3616 58.848 39.1112C58.848 37.8608 59.8615 36.8477 61.1116 36.8477H118.161C119.411 36.8477 120.425 37.8608 120.425 39.1112C120.425 40.3616 119.412 41.3748 118.162 41.3748Z" fill="#FFF0F6"/>
<path d="M118.162 23.1668H61.1116C59.8615 23.1668 58.848 22.1536 58.848 20.9032C58.848 19.6528 59.8615 18.6396 61.1116 18.6396H118.161C119.411 18.6396 120.425 19.6528 120.425 20.9032C120.425 22.1536 119.412 23.1668 118.162 23.1668Z" fill="#FFF0F6"/>
</svg>
