<svg width="150" height="150" viewBox="0 0 150 150" fill="none" xmlns="http://www.w3.org/2000/svg">
<g clip-path="url(#clip0_329_749)">
<path d="M112.387 22.4448C99.8682 10.9262 83.3544 4.62618 66.3435 4.79845C60.1076 4.86173 53.9787 5.77491 48.0619 7.51837L44.4912 1.49435C43.2944 -0.524795 40.3609 -0.491103 39.2107 1.55499L26.51 24.1499C25.3601 26.1957 26.8557 28.7191 29.2023 28.6924L55.1207 28.3977C57.4677 28.371 58.9056 25.8137 57.7088 23.7945L54.5257 18.4238C58.3782 17.5256 62.3283 17.0448 66.3355 16.9944C96.2521 16.6186 121.132 40.5266 121.898 70.4358C122.69 101.347 97.7746 126.746 67.0387 126.746C37.7397 126.746 13.7301 103.667 12.2345 74.7336C12.1516 73.1284 10.8303 71.8681 9.22305 71.8681H3.05576C1.33574 71.8681 -0.0409178 73.3039 0.0378908 75.0222C0.800488 91.6112 7.571 107.107 19.3056 118.989C31.5432 131.382 48.1876 138.564 65.6002 138.927C84.0889 139.311 101.53 132.275 114.545 119.219C127.087 106.636 134.112 89.6337 134.112 71.8678C134.112 52.9942 126.369 35.3106 112.387 22.4448Z" fill="#FFD1F5"/>
<path d="M118.601 28.9648C123.993 38.8971 127.056 50.2777 127.056 62.3741C127.056 101.101 95.6617 132.496 56.9342 132.496C46.4093 132.496 36.4284 130.173 27.4697 126.019C38.4918 134.068 51.8037 138.64 65.5999 138.927C84.0886 139.312 101.53 132.276 114.545 119.219C127.087 106.637 134.112 89.6346 134.112 71.8689C134.112 56.0088 128.643 40.9909 118.601 28.9648Z" fill="#F7BCF4"/>
<path d="M143.521 134.888L134.854 143.555C133.676 144.733 131.765 144.733 130.586 143.555L124.959 137.928L137.894 124.993L143.521 130.62C144.699 131.799 144.699 133.71 143.521 134.888Z" fill="#D7D1EF"/>
<path d="M149.966 143.489V146.982C149.966 148.649 148.614 150 146.947 150H143.455C142.654 150 141.886 149.682 141.321 149.116L135.307 143.103L143.068 135.342L149.082 141.355C149.648 141.921 149.966 142.689 149.966 143.489Z" fill="#FFE4F9"/>
<path d="M106.419 143.039C126.625 143.039 143.005 126.659 143.005 106.454C143.005 86.248 126.625 69.8682 106.419 69.8682C86.2138 69.8682 69.834 86.248 69.834 106.454C69.834 126.659 86.2138 143.039 106.419 143.039Z" fill="white"/>
<path d="M128.544 77.3164C133.217 83.4608 135.993 91.1264 135.993 99.4411C135.993 119.647 119.613 136.026 99.4072 136.026C91.0921 136.026 83.4266 133.251 77.2825 128.578C83.9648 137.365 94.5287 143.039 106.419 143.039C126.625 143.039 143.005 126.659 143.005 106.453C143.005 94.5626 137.331 83.9987 128.544 77.3164Z" fill="#F1F1F1"/>
<path d="M106.419 133.282C121.237 133.282 133.248 121.271 133.248 106.453C133.248 91.6359 121.237 79.624 106.419 79.624C91.6019 79.624 79.5901 91.6359 79.5901 106.453C79.5901 121.271 91.6019 133.282 106.419 133.282Z" fill="#FFFAFA"/>
<path d="M122.621 85.0684C126.037 89.5704 128.066 95.1831 128.066 101.27C128.066 116.088 116.054 128.099 101.236 128.099C95.1494 128.099 89.5367 126.071 85.0347 122.655C89.934 129.112 97.6892 133.282 106.419 133.282C121.237 133.282 133.249 121.27 133.249 106.453C133.249 97.7229 129.078 89.9677 122.621 85.0684Z" fill="#FFF5F5"/>
<path d="M67.0386 68.0342C65.7885 68.0342 64.7751 67.0208 64.7751 65.7707V29.1854C64.7751 27.935 65.7885 26.9219 67.0386 26.9219C68.2887 26.9219 69.3021 27.9353 69.3021 29.1854V65.7707C69.3024 67.0211 68.2887 68.0342 67.0386 68.0342Z" fill="#FCD3D5"/>
<path d="M60.9411 74.1314H36.5508C35.3007 74.1314 34.2874 73.1181 34.2874 71.868C34.2874 70.6179 35.3007 69.6045 36.5508 69.6045H60.9411C62.1912 69.6045 63.2045 70.6179 63.2045 71.868C63.2045 73.1181 62.1912 74.1314 60.9411 74.1314Z" fill="#FCD3D5"/>
<path d="M67.0388 79.1117C71.0392 79.1117 74.2821 75.8688 74.2821 71.8684C74.2821 67.868 71.0392 64.625 67.0388 64.625C63.0384 64.625 59.7954 67.868 59.7954 71.8684C59.7954 75.8688 63.0384 79.1117 67.0388 79.1117Z" fill="#E2D1D2"/>
</g>
<defs>
<clipPath id="clip0_329_749">
<rect width="150" height="150" fill="white"/>
</clipPath>
</defs>
</svg>
