<svg width="56" height="56" viewBox="0 0 56 56" fill="none" xmlns="http://www.w3.org/2000/svg">
<path d="M40.4558 25.6993C40.4281 25.6993 40.4003 25.6979 40.3724 25.6952C40.076 25.6658 39.8169 25.4827 39.6902 25.2132L37.8135 21.2204L35.7581 24.0446C35.6077 24.2512 35.372 24.3787 35.1168 24.3916C34.8616 24.4058 34.6142 24.3014 34.4438 24.111L33.1215 22.6336H23.5468C23.0796 22.6336 22.7009 22.2549 22.7009 21.7877C22.7009 21.3206 23.0796 20.9418 23.5468 20.9418H33.4997C33.7403 20.9418 33.9696 21.0443 34.13 21.2236L35.0063 22.2026L37.287 19.0688C37.463 18.8271 37.7538 18.6964 38.0511 18.7245C38.3488 18.7528 38.6094 18.9362 38.7366 19.2067L40.6185 23.2108L42.0433 21.2846C42.2029 21.0689 42.4552 20.9417 42.7234 20.9417H53.4226C53.8897 20.9417 54.2685 21.3205 54.2685 21.7876C54.2685 22.2548 53.8897 22.6335 53.4226 22.6335H43.1498L41.1358 25.3563C40.9754 25.5733 40.7224 25.6993 40.4558 25.6993Z" fill="#EB5468"/>
<path fill-rule="evenodd" clip-rule="evenodd" d="M3.97609 17.3395C4.65323 18.2604 5.79336 18.8787 7.30405 18.6971C9.56844 16.3994 8.89775 13.9297 7.1507 12.2695H6.47039C3.14244 12.2694 2.57401 15.4434 3.97609 17.3395Z" fill="#FFBC85"/>
<path fill-rule="evenodd" clip-rule="evenodd" d="M26.9523 12.298C24.8827 13.6682 24.7581 16.7594 26.799 18.6968C26.7958 18.7064 26.7958 18.716 26.7926 18.7255C28.3033 18.9072 29.4434 18.2857 30.1206 17.3679C31.5226 15.4686 30.9541 12.2979 27.6262 12.2979L26.9523 12.298Z" fill="#FFBC85"/>
<path fill-rule="evenodd" clip-rule="evenodd" d="M34.1257 46.8316V52.7272H0V40.6045C0.360937 34.8567 4.51609 33.0781 7.24675 31.826L8.52348 31.243L25.5052 31.1719L29.1369 32.7972C27.7282 36.3704 28.52 41.3918 33.2222 45.9552L34.1257 46.8316Z" fill="#F9F7F8"/>
<path fill-rule="evenodd" clip-rule="evenodd" d="M17.0515 25.7173C15.3333 25.7173 13.7172 25.2744 12.3055 24.5V31.7593L17.0133 34.2195L21.7975 31.7593V24.5C20.3858 25.2745 18.7665 25.7173 17.0515 25.7173Z" fill="#FED1A3"/>
<path fill-rule="evenodd" clip-rule="evenodd" d="M19.4532 33.8754L17.0132 31.9697L14.3784 34.0411V40.3443C14.3784 40.7905 14.7425 41.1537 15.1896 41.1537H18.9104C19.3575 41.1537 19.7248 40.7905 19.7248 40.3443V34.0857L19.4532 33.8754Z" fill="#BEB9DD"/>
<path fill-rule="evenodd" clip-rule="evenodd" d="M17.0132 31.9699L12.3055 29.5098L8.52405 31.2434L10.4309 36.5884C10.5063 36.7995 10.7662 36.8746 10.9425 36.7363L17.0132 31.9699Z" fill="#DDDAEC"/>
<path fill-rule="evenodd" clip-rule="evenodd" d="M21.7976 29.5098L17.0133 31.9699L19.4534 33.8756L23.0894 36.7147C23.2662 36.8527 23.526 36.7768 23.6007 36.5654L25.5056 31.1733L21.7976 29.5098Z" fill="#DDDAEC"/>
<path fill-rule="evenodd" clip-rule="evenodd" d="M24.3877 34.3377L25.5055 31.1732L21.7974 29.5098L19.9546 30.4594C20.2421 30.638 23.42 33.0279 24.3877 34.3377Z" fill="#BEB9DD"/>
<path fill-rule="evenodd" clip-rule="evenodd" d="M25.5055 31.1729L24.3877 34.3373C29.4403 40.6087 27.4154 50.4334 26.6681 52.7278H34.1256V46.8324L33.2217 45.9561C28.5204 41.3927 27.7283 36.3705 29.1369 32.7982L25.5055 31.1729Z" fill="#DDDAEC"/>
<path fill-rule="evenodd" clip-rule="evenodd" d="M12.3055 28.015C14.554 28.6173 17.1793 29.3119 19.2936 28.5184C20.0442 28.238 19.9548 28.4196 19.9548 29.2864V30.4592L21.7977 29.5096V25.625C20.3859 26.3994 18.7668 26.8392 17.0517 26.8392C15.3334 26.8392 13.7174 26.3994 12.3057 25.625L12.3055 28.015Z" fill="#FFBC85"/>
<path fill-rule="evenodd" clip-rule="evenodd" d="M21.4558 2.42871C21.3832 3.50026 19.9546 5.37888 19.9546 5.37888C19.9546 5.37888 20.1644 7.62949 19.6129 8.45473C22.2957 8.71285 26.9076 11.9155 26.9523 15.542V12.2693V11.2686C26.9523 7.40637 24.7039 4.05402 21.4558 2.42871Z" fill="#2B4D66"/>
<path fill-rule="evenodd" clip-rule="evenodd" d="M19.613 8.45481C20.6606 6.88692 21.3025 4.69133 21.4559 2.4288C20.0794 1.7405 18.5176 1.36447 16.8727 1.39313C11.5103 1.48555 7.15082 5.89599 7.15082 11.2687V12.2694C10.0444 12.3395 15.8635 12.1993 18.6581 9.59253C19.0061 9.26736 19.3255 8.88499 19.613 8.45481Z" fill="#375E7D"/>
<path fill-rule="evenodd" clip-rule="evenodd" d="M26.9523 15.5424C26.9075 11.9159 22.2957 8.7132 19.6129 8.45508C19.3254 8.88525 19.0061 9.26773 18.6579 9.59269C15.8634 12.1994 10.0442 12.3396 7.1507 12.2695V16.9604C7.1507 17.7508 7.24334 18.5187 7.42216 19.2549C8.08006 21.9923 9.88781 24.2963 12.3055 25.6251C13.7172 26.3995 15.3333 26.8393 17.0515 26.8393C18.7666 26.8393 20.3858 26.3995 21.7975 25.6251C23.2347 24.8348 24.458 23.6971 25.3522 22.3301C25.959 21.3995 26.4126 20.3638 26.6808 19.2549C26.8565 18.5188 26.9523 17.7508 26.9523 16.9604V15.6506V15.5424Z" fill="#FFE5C1"/>
<path fill-rule="evenodd" clip-rule="evenodd" d="M20.8202 8.72266C22.7013 9.99414 24.5377 12.04 24.5377 14.4332C24.5377 17.0336 24.4483 18.8022 22.9377 21.1125C22.0466 22.4796 20.8233 23.6173 19.383 24.4076C16.9525 25.7428 14.0653 25.9913 11.4464 25.0927C11.7211 25.2839 12.0085 25.4624 12.3056 25.6249C13.7173 26.3993 15.3333 26.8391 17.0516 26.8391C18.7667 26.8391 20.3858 26.3993 21.7976 25.6249C23.2347 24.8346 24.458 23.697 25.3522 22.3299C25.9591 21.3993 26.4126 20.3637 26.6808 19.2547C26.7256 19.073 26.7638 18.885 26.7989 18.697C26.8979 18.133 26.9523 17.5529 26.9523 16.9602V15.5422C26.914 12.416 23.4871 9.60859 20.8202 8.72266Z" fill="#FED1A3"/>
<path fill-rule="evenodd" clip-rule="evenodd" d="M29.1368 32.7984C27.7284 36.3707 28.5204 41.393 33.2217 45.9563L34.1255 46.8326L42.0412 54.517C42.1685 54.6406 42.371 54.6406 42.4983 54.517L51.321 45.9562C54.3584 43.0053 55.7636 39.8632 56 37.0462V35.3573C55.457 29.0221 48.8171 25.1216 42.2698 30.6314C36.6647 25.9151 30.9893 28.0948 29.1368 32.7984Z" fill="#EB5468"/>
<path fill-rule="evenodd" clip-rule="evenodd" d="M48.1368 28.0176C50.4396 29.1967 52.0365 31.6313 52.2888 34.6077V36.2935C52.0556 39.1105 50.6504 42.2558 47.6099 45.2035L40.0309 52.5616L42.0413 54.516C42.1686 54.6397 42.3711 54.6398 42.4984 54.5162L51.321 45.9555C54.3583 43.0046 55.7636 39.8626 55.9999 37.0455V35.3567C55.6231 30.9622 52.3144 27.7403 48.1368 28.0176Z" fill="#E5384F"/>
<path fill-rule="evenodd" clip-rule="evenodd" d="M36.2272 38.3938V42.1732C36.2272 42.3549 36.3741 42.5015 36.5562 42.5015H40.047V45.9877C40.047 46.1662 40.197 46.3159 40.376 46.3159H44.1639C44.3459 46.3159 44.4929 46.1662 44.4929 45.9877V42.5015H47.9868C48.1688 42.5015 48.3158 42.3549 48.3158 42.1732V38.3938C48.3158 38.2121 48.169 38.0655 47.9868 38.0655H44.4929V34.5792C44.4929 34.3975 44.346 34.251 44.1639 34.251H40.376C40.1972 34.251 40.047 34.3975 40.047 34.5792V38.0654H36.5562C36.3741 38.0655 36.2272 38.2121 36.2272 38.3938Z" fill="#F9F7F8"/>
<path fill-rule="evenodd" clip-rule="evenodd" d="M44.1637 34.251H41.6407C42.075 36.163 42.3242 38.4256 42.3242 40.8538C42.3242 42.8136 42.1613 44.6683 41.8707 46.3158H44.1639C44.3459 46.3158 44.4929 46.1661 44.4929 45.9876V42.5014H47.9868C48.1688 42.5014 48.3158 42.3548 48.3158 42.1731V38.3937C48.3158 38.212 48.169 38.0654 47.9868 38.0654H44.4929V34.5791C44.4927 34.3975 44.3457 34.251 44.1637 34.251Z" fill="#DDDAEC"/>
<path d="M7.14402 46.9943V52.7275H5.45221V46.9943C5.45221 46.5274 5.83119 46.1484 6.29812 46.1484C6.76515 46.1484 7.14402 46.5274 7.14402 46.9943Z" fill="#BEB9DD"/>
<path d="M28.6508 46.9943V52.7275H26.959V46.9943C26.959 46.5274 27.338 46.1484 27.8049 46.1484C28.2718 46.1484 28.6508 46.5274 28.6508 46.9943Z" fill="#BEB9DD"/>
<path d="M17.0516 38.3608H17.0293C16.5621 38.3608 16.1833 37.982 16.1833 37.5148C16.1833 37.0477 16.5621 36.6689 17.0293 36.6689H17.0516C17.5187 36.6689 17.8975 37.0477 17.8975 37.5148C17.8975 37.982 17.5187 38.3608 17.0516 38.3608Z" fill="#375E7D"/>
</svg>
