<svg width="32" height="32" viewBox="0 0 32 32" fill="none" xmlns="http://www.w3.org/2000/svg">
<g clip-path="url(#clip0_395_155)">
<path d="M12.6667 8.66669V12.6667H8.66669V8.66669H12.6667ZM14.6667 6.66669H6.66669V14.6667H14.6667V6.66669ZM12.6667 19.3334V23.3334H8.66669V19.3334H12.6667ZM14.6667 17.3334H6.66669V25.3334H14.6667V17.3334ZM23.3334 8.66669V12.6667H19.3334V8.66669H23.3334ZM25.3334 6.66669H17.3334V14.6667H25.3334V6.66669ZM17.3334 17.3334H19.3334V19.3334H17.3334V17.3334ZM19.3334 19.3334H21.3334V21.3334H19.3334V19.3334ZM21.3334 17.3334H23.3334V19.3334H21.3334V17.3334ZM17.3334 21.3334H19.3334V23.3334H17.3334V21.3334ZM19.3334 23.3334H21.3334V25.3334H19.3334V23.3334ZM21.3334 21.3334H23.3334V23.3334H21.3334V21.3334ZM23.3334 19.3334H25.3334V21.3334H23.3334V19.3334ZM23.3334 23.3334H25.3334V25.3334H23.3334V23.3334ZM28 9.33335C27.2667 9.33335 26.6667 8.73335 26.6667 8.00002V5.33335H24C23.2667 5.33335 22.6667 4.73335 22.6667 4.00002C22.6667 3.26669 23.2667 2.66669 24 2.66669H28C28.7334 2.66669 29.3334 3.26669 29.3334 4.00002V8.00002C29.3334 8.73335 28.7334 9.33335 28 9.33335ZM29.3334 28V24C29.3334 23.2667 28.7334 22.6667 28 22.6667C27.2667 22.6667 26.6667 23.2667 26.6667 24V26.6667H24C23.2667 26.6667 22.6667 27.2667 22.6667 28C22.6667 28.7334 23.2667 29.3334 24 29.3334H28C28.7334 29.3334 29.3334 28.7334 29.3334 28ZM4.00002 29.3334H8.00002C8.73335 29.3334 9.33335 28.7334 9.33335 28C9.33335 27.2667 8.73335 26.6667 8.00002 26.6667H5.33335V24C5.33335 23.2667 4.73335 22.6667 4.00002 22.6667C3.26669 22.6667 2.66669 23.2667 2.66669 24V28C2.66669 28.7334 3.26669 29.3334 4.00002 29.3334ZM2.66669 4.00002V8.00002C2.66669 8.73335 3.26669 9.33335 4.00002 9.33335C4.73335 9.33335 5.33335 8.73335 5.33335 8.00002V5.33335H8.00002C8.73335 5.33335 9.33335 4.73335 9.33335 4.00002C9.33335 3.26669 8.73335 2.66669 8.00002 2.66669H4.00002C3.26669 2.66669 2.66669 3.26669 2.66669 4.00002Z" fill="#FDFDFD"/>
</g>
<defs>
<clipPath id="clip0_395_155">
<rect width="32" height="32" fill="white"/>
</clipPath>
</defs>
</svg>
