<svg width="48" height="48" viewBox="0 0 48 48" fill="none" xmlns="http://www.w3.org/2000/svg">
<path d="M20.3831 11.7623C19.5239 11.9303 18.5831 12.4871 17.8439 13.7927C17.766 13.9298 17.6619 14.0502 17.5376 14.1471C17.4132 14.244 17.2709 14.3154 17.1189 14.3573C16.9669 14.3992 16.8082 14.4107 16.6517 14.3913C16.4953 14.3718 16.3442 14.3218 16.2071 14.2439C16.07 14.1661 15.9496 14.062 15.8527 13.9376C15.7558 13.8132 15.6844 13.6709 15.6425 13.5189C15.6006 13.367 15.589 13.2082 15.6085 13.0517C15.628 12.8953 15.678 12.7442 15.7559 12.6071C16.8143 10.7447 18.3191 9.7199 19.9223 9.4079C21.414 9.12618 22.9568 9.43697 24.2231 10.2743C25.3847 11.0423 26.3231 12.2975 26.3519 13.8023C26.3831 15.3743 25.4279 16.7927 23.6663 17.8343C22.4711 18.5399 22.0055 19.0199 21.8063 19.3391C21.6383 19.6079 21.5999 19.8527 21.5999 20.3999C21.5999 20.7182 21.4735 21.0234 21.2484 21.2484C21.0234 21.4735 20.7181 21.5999 20.3999 21.5999C20.0816 21.5999 19.7764 21.4735 19.5514 21.2484C19.3263 21.0234 19.1999 20.7182 19.1999 20.3999C19.1999 19.7471 19.2335 18.9359 19.7687 18.0719C20.2727 17.2631 21.1343 16.5431 22.4447 15.7679C23.7287 15.0071 23.9615 14.2847 23.9543 13.8527C23.9423 13.3559 23.6135 12.7487 22.8983 12.2759C22.1578 11.786 21.2564 11.6019 20.3831 11.7623ZM20.9999 27.5999C21.4773 27.5999 21.9351 27.4103 22.2727 27.0727C22.6102 26.7351 22.7999 26.2773 22.7999 25.7999C22.7999 25.3225 22.6102 24.8647 22.2727 24.5271C21.9351 24.1895 21.4773 23.9999 20.9999 23.9999C20.5225 23.9999 20.0647 24.1895 19.7271 24.5271C19.3895 24.8647 19.1999 25.3225 19.1999 25.7999C19.1999 26.2773 19.3895 26.7351 19.7271 27.0727C20.0647 27.4103 20.5225 27.5999 20.9999 27.5999ZM20.3999 2.3999C17.6795 2.39927 15.0062 3.11005 12.6453 4.46172C10.2844 5.81338 8.31803 7.75893 6.94132 10.1053C5.56461 12.4516 4.82541 15.1172 4.79709 17.8375C4.76877 20.5578 5.45232 23.2382 6.77989 25.6127L4.87189 30.6095C4.71308 31.0249 4.67279 31.4762 4.75553 31.9131C4.83826 32.3501 5.04077 32.7554 5.34044 33.084C5.64012 33.4125 6.02519 33.6513 6.45269 33.7738C6.88019 33.8963 7.3333 33.8975 7.76149 33.7775L13.7303 32.1047C15.8447 33.1037 18.1566 33.6146 20.495 33.5996C22.8335 33.5845 25.1387 33.044 27.24 32.0178C29.3414 30.9917 31.1851 29.5062 32.6349 27.6714C34.0847 25.8365 35.1034 23.6992 35.6158 21.4175C36.1281 19.1358 36.1208 16.7681 35.5946 14.4895C35.0684 12.211 34.0367 10.0799 32.5757 8.25395C31.1147 6.42797 29.2619 4.9538 27.1544 3.9405C25.0468 2.92719 22.7384 2.40068 20.3999 2.3999ZM7.19989 17.9999C7.20095 15.1233 8.14166 12.3259 9.87887 10.0331C11.6161 7.74033 14.0547 6.07781 16.8237 5.29847C19.5927 4.51914 22.5404 4.66566 25.2185 5.71574C27.8966 6.76583 30.1583 8.66198 31.6596 11.1157C33.1609 13.5694 33.8195 16.4464 33.5353 19.3089C33.2511 22.1714 32.0396 24.8627 30.0852 26.9734C28.1307 29.084 25.5403 30.4984 22.7081 31.0014C19.8758 31.5044 16.9568 31.0685 14.3951 29.7599L13.9775 29.5439L7.11349 31.4663L9.43909 25.3799L9.13189 24.8759C7.86503 22.8064 7.1963 20.4264 7.19989 17.9999ZM27.5111 40.7999C25.2655 40.8024 23.0459 40.3189 21.0048 39.3826C18.9637 38.4464 17.1493 37.0795 15.6863 35.3759C17.0646 35.7493 18.4827 35.9564 19.9103 35.9927C22.1334 37.5629 24.7893 38.4041 27.5111 38.3999C29.6759 38.3999 31.7159 37.8791 33.5159 36.9599L33.9335 36.7439L40.7975 38.6663L38.4719 32.5799L38.7791 32.0759C40.0031 30.0743 40.7111 27.7223 40.7111 25.1999C40.7148 22.5348 39.9079 19.9316 38.3975 17.7359C38.3778 16.3081 38.1885 14.8878 37.8335 13.5047C39.494 14.9669 40.8237 16.7663 41.7337 18.7831C42.6438 20.7998 43.1134 22.9874 43.1111 25.1999C43.1111 27.9623 42.3911 30.5591 41.1287 32.8127L43.0391 37.8095C43.1976 38.2246 43.2378 38.6756 43.1552 39.1123C43.0725 39.5489 42.8702 39.954 42.5709 40.2825C42.2716 40.6109 41.8869 40.8498 41.4598 40.9725C41.0327 41.0952 40.5799 41.097 40.1519 40.9775L34.1807 39.3047C32.1575 40.2647 29.8943 40.7999 27.5087 40.7999H27.5111Z" fill="#3EC180"/>
</svg>
