<svg width="33" height="32" viewBox="0 0 33 32" fill="none" xmlns="http://www.w3.org/2000/svg">
<path d="M17.6304 6.44856C17.6304 5.31316 17.4771 4.19184 16.8027 3.38306C15.9473 2.35732 14.6597 1.70452 13.2196 1.70452C10.6441 1.70452 8.55627 3.79234 8.55627 6.36784C8.55627 7.04965 8.70261 7.69724 8.96555 8.28102C9.20007 8.80164 9.66068 9.24481 10.0597 9.64277C10.9032 10.4842 12.0175 10.8252 13.3031 10.8252C15.8786 10.8252 17.6304 9.02406 17.6304 6.44856Z" fill="#B3E59F"/>
<path d="M16.7309 3.2997C16.9753 3.86573 17.111 4.48965 17.111 5.14573C17.111 5.54131 17.0614 5.92511 16.9685 6.29181C16.9368 6.41711 16.832 6.51115 16.704 6.52941C15.475 6.70501 14.3691 7.17681 13.4537 7.92365C13.3783 7.98521 13.2801 8.0119 13.1847 7.99209C12.9597 7.94533 12.7271 7.92082 12.4901 7.91921L12.4567 7.91857C11.5194 7.91857 10.6353 8.21387 9.89706 8.76221C9.89506 8.76279 9.89313 8.7633 9.8912 8.76388C9.63611 8.83721 9.43954 8.5403 9.60909 8.33608C10.4373 7.33858 10.9361 6.058 10.9361 4.66325C10.9361 3.93127 10.7991 3.21859 10.5367 2.55415C9.33843 3.39747 8.55627 4.79132 8.55627 6.36784C8.55627 7.02463 8.69289 7.64912 8.93802 8.2156C8.93751 8.21503 8.93693 8.21445 8.93642 8.21387C8.95076 8.24268 8.94786 8.24597 8.98485 8.32084C9.73362 9.94316 11.3871 11.0619 13.298 11.0305C15.7688 10.9899 17.8005 8.99235 17.8804 6.52247C17.9203 5.28691 17.4794 4.15563 16.7309 3.2997Z" fill="#95D6A4"/>
<path d="M9.65043 4.63116C9.65043 3.33816 9.31647 2.20025 8.46652 1.35551C7.6234 0.517725 6.46188 0 5.17937 0C2.60387 0 0.516052 2.08782 0.516052 4.66332C0.516052 5.54864 0.76279 6.37633 1.19117 7.08142C2.00909 8.42748 3.59185 9.10562 5.28203 9.10562C7.85746 9.10562 9.65043 7.20666 9.65043 4.63116Z" fill="#DF646E"/>
<path d="M9.84268 4.66331C9.84268 7.23875 7.7548 9.32663 5.17936 9.32663C3.4742 9.32663 1.98258 8.41133 1.16956 7.0445C1.99416 7.78355 3.08377 8.23316 4.27886 8.23316C6.8543 8.23316 8.94218 6.14528 8.94218 3.56985C8.94218 2.69957 8.70355 1.88526 8.28867 1.18866C9.24256 2.04221 9.84268 3.28297 9.84268 4.66331Z" fill="#DC4955"/>
<path d="M31.5088 16.7879C31.5088 15.3282 31.0413 14.0252 29.9913 13.1701C29.1887 12.5165 28.1644 12.1246 27.0486 12.1246C24.4731 12.1246 22.3853 14.2124 22.3853 16.7879C22.3853 17.7915 22.7023 18.721 23.2416 19.4818C24.0864 20.6735 25.734 21.0537 27.3059 21.0537C29.8815 21.0537 31.5088 19.3634 31.5088 16.7879Z" fill="#DF646E"/>
<path d="M30.4802 19.9448C30.5159 19.8936 30.5256 19.9259 30.8576 19.4768C31.3951 18.7167 31.712 17.7896 31.712 16.7879C31.712 15.1715 30.8893 13.7468 29.6396 12.9106C30.1361 13.6516 30.4256 14.5425 30.4256 15.5015C30.4256 16.5673 30.0674 17.5492 29.4657 18.3345C29.3894 18.4341 29.2613 18.4795 29.1391 18.451C28.7117 18.3511 28.27 18.2995 27.8206 18.2995C26.4035 18.2995 25.1052 18.8142 24.1013 19.6662C24.0049 19.748 23.8693 19.7655 23.7551 19.7111C23.552 19.6142 23.3569 19.5031 23.1714 19.3788C24.7097 21.6864 28.1981 22.342 30.4802 19.9448Z" fill="#DC4955"/>
<path d="M32.2917 24.0241C32.2917 22.7311 31.9577 21.5932 31.1078 20.7485C30.2647 19.9106 29.1031 19.393 27.8207 19.393C25.2452 19.393 23.1573 21.4808 23.1573 24.0563C23.1573 24.9416 23.4041 25.7693 23.8325 26.4744C24.6504 27.8204 26.2331 28.4986 27.9233 28.4986C30.4987 28.4986 32.2917 26.5996 32.2917 24.0241Z" fill="#FAF8F8"/>
<path d="M32.4839 24.0563C32.4839 26.6317 30.396 28.7196 27.8206 28.7196C26.1154 28.7196 24.6238 27.8043 23.8108 26.4375C24.6354 27.1765 25.725 27.6261 26.9201 27.6261C29.4955 27.6261 31.5834 25.5382 31.5834 22.9628C31.5834 22.0925 31.3448 21.2782 30.9299 20.5816C31.8838 21.4352 32.4839 22.6759 32.4839 24.0563Z" fill="#F0E9E6"/>
<path d="M32.2916 4.63116C32.2916 3.33816 31.9576 2.20025 31.1077 1.35551C30.2646 0.517725 29.1031 0 27.8205 0C25.245 0 23.1572 2.08782 23.1572 4.66332C23.1572 5.54864 23.404 6.37633 23.8323 7.08142C24.6503 8.42748 26.233 9.10562 27.9232 9.10562C30.4986 9.10562 32.2916 7.20666 32.2916 4.63116Z" fill="#FAF8F8"/>
<path d="M32.4839 4.66331C32.4839 7.23875 30.396 9.32663 27.8206 9.32663C26.1154 9.32663 24.6238 8.41133 23.8108 7.0445C24.6354 7.78355 25.725 8.23316 26.9201 8.23316C29.4955 8.23316 31.5834 6.14528 31.5834 3.56985C31.5834 2.69957 31.3448 1.88526 30.9299 1.18866C31.8838 2.04221 32.4839 3.28297 32.4839 4.66331Z" fill="#F0E9E6"/>
<path d="M22.1561 27.2024L19.4735 25.613L13.5798 25.5989L12.5581 25.9084L11.713 29.3199L14.0278 32H19.0237L22.1561 27.2024Z" fill="#FAF8F8"/>
<path d="M14.5482 22.8326L13.7278 24.3195L13.5698 25.6848C13.5094 26.2033 13.6509 26.7288 13.9785 27.1354C14.394 27.6511 15.1561 28.1911 16.5257 28.1911C17.8951 28.1911 18.6572 27.6513 19.0727 27.1355C19.2424 26.9251 19.3621 26.6827 19.4297 26.4258C19.4928 26.1865 19.1766 25.8491 19.1474 25.5989L19.1537 22.7316L14.5482 22.8326Z" fill="#F2D1A5"/>
<path d="M13.7275 24.3195L13.8997 22.8326L19.1538 22.7317L19.4734 25.6131L19.7033 26.0784L19.4294 26.4258L18.964 26.2859C18.68 26.223 18.7089 25.8292 18.677 25.6111L18.6254 25.1453C18.6036 24.9492 18.4006 24.8302 18.2176 24.9038C17.6488 25.1324 17.083 25.248 16.5258 25.248C15.6082 25.248 14.6673 24.9359 13.7275 24.3195Z" fill="#F2BB88"/>
<path d="M19.1088 31.6552C19.8654 30.2123 20.2128 28.3654 20.3704 27.095C20.3971 26.8798 20.2644 26.6771 20.0567 26.6146L19.4293 26.4258C19.4926 26.1864 19.5104 25.9347 19.4812 25.6843L19.4733 25.6131L20.4913 25.9193L23.5304 26.8334C24.7853 27.2109 24.2222 31.0166 24.2222 31.0166L19.7657 32H18.9282L19.1088 31.6552Z" fill="#F0E9E6"/>
<path d="M7.10803 29.5505L7.66937 31.4711L13.2858 32H14.1233L13.9427 31.6552C12.9371 29.7375 12.6542 27.1049 12.579 26.0622C12.575 26.0102 12.5686 25.9588 12.5582 25.9084L9.51462 26.8304C8.26305 27.2098 7.33213 28.2619 7.10803 29.5505Z" fill="#F0E9E6"/>
<path d="M6.50895 32C6.20104 32 5.96794 31.7217 6.02197 31.4186L6.37645 29.4288C6.65046 27.8509 7.77384 26.5841 9.30726 26.1225L11.0762 25.5907C11.4398 25.4813 11.8118 25.7366 11.839 26.1155C11.9299 27.3795 12.2397 30.0053 13.2857 32H6.50895Z" fill="#F5DE46"/>
<path d="M22.4719 16.3647H22.8031C23.5954 16.3647 24.2376 17.0091 24.2376 17.8042C24.2376 18.9007 23.3518 19.7896 22.259 19.7896H10.8325C9.73978 19.7896 8.85394 18.9006 8.85394 17.8042C8.85394 17.0092 9.49619 16.3647 10.2884 16.3647H10.6196H22.4719Z" fill="#F2BB88"/>
<path d="M22.4719 16.3647C22.4719 18.883 22.4233 19.7101 21.3988 21.1336C19.9858 23.097 18.2257 24.4305 16.5457 24.4305C14.8658 24.4305 13.1056 23.097 11.6926 21.1336C10.8368 19.9446 10.662 19.1716 10.6276 17.4814C10.6209 17.1482 10.8541 16.6336 10.8541 16.219L10.0211 10.5862L23.0305 12.3291L22.4719 16.3647Z" fill="#F2D1A5"/>
<path d="M23.0306 12.3292L22.4771 16.3294C22.2382 15.7205 21.792 15.1521 21.2261 14.7821C19.3618 13.5638 17.401 15.2204 14.3989 12.5537C14.3984 12.5537 14.3979 12.5532 14.3979 12.5527C14.354 12.5136 14.3099 12.4736 14.2654 12.433C14.1343 12.3124 13.9231 12.3643 13.8637 12.5325C13.8108 12.6829 13.7554 12.8293 13.696 12.9712C13.3869 13.7093 12.9768 14.3206 12.2951 14.7228C11.4775 15.2056 10.7874 17.0323 10.6277 17.4815C10.6212 17.1481 10.6198 16.7791 10.6198 16.3645L10.0593 10.956L10.3645 10.6325L23.0306 12.3292Z" fill="#F2BB88"/>
<path d="M13.7085 10.9567C13.6192 11.2379 13.6045 11.8757 13.498 12.1302C13.1892 12.8681 12.7787 13.4798 12.0972 13.8819C11.1626 14.4333 10.6196 16.3647 10.6196 16.3647C9.39804 16.3647 8.85394 14.5397 8.85394 13.2873C8.85394 10.3665 10.6347 8.86969 12.4828 8.88378C12.7086 8.88551 12.9404 8.91439 13.1757 8.98386C13.3042 9.02181 13.4551 9.18319 13.5853 9.24751C13.6941 9.13219 13.7859 8.91137 13.9029 8.80781C14.9712 7.86261 16.3678 7.40759 17.8511 7.41583C18.4646 7.41924 18.993 7.59728 19.6191 7.75725C24.1178 8.90667 24.9224 15.2403 22.4491 16.1322C22.4491 16.1322 22.4028 15.8532 22.3426 15.6659C22.1255 14.9911 21.649 14.3471 21.028 13.9413C19.1637 12.7227 17.2031 14.3796 14.2009 11.7129C14.0656 11.5926 13.8483 11.0953 13.7085 10.9567Z" fill="#7A6D79"/>
<path d="M22.4721 16.3645C22.4721 16.3645 22.4682 16.3057 22.4607 16.2305C22.4429 16.043 22.4028 15.853 22.342 15.666C23.6726 13.6889 22.5883 8.64739 18.7295 7.6616C18.2596 7.54138 17.7882 7.46523 17.3228 7.43307C18.1009 7.37769 18.9116 7.45532 19.7189 7.6616C24.2177 8.81116 24.9454 15.4727 22.4721 16.3645Z" fill="#685E68"/>
<path d="M9.84742 20.8566C9.84742 19.7212 9.69414 18.5999 9.01973 17.7911C8.16438 16.7654 6.87673 16.1126 5.43663 16.1126C2.86113 16.1126 0.773315 18.2004 0.773315 20.7759C0.773315 21.4577 0.919647 22.1053 1.18259 22.6891C1.41711 23.2097 1.87772 23.6529 2.2767 24.0508C3.12028 24.8923 4.23453 25.2332 5.52019 25.2332C8.09562 25.2332 9.84742 23.4321 9.84742 20.8566Z" fill="#B3E59F"/>
<path d="M10.0999 20.7759C10.0999 23.3513 8.01206 25.4392 5.43662 25.4392C3.51726 25.4392 1.86806 24.2795 1.15344 22.6219C2.00828 23.5996 3.26448 24.2171 4.66476 24.2171C7.2402 24.2171 9.32808 22.1292 9.32808 19.5538C9.32808 18.8977 9.19236 18.2738 8.94793 17.7077C9.66512 18.5278 10.0999 19.6007 10.0999 20.7759Z" fill="#95D6A4"/>
<path d="M26.335 31.7976C26.6426 31.7969 26.875 31.5182 26.8203 31.2155L26.2483 29.4247C25.9708 27.8485 25.0614 26.8787 23.528 26.4211L22.0379 26.0396C21.6743 25.9311 21.585 25.763 21.5586 26.1416C21.5519 26.2381 21.1864 26.3172 21.177 26.4286C21.0626 27.7767 20.7303 30.1567 19.769 32.0001L26.051 31.9856L26.335 31.7976Z" fill="#F5DE46"/>
<path d="M21.1766 26.4285L22.7936 26.9107C24.327 27.3683 25.4524 28.6316 25.7299 30.2077L26.0509 31.9855L26.5407 31.9843C26.8487 31.9836 27.0808 31.7048 27.0263 31.4024L26.6673 29.4147C26.3898 27.8385 25.2644 26.5752 23.731 26.1176L21.9622 25.5903C21.5986 25.4819 21.2275 25.7378 21.2012 26.1165C21.1945 26.213 21.1863 26.3173 21.1766 26.4285Z" fill="#F3D332"/>
<path d="M14.2011 11.7128C14.1023 11.6253 14.0025 11.533 13.9017 11.4357C13.8495 11.3855 13.7623 11.4071 13.7396 11.4758C13.6645 11.7027 13.5853 11.9215 13.4982 12.1303L13.1757 8.98438C13.2739 9.01313 13.3728 9.04902 13.472 9.09308C13.5284 9.1181 13.5941 9.10402 13.6374 9.06002C13.7235 8.97241 13.8122 8.88822 13.9033 8.80827L14.2011 11.7128Z" fill="#685E68"/>
<path d="M19.3592 19.3448C19.2774 19.3448 19.1943 19.324 19.1184 19.2801L17.8373 18.5404C17.688 18.4542 17.5961 18.295 17.5961 18.1226C17.5961 17.9502 17.688 17.791 17.8373 17.7048L19.1184 16.9651C19.349 16.8321 19.6442 16.9109 19.7774 17.1417C19.9106 17.3724 19.8316 17.6675 19.6008 17.8007L19.0433 18.1226L19.6008 18.4445C19.8316 18.5778 19.9106 18.8728 19.7774 19.1035C19.6881 19.2583 19.5259 19.3448 19.3592 19.3448Z" fill="#F2BB88"/>
<path d="M13.6408 19.3448C13.474 19.3448 13.312 19.2583 13.2225 19.1035C13.0893 18.8728 13.1684 18.5778 13.3991 18.4445L13.9566 18.1226L13.3991 17.8007C13.1684 17.6675 13.0893 17.3724 13.2225 17.1417C13.3556 16.9109 13.6508 16.832 13.8815 16.9651L15.1627 17.7048C15.3119 17.791 15.4039 17.9502 15.4039 18.1226C15.4039 18.295 15.3119 18.4542 15.1627 18.5404L13.8815 19.2801C13.8056 19.3239 13.7226 19.3448 13.6408 19.3448Z" fill="#F2BB88"/>
<path d="M17.0145 22.3839H15.9854C15.7189 22.3839 15.503 22.168 15.503 21.9015C15.503 21.635 15.7189 21.4191 15.9854 21.4191H17.0145C17.281 21.4191 17.497 21.635 17.497 21.9015C17.497 22.168 17.281 22.3839 17.0145 22.3839Z" fill="#F2BB88"/>
<path d="M16.5 20.4067C16.2371 20.4067 15.9743 20.332 15.75 20.1825C15.5283 20.0347 15.4684 19.7352 15.6161 19.5136C15.7639 19.2918 16.0635 19.232 16.2851 19.3797C16.4075 19.4613 16.5923 19.4613 16.7149 19.3797C16.9365 19.2321 17.2361 19.2918 17.3838 19.5136C17.5316 19.7352 17.4716 20.0348 17.2499 20.1825C17.0257 20.332 16.7628 20.4067 16.5 20.4067Z" fill="#F2BB88"/>
<path d="M5.19798 5.9028C4.93149 5.9028 4.71556 5.68687 4.71556 5.42038V4.23513C4.71556 3.96865 4.93149 3.75272 5.19798 3.75272C5.37814 3.75272 5.54576 3.68061 5.6701 3.54972C5.7943 3.41889 5.85753 3.24728 5.84814 3.06641C5.83064 2.72801 5.55104 2.4576 5.21161 2.45079C5.20724 2.45072 5.20267 2.45066 5.1983 2.45066C4.87412 2.45066 4.59811 2.6891 4.55328 3.01025C4.54916 3.04023 4.54698 3.07091 4.54698 3.10166C4.54698 3.36814 4.33105 3.58407 4.06457 3.58407C3.79808 3.58407 3.58215 3.36814 3.58215 3.10166C3.58215 3.02633 3.58736 2.95069 3.59772 2.87679C3.70912 2.07843 4.39402 1.48583 5.19804 1.48583C5.20904 1.48583 5.22004 1.48596 5.2311 1.48622C6.07372 1.5032 6.768 2.1753 6.81168 3.01643C6.83483 3.46411 6.67795 3.8894 6.36979 4.21403C6.1794 4.41452 5.94063 4.56143 5.68039 4.64325V5.42038C5.68039 5.6868 5.46446 5.9028 5.19798 5.9028Z" fill="#FAF8F8"/>
<path d="M5.21178 7.89818C4.9453 7.89818 4.72937 7.68225 4.72937 7.41577V7.38335C4.72937 7.11687 4.9453 6.90094 5.21178 6.90094C5.47827 6.90094 5.69419 7.11687 5.69419 7.38335V7.41577C5.69419 7.68225 5.4782 7.89818 5.21178 7.89818Z" fill="#FAF8F8"/>
<path d="M25.8588 5.11357C26.1252 5.11357 26.3412 4.89758 26.3412 4.63115C26.3412 4.36473 26.1252 4.14874 25.8588 4.14874C25.5923 4.14874 25.3763 4.36473 25.3763 4.63115C25.3763 4.89758 25.5923 5.11357 25.8588 5.11357Z" fill="#7A6D79"/>
<path d="M27.7884 5.11357C28.0549 5.11357 28.2709 4.89758 28.2709 4.63115C28.2709 4.36473 28.0549 4.14874 27.7884 4.14874C27.522 4.14874 27.306 4.36473 27.306 4.63115C27.306 4.89758 27.522 5.11357 27.7884 5.11357Z" fill="#7A6D79"/>
<path d="M29.7181 5.11357C29.9845 5.11357 30.2005 4.89758 30.2005 4.63115C30.2005 4.36473 29.9845 4.14874 29.7181 4.14874C29.4516 4.14874 29.2357 4.36473 29.2357 4.63115C29.2357 4.89758 29.4516 5.11357 29.7181 5.11357Z" fill="#7A6D79"/>
<path d="M27.0673 17.9953C26.8008 17.9953 26.5849 17.7793 26.5849 17.5128V16.3276C26.5849 16.0611 26.8008 15.8452 27.0673 15.8452C27.2475 15.8452 27.4151 15.7731 27.5394 15.6422C27.6636 15.5114 27.7269 15.3397 27.7175 15.1589C27.7 14.8205 27.4204 14.5501 27.0809 14.5432C27.0766 14.5432 27.072 14.5431 27.0676 14.5431C26.7434 14.5431 26.4674 14.7816 26.4226 15.1027C26.4185 15.1327 26.4163 15.1634 26.4163 15.1941C26.4163 15.4606 26.2004 15.6765 25.9339 15.6765C25.6674 15.6765 25.4515 15.4606 25.4515 15.1941C25.4515 15.1188 25.4567 15.0432 25.467 14.9693C25.5799 14.16 26.2802 13.5608 27.1004 13.5787C27.943 13.5957 28.6373 14.2678 28.681 15.1089C28.7042 15.5566 28.5473 15.9819 28.2391 16.3065C28.0487 16.507 27.81 16.6539 27.5497 16.7357V17.5128C27.5497 17.7793 27.3338 17.9953 27.0673 17.9953Z" fill="#FAF8F8"/>
<path d="M5.46911 23.9786C5.20262 23.9786 4.98669 23.7627 4.98669 23.4962V23.4638C4.98669 23.1973 5.20262 22.9813 5.46911 22.9813C5.73559 22.9813 5.95152 23.1973 5.95152 23.4638V23.4962C5.95152 23.7627 5.73553 23.9786 5.46911 23.9786Z" fill="#FAF8F8"/>
<path d="M5.46886 21.998C5.20238 21.998 4.98645 21.7821 4.98645 21.5156V18.0422C4.98645 17.7757 5.20238 17.5598 5.46886 17.5598C5.73535 17.5598 5.95127 17.7757 5.95127 18.0422V21.5156C5.95127 21.7821 5.73535 21.998 5.46886 21.998Z" fill="#FAF8F8"/>
<path d="M25.8588 24.5065C26.1252 24.5065 26.3412 24.2906 26.3412 24.0241C26.3412 23.7577 26.1252 23.5417 25.8588 23.5417C25.5923 23.5417 25.3763 23.7577 25.3763 24.0241C25.3763 24.2906 25.5923 24.5065 25.8588 24.5065Z" fill="#7A6D79"/>
<path d="M27.7884 24.5065C28.0549 24.5065 28.2709 24.2906 28.2709 24.0241C28.2709 23.7577 28.0549 23.5417 27.7884 23.5417C27.522 23.5417 27.306 23.7577 27.306 24.0241C27.306 24.2906 27.522 24.5065 27.7884 24.5065Z" fill="#7A6D79"/>
<path d="M29.7181 24.5065C29.9845 24.5065 30.2005 24.2906 30.2005 24.0241C30.2005 23.7577 29.9845 23.5417 29.7181 23.5417C29.4516 23.5417 29.2357 23.7577 29.2357 24.0241C29.2357 24.2906 29.4516 24.5065 29.7181 24.5065Z" fill="#7A6D79"/>
</svg>
