<svg width="56" height="56" viewBox="0 0 56 56" fill="none" xmlns="http://www.w3.org/2000/svg">
<path d="M50.1207 5.28906H5.99706C3.78973 5.28906 2 7.07879 2 9.28612V12.8499L5.53519 18.0505H51.4567L54.1177 12.8499V9.28612C54.1177 7.07879 52.328 5.28906 50.1207 5.28906Z" fill="#EE878A"/>
<path d="M6.71641 5.28906H5.99706C3.78973 5.28906 2 7.07879 2 9.28612V12.8499L5.53519 18.0505H6.71641V5.28906Z" fill="#EC6E73"/>
<path d="M54.1177 12.8506V44.6795C54.1177 46.8868 52.328 48.6766 50.1207 48.6766H5.99706C3.78973 48.6766 2 46.8868 2 44.6795V12.8506H54.1177Z" fill="#F9F7F7"/>
<path d="M47.6686 21.5638H8.49412C7.82062 21.5638 7.2746 21.0178 7.2746 20.3443V17.5496C7.2746 16.8761 7.82062 16.3301 8.49412 16.3301H47.6686C48.3421 16.3301 48.8881 16.8761 48.8881 17.5496V20.3443C48.8881 21.0178 48.3421 21.5638 47.6686 21.5638Z" fill="#A9E4F9"/>
<path d="M29.454 29.0414H26.7086C26.2507 29.0414 25.8793 28.6701 25.8793 28.2121V26.1671C25.8793 25.7091 26.2506 25.3379 26.7086 25.3379H29.454C29.9119 25.3379 30.2832 25.7091 30.2832 26.1671V28.2121C30.2832 28.6701 29.912 29.0414 29.454 29.0414Z" fill="#DED4CF"/>
<path d="M21.6725 29.0414H18.9271C18.4691 29.0414 18.0978 28.6701 18.0978 28.2121V26.1671C18.0978 25.7091 18.4691 25.3379 18.9271 25.3379H21.6725C22.1305 25.3379 22.5017 25.7091 22.5017 26.1671V28.2121C22.5017 28.6701 22.1305 29.0414 21.6725 29.0414Z" fill="#DED4CF"/>
<path d="M13.8912 29.0414H11.1458C10.6879 29.0414 10.3165 28.6701 10.3165 28.2121V26.1671C10.3165 25.7091 10.6878 25.3379 11.1458 25.3379H13.8912C14.3491 25.3379 14.7204 25.7091 14.7204 26.1671V28.2121C14.7203 28.6701 14.3491 29.0414 13.8912 29.0414Z" fill="#DED4CF"/>
<path d="M34.49 29.0414H37.2354C37.6934 29.0414 38.0647 28.6701 38.0647 28.2121V26.1671C38.0647 25.7091 37.6934 25.3379 37.2354 25.3379H34.49C34.0321 25.3379 33.6608 25.7091 33.6608 26.1671V28.2121C33.6608 28.6701 34.032 29.0414 34.49 29.0414Z" fill="#DED4CF"/>
<path d="M42.2713 29.0414H45.0167C45.4746 29.0414 45.846 28.6701 45.846 28.2121V26.1671C45.846 25.7091 45.4747 25.3379 45.0167 25.3379H42.2713C41.8134 25.3379 41.4421 25.7091 41.4421 26.1671V28.2121C41.4422 28.6701 41.8134 29.0414 42.2713 29.0414Z" fill="#DED4CF"/>
<path d="M29.454 36.2045H26.7086C26.2507 36.2045 25.8793 35.8332 25.8793 35.3752V33.3302C25.8793 32.8723 26.2506 32.501 26.7086 32.501H29.454C29.9119 32.501 30.2832 32.8722 30.2832 33.3302V35.3752C30.2832 35.8332 29.912 36.2045 29.454 36.2045Z" fill="#DED4CF"/>
<path d="M21.6725 36.2045H18.9271C18.4691 36.2045 18.0978 35.8332 18.0978 35.3752V33.3302C18.0978 32.8723 18.4691 32.501 18.9271 32.501H21.6725C22.1305 32.501 22.5017 32.8722 22.5017 33.3302V35.3752C22.5017 35.8332 22.1305 36.2045 21.6725 36.2045Z" fill="#DED4CF"/>
<path d="M13.8912 36.2045H11.1458C10.6879 36.2045 10.3165 35.8332 10.3165 35.3752V33.3302C10.3165 32.8723 10.6878 32.501 11.1458 32.501H13.8912C14.3491 32.501 14.7204 32.8722 14.7204 33.3302V35.3752C14.7203 35.8332 14.3491 36.2045 13.8912 36.2045Z" fill="#DED4CF"/>
<path d="M29.454 43.3685H26.7086C26.2507 43.3685 25.8793 42.9973 25.8793 42.5393V40.4943C25.8793 40.0364 26.2506 39.665 26.7086 39.665H29.454C29.9119 39.665 30.2832 40.0363 30.2832 40.4943V42.5393C30.2832 42.9973 29.912 43.3685 29.454 43.3685Z" fill="#DED4CF"/>
<path d="M21.6725 43.3685H18.9271C18.4691 43.3685 18.0978 42.9973 18.0978 42.5393V40.4943C18.0978 40.0364 18.4691 39.665 18.9271 39.665H21.6725C22.1305 39.665 22.5017 40.0363 22.5017 40.4943V42.5393C22.5017 42.9973 22.1305 43.3685 21.6725 43.3685Z" fill="#DED4CF"/>
<path d="M13.8912 43.3685H11.1458C10.6879 43.3685 10.3165 42.9973 10.3165 42.5393V40.4943C10.3165 40.0364 10.6878 39.665 11.1458 39.665H13.8912C14.3491 39.665 14.7204 40.0363 14.7204 40.4943V42.5393C14.7203 42.9973 14.3491 43.3685 13.8912 43.3685Z" fill="#DED4CF"/>
<path d="M44.1749 32.2591C37.604 32.2591 32.2581 37.6049 32.2581 44.1757V44.1799C32.2582 44.4095 32.0751 44.5969 31.8455 44.5969H12.7165C9.40278 44.5969 6.71641 41.9105 6.71641 38.5968V12.8496H2V44.6785C2 46.8861 3.78952 48.6756 5.99706 48.6756H50.1207C52.0656 48.6756 53.6854 47.2862 54.0433 45.446C54.0471 45.4268 54.0502 45.4073 54.0537 45.3879C54.0637 45.3321 54.0726 45.276 54.0803 45.2194C54.0835 45.1955 54.0867 45.1715 54.0895 45.1473C54.096 45.0922 54.101 45.0366 54.1052 44.9808C54.1069 44.9581 54.1091 44.9355 54.1103 44.9127C54.1148 44.8352 54.1176 44.7572 54.1176 44.6786V44.597V37.6149C51.9828 34.3903 48.3233 32.2591 44.1749 32.2591Z" fill="#F2EAE7"/>
<path d="M44.1749 53.9996C49.6003 53.9996 53.9984 49.6014 53.9984 44.1761C53.9984 38.7507 49.6003 34.3525 44.1749 34.3525C38.7495 34.3525 34.3514 38.7507 34.3514 44.1761C34.3514 49.6014 38.7495 53.9996 44.1749 53.9996Z" fill="#CFEFFC"/>
<path d="M48.8406 41.945H46.406V39.5104C46.406 39.1487 46.1128 38.8555 45.7511 38.8555H42.5989C42.2372 38.8555 41.944 39.1487 41.944 39.5104V41.945H39.5094C39.1477 41.945 38.8544 42.2383 38.8544 42.6V45.7521C38.8544 46.1138 39.1477 46.4071 39.5094 46.4071H41.944V48.8416C41.944 49.2033 42.2372 49.4966 42.5989 49.4966H45.7511C46.1128 49.4966 46.406 49.2033 46.406 48.8416V46.4071H48.8406C49.2023 46.4071 49.4956 46.1138 49.4956 45.7521V42.6C49.4956 42.2382 49.2023 41.945 48.8406 41.945Z" fill="#EE878A"/>
<path d="M38.0646 44.176C38.0646 39.3854 41.4947 35.3955 46.0322 34.5274C45.431 34.4124 44.8097 34.3525 44.1749 34.3525C38.7495 34.3525 34.3514 38.7507 34.3514 44.1761C34.3514 49.6014 38.7495 53.9996 44.1749 53.9996C44.8097 53.9996 45.4316 53.9392 46.0329 53.8242C41.4953 52.956 38.0646 48.9666 38.0646 44.176Z" fill="#A9E4F9"/>
<path d="M10.5697 10.1495C12.2723 10.1495 13.6575 8.76428 13.6575 7.06163V5.28906H7.48181V7.06163C7.48181 8.76428 8.86702 10.1495 10.5697 10.1495Z" fill="#EC6E73"/>
<path d="M10.5697 8.57992C9.73133 8.57992 9.05176 7.90035 9.05176 7.062V3.51792C9.05176 2.67957 9.73133 2 10.5697 2C11.408 2 12.0876 2.67957 12.0876 3.51792V7.062C12.0877 7.90035 11.408 8.57992 10.5697 8.57992Z" fill="#F2EAE7"/>
<path d="M17.561 10.1495C19.2637 10.1495 20.6489 8.76428 20.6489 7.06163V5.28906H14.4731V7.06163C14.4731 8.76428 15.8584 10.1495 17.561 10.1495Z" fill="#EC6E73"/>
<path d="M17.5609 8.57992C16.7226 8.57992 16.043 7.90035 16.043 7.062V3.51792C16.043 2.67957 16.7226 2 17.5609 2C18.3993 2 19.0789 2.67957 19.0789 3.51792V7.062C19.0789 7.90035 18.3993 8.57992 17.5609 8.57992Z" fill="#F2EAE7"/>
<path d="M24.5523 10.1495C26.2549 10.1495 27.6401 8.76428 27.6401 7.06163V5.28906H21.4643V7.06163C21.4644 8.76428 22.8496 10.1495 24.5523 10.1495Z" fill="#EC6E73"/>
<path d="M24.5523 8.57992C23.7139 8.57992 23.0344 7.90035 23.0344 7.062V3.51792C23.0344 2.67957 23.7139 2 24.5523 2C25.3906 2 26.0702 2.67957 26.0702 3.51792V7.062C26.0702 7.90035 25.3906 8.57992 24.5523 8.57992Z" fill="#F2EAE7"/>
<path d="M31.5434 10.1495C33.2462 10.1495 34.6314 8.76428 34.6314 7.06163V5.28906H28.4556V7.06163C28.4556 8.76428 29.8408 10.1495 31.5434 10.1495Z" fill="#EC6E73"/>
<path d="M31.5434 8.57992C30.7051 8.57992 30.0255 7.90035 30.0255 7.062V3.51792C30.0255 2.67957 30.7051 2 31.5434 2C32.3818 2 33.0614 2.67957 33.0614 3.51792V7.062C33.0615 7.90035 32.3818 8.57992 31.5434 8.57992Z" fill="#F2EAE7"/>
<path d="M38.5349 10.1495C40.2375 10.1495 41.6227 8.76428 41.6227 7.06163V5.28906H35.447V7.06163C35.447 8.76428 36.8322 10.1495 38.5349 10.1495Z" fill="#EC6E73"/>
<path d="M38.5349 8.57992C37.6965 8.57992 37.017 7.90035 37.017 7.062V3.51792C37.017 2.67957 37.6965 2 38.5349 2C39.3732 2 40.0528 2.67957 40.0528 3.51792V7.062C40.0528 7.90035 39.3732 8.57992 38.5349 8.57992Z" fill="#F2EAE7"/>
<path d="M45.526 10.1495C47.2288 10.1495 48.614 8.76428 48.614 7.06163V5.28906H42.4382V7.06163C42.4382 8.76428 43.8234 10.1495 45.526 10.1495Z" fill="#EC6E73"/>
<path d="M45.526 8.57992C44.6877 8.57992 44.0081 7.90035 44.0081 7.062V3.51792C44.0081 2.67957 44.6877 2 45.526 2C46.3644 2 47.044 2.67957 47.044 3.51792V7.062C47.044 7.90035 46.3644 8.57992 45.526 8.57992Z" fill="#F2EAE7"/>
</svg>
