<svg width="56" height="56" viewBox="0 0 56 56" fill="none" xmlns="http://www.w3.org/2000/svg">
<path d="M45.2711 21.1203L37.3656 16.377L36.3204 17.8998V28.2353L37.3656 29.2805L45.2711 21.1203Z" fill="#EFC356"/>
<path d="M1.00024 21.1203L8.9058 16.377L9.95101 17.8998V28.2353L8.9058 29.2805L2.07315 23.1311L1.00024 21.1203Z" fill="#EFC356"/>
<path d="M29.4601 36.3955H16.8114L8.90582 29.2806V8.73165C8.90582 8.32757 9.23339 8 9.63747 8H36.634C37.0381 8 37.3657 8.32757 37.3657 8.73165V29.2806L29.4601 36.3955Z" fill="#EAF6FF"/>
<path d="M30.6527 34.2768L29.4606 36.3951H16.8109L8.90546 29.2805V8.73165C8.90546 8.32757 9.23303 8 9.6371 8H11.0516V27.1622L18.957 34.2767H30.6527V34.2768Z" fill="#D8ECFE"/>
<path d="M16.8109 35.3496L16.8612 36.9817L5.77348 45.8519L1 47.9988V21.1201L3.68306 23.5346L16.8109 35.3496Z" fill="#F9D264"/>
<path d="M3.68306 23.5346V46.2825L1 47.9998V21.1201L3.68306 23.5346Z" fill="#EFC356"/>
<path d="M45.2711 47.999V21.1201L29.4601 35.35L28.6761 36.3952L40.4984 45.8531L45.2711 47.999Z" fill="#F9D264"/>
<path d="M1.00024 47.9985H45.2711L29.4601 35.3496H16.8114L1.00024 47.9985Z" fill="#FFF292"/>
<path d="M45.2714 47.9996H1L3.68274 45.8535H42.5887L45.2714 47.9996Z" fill="#F9E77D"/>
<path d="M45.3483 29.6797C50.4108 29.6797 54.5148 25.5757 54.5148 20.5132C54.5148 15.4507 50.4108 11.3467 45.3483 11.3467C40.2858 11.3467 36.1818 15.4507 36.1818 20.5132C36.1818 25.5757 40.2858 29.6797 45.3483 29.6797Z" fill="#F25A74"/>
<path d="M46.4217 29.616C46.0697 29.6578 45.7113 29.6794 45.3486 29.6794C40.2857 29.6794 36.1822 25.5759 36.1822 20.513C36.1822 15.4501 40.2857 11.3467 45.3486 11.3467C45.7113 11.3467 46.0697 11.3681 46.4217 11.41C41.8643 11.9402 38.3284 15.8129 38.3284 20.5131C38.3284 25.2133 41.8643 29.086 46.4217 29.616Z" fill="#E83D5A"/>
<path d="M47.1816 23.3742H46.1531V16.8458C46.1531 16.4013 45.7928 16.041 45.3483 16.041H43.515C43.0705 16.041 42.7102 16.4013 42.7102 16.8458C42.7102 17.2904 43.0705 17.6506 43.515 17.6506H44.5436V23.3742H43.515C43.0705 23.3742 42.7102 23.7345 42.7102 24.179C42.7102 24.6236 43.0705 24.9838 43.515 24.9838H47.1816C47.6261 24.9838 47.9864 24.6236 47.9864 24.179C47.9864 23.7345 47.6261 23.3742 47.1816 23.3742Z" fill="#EAF6FF"/>
<path d="M31.3081 15.4836H14.5158C14.0713 15.4836 13.711 15.1234 13.711 14.6788C13.711 14.2343 14.0713 13.874 14.5158 13.874H31.308C31.7525 13.874 32.1128 14.2343 32.1128 14.6788C32.1129 15.1234 31.7526 15.4836 31.3081 15.4836Z" fill="#365E7D"/>
<path d="M31.3081 18.7053H14.5158C14.0713 18.7053 13.711 18.345 13.711 17.9005C13.711 17.456 14.0713 17.0957 14.5158 17.0957H31.308C31.7525 17.0957 32.1128 17.456 32.1128 17.9005C32.1129 18.345 31.7526 18.7053 31.3081 18.7053Z" fill="#365E7D"/>
<path d="M31.3081 22.1506H14.5158C14.0713 22.1506 13.711 21.7904 13.711 21.3458C13.711 20.9013 14.0713 20.541 14.5158 20.541H31.308C31.7525 20.541 32.1128 20.9013 32.1128 21.3458C32.1129 21.7904 31.7526 22.1506 31.3081 22.1506Z" fill="#365E7D"/>
<path d="M31.308 25.4836H14.5157C14.0712 25.4836 13.7109 25.1234 13.7109 24.6788C13.7109 24.2343 14.0712 23.874 14.5157 23.874H31.3079C31.7524 23.874 32.1127 24.2343 32.1127 24.6788C32.1128 25.1234 31.7525 25.4836 31.308 25.4836Z" fill="#365E7D"/>
<path d="M31.308 28.804H14.5157C14.0712 28.804 13.7109 28.4437 13.7109 27.9991C13.7109 27.5546 14.0712 27.1943 14.5157 27.1943H31.3079C31.7524 27.1943 32.1127 27.5546 32.1127 27.9991C32.1127 28.4437 31.7525 28.804 31.308 28.804Z" fill="#365E7D"/>
</svg>
