<svg width="22" height="22" viewBox="0 0 22 22" fill="none" xmlns="http://www.w3.org/2000/svg">
<path d="M18.7778 1H3.22222C1.99492 1 1 1.99492 1 3.22222V18.7778C1 20.0051 1.99492 21 3.22222 21H18.7778C20.0051 21 21 20.0051 21 18.7778V3.22222C21 1.99492 20.0051 1 18.7778 1Z" stroke="#404040" stroke-width="2" stroke-linecap="round" stroke-linejoin="round"/>
<path d="M7.11111 8.77767C8.03158 8.77767 8.77778 8.03148 8.77778 7.111C8.77778 6.19053 8.03158 5.44434 7.11111 5.44434C6.19063 5.44434 5.44444 6.19053 5.44444 7.111C5.44444 8.03148 6.19063 8.77767 7.11111 8.77767Z" stroke="#404040" stroke-width="2" stroke-linecap="round" stroke-linejoin="round"/>
<path d="M21 14.3334L15.4444 8.77783L3.22222 21.0001" stroke="#404040" stroke-width="2" stroke-linecap="round" stroke-linejoin="round"/>
</svg>
