<svg width="256" height="256" viewBox="0 0 256 256" fill="none" xmlns="http://www.w3.org/2000/svg">
<g opacity="0.56">
<path d="M103.224 72.0432L84.645 53.6772C82.6015 53.6772 80.635 54.0072 78.796 54.6167C71.4 57.0677 66.0645 64.0397 66.0645 72.2577V84.6447C66.0645 94.9067 74.3835 103.225 84.645 103.225C94.907 103.225 103.225 94.9062 103.225 84.6447V72.2577C103.226 72.1862 103.225 72.1147 103.224 72.0432Z" fill="#FFC2C2"/>
<path d="M231.226 227.436H29.4899C24.9289 227.436 21.2319 223.739 21.2319 219.178V165.161L24.7744 156.903H231.226C235.787 156.903 239.484 160.601 239.484 165.161V222.968L231.226 227.436Z" fill="#FFC2C2"/>
<path d="M24.7741 214.709V156.903C20.2136 156.903 16.5161 160.6 16.5161 165.161V222.967C16.5161 227.528 20.2136 231.225 24.7741 231.225H231.226C235.786 231.225 239.484 227.528 239.484 222.967H33.0326C28.4716 222.967 24.7741 219.27 24.7741 214.709Z" fill="#F26161"/>
<path d="M67.984 190.467C64.4275 189.153 61.105 187.723 60.012 187.245C59.4435 186.757 59.4315 186.112 59.484 185.751C59.5485 185.31 59.875 184.231 61.5325 183.731C65.492 182.55 69.1775 185.449 69.2825 185.536C71.0285 186.981 73.613 186.745 75.077 185.012C76.5445 183.266 76.319 180.661 74.573 179.193C74.2865 178.953 67.464 173.312 59.1495 175.824C54.9035 177.104 51.8995 180.459 51.311 184.58C50.7545 188.455 52.436 192.183 55.698 194.31C55.8795 194.429 56.073 194.532 56.2705 194.621C56.44 194.697 60.5285 196.518 65.1295 198.213C66.061 198.558 69.081 199.832 68.7345 201.764C68.4725 203.244 66.6215 204.774 63.9885 204.774C61.166 204.774 58.456 203.641 56.7385 201.744C55.206 200.056 52.5975 199.927 50.908 201.455C49.2145 202.985 49.0855 205.598 50.6175 207.288C53.8755 210.885 58.8755 213.032 63.9885 213.032C70.432 213.032 75.8475 208.903 76.8635 203.215C77.629 198.919 75.7015 193.312 67.984 190.467Z" fill="white"/>
<path d="M203.29 175.927C201.371 174.677 198.818 175.222 197.577 177.135L191.657 186.227L185.665 177.054C184.423 175.146 181.863 174.61 179.952 175.854C178.044 177.102 177.504 179.661 178.754 181.57L187.529 195.01L187.496 208.892C187.492 211.172 189.334 213.025 191.617 213.031H191.625C193.899 213.031 195.75 211.189 195.754 208.912L195.787 195.016L204.496 181.638C205.742 179.728 205.201 177.171 203.29 175.927Z" fill="white"/>
<path d="M146.295 187.002C146.295 180.486 140.799 175.183 134.041 175.183H126.178C125.081 175.183 124.029 175.621 123.254 176.397C122.48 177.175 122.045 178.229 122.049 179.326L122.041 208.903C122.041 211.183 123.888 213.032 126.17 213.032C128.452 213.032 130.299 211.183 130.299 208.903V201.668L139.065 211.63C139.883 212.558 141.02 213.031 142.166 213.031C143.138 213.031 144.109 212.693 144.892 212.003C146.605 210.495 146.771 207.886 145.267 206.175L138.151 198.088C142.882 196.45 146.295 192.123 146.295 187.002ZM134.041 183.441C136.206 183.441 138.037 185.072 138.037 187.002C138.037 188.933 136.206 190.564 134.041 190.564C133.166 190.564 131.738 190.57 130.339 190.576C130.331 189.219 130.319 183.441 130.319 183.441H134.041Z" fill="white"/>
<path d="M175.072 187.002C175.072 180.486 169.576 175.183 162.818 175.183H154.955C153.858 175.183 152.806 175.621 152.032 176.397C151.258 177.175 150.822 178.229 150.826 179.326L150.814 208.903C150.814 211.183 152.661 213.032 154.943 213.032C157.225 213.032 159.072 211.183 159.072 208.903V201.667L167.842 211.631C168.661 212.558 169.798 213.032 170.943 213.032C171.915 213.032 172.887 212.693 173.673 212.002C175.383 210.496 175.548 207.887 174.044 206.175L166.927 198.089C171.659 196.451 175.072 192.123 175.072 187.002ZM162.818 183.441C164.984 183.441 166.814 185.072 166.814 187.002C166.814 188.933 164.984 190.564 162.818 190.564C161.943 190.564 160.516 190.57 159.117 190.576C159.109 189.219 159.097 183.441 159.097 183.441H162.818Z" fill="white"/>
<path d="M98.9474 175.183C88.5119 175.183 80.0239 183.673 80.0239 194.107C80.0239 204.542 88.5119 213.032 98.9474 213.032C109.383 213.032 117.871 204.542 117.871 194.107C117.871 183.673 109.383 175.183 98.9474 175.183ZM98.9474 204.774C93.0684 204.774 88.2819 199.987 88.2819 194.106C88.2819 188.225 93.0684 183.441 98.9474 183.441C104.826 183.441 109.613 188.225 109.613 194.106C109.613 199.988 104.826 204.774 98.9474 204.774Z" fill="white"/>
<path d="M81.562 95.9857C86.1227 95.9857 89.82 92.2885 89.82 87.7277C89.82 83.167 86.1227 79.4697 81.562 79.4697C77.0012 79.4697 73.304 83.167 73.304 87.7277C73.304 92.2885 77.0012 95.9857 81.562 95.9857Z" fill="white"/>
<path d="M53.6776 49.5484C52.6211 49.5484 51.5646 49.1454 50.7581 48.3389C49.1451 46.7259 49.1451 44.1129 50.7581 42.5004C68.2821 24.9764 101.807 24.7744 103.226 24.7744C105.504 24.7744 107.351 26.6214 107.355 28.9014C107.355 31.1794 105.508 33.0304 103.23 33.0324C102.915 33.0324 71.6891 33.2479 56.5966 48.3389C55.7906 49.1449 54.7341 49.5484 53.6776 49.5484Z" fill="#FFE09C"/>
<path d="M202.323 49.5484C201.266 49.5484 200.21 49.1454 199.403 48.3389C184.311 33.2484 153.085 33.0324 152.77 33.0324C150.492 33.0304 148.645 31.1794 148.645 28.9014C148.649 26.6214 150.496 24.7744 152.774 24.7744C154.194 24.7744 187.718 24.9759 205.242 42.5004C206.855 44.1134 206.855 46.7264 205.242 48.3389C204.436 49.1449 203.379 49.5484 202.323 49.5484Z" fill="#FFE09C"/>
<path d="M144.516 131.895C143.451 131.895 142.383 131.484 141.576 130.665C132.689 121.649 123.31 121.649 114.423 130.665C112.822 132.29 110.21 132.306 108.585 130.706C106.96 129.105 106.944 126.492 108.544 124.867C120.649 112.585 135.351 112.585 147.456 124.867C149.057 126.492 149.04 129.105 147.415 130.706C146.609 131.5 145.564 131.895 144.516 131.895Z" fill="#FFE09C"/>
<path d="M256 177.549C256 172.988 252.303 169.291 247.742 169.291H231.226C226.665 169.291 222.968 172.988 222.968 177.549C222.968 182.11 226.666 185.807 231.226 185.807C226.665 185.807 222.968 189.504 222.968 194.065C222.968 198.626 226.666 202.323 231.226 202.323H247.742C252.303 202.323 256 198.626 256 194.065C256 189.504 252.303 185.807 247.742 185.807C252.303 185.807 256 182.109 256 177.549Z" fill="#FFD18D"/>
<path d="M235.355 218.838H243.613C248.174 218.838 251.871 215.141 251.871 210.58C251.871 206.019 248.173 202.322 243.613 202.322H235.355C230.794 202.322 227.097 206.02 227.097 210.58C227.097 215.141 230.794 218.838 235.355 218.838Z" fill="#FBBD80"/>
<path d="M33.032 177.549C33.032 172.988 29.335 169.291 24.774 169.291H8.258C3.6975 169.291 0 172.988 0 177.549C0 182.11 3.6975 185.807 8.258 185.807C3.6975 185.807 0 189.504 0 194.065C0 198.626 3.6975 202.323 8.258 202.323H24.774C29.335 202.323 33.032 198.626 33.032 194.065C33.032 189.504 29.335 185.807 24.774 185.807C29.335 185.807 33.032 182.109 33.032 177.549Z" fill="#FFD18D"/>
<path d="M12.3869 218.838H20.6449C25.2059 218.838 28.9029 215.141 28.9029 210.58C28.9029 206.019 25.2054 202.322 20.6449 202.322H12.3869C7.82591 202.322 4.12891 206.02 4.12891 210.58C4.12891 215.141 7.82641 218.838 12.3869 218.838Z" fill="#FBBD80"/>
<path d="M103.224 72.0432C103.106 61.8827 94.8334 53.6772 84.6449 53.6772C82.5759 53.6772 80.6544 53.9927 78.7954 54.6167C78.6054 55.6192 78.4509 56.7487 78.4509 57.8062C78.4509 66.9277 85.8454 74.3222 94.9669 74.3222C97.9829 74.3222 100.791 73.4542 103.224 72.0432Z" fill="white"/>
<path d="M189.935 72.2581L171.356 53.8921C169.312 53.8921 167.346 54.2221 165.507 54.8316C158.111 57.2826 152.775 64.2546 152.775 72.4726V84.8596C152.775 95.1216 161.094 103.44 171.356 103.44C181.618 103.44 189.936 95.1211 189.936 84.8596V72.4726C189.936 72.4011 189.936 72.3296 189.935 72.2581Z" fill="#FFC2C2"/>
<path d="M168.273 96.2006C172.834 96.2006 176.531 92.5033 176.531 87.9426C176.531 83.3818 172.834 79.6846 168.273 79.6846C163.712 79.6846 160.015 83.3818 160.015 87.9426C160.015 92.5033 163.712 96.2006 168.273 96.2006Z" fill="white"/>
<path d="M189.936 72.2581C189.818 62.0976 181.545 53.8921 171.356 53.8921C169.287 53.8921 167.366 54.2076 165.507 54.8316C165.317 55.8341 165.162 56.9636 165.162 58.0211C165.162 67.1426 172.557 74.5371 181.678 74.5371C184.694 74.5371 187.503 73.6691 189.936 72.2581Z" fill="white"/>
</g>
</svg>
