<svg width="56" height="54" viewBox="0 0 56 54" fill="none" xmlns="http://www.w3.org/2000/svg">
<path d="M40.4558 24.6993C40.4281 24.6993 40.4003 24.6979 40.3724 24.6952C40.076 24.6658 39.8169 24.4827 39.6902 24.2132L37.8135 20.2204L35.7581 23.0446C35.6077 23.2512 35.372 23.3787 35.1168 23.3916C34.8616 23.4058 34.6142 23.3014 34.4438 23.111L33.1215 21.6336H23.5468C23.0796 21.6336 22.7009 21.2549 22.7009 20.7877C22.7009 20.3206 23.0796 19.9418 23.5468 19.9418H33.4997C33.7403 19.9418 33.9696 20.0443 34.13 20.2236L35.0063 21.2026L37.287 18.0688C37.463 17.8271 37.7538 17.6964 38.0511 17.7245C38.3488 17.7528 38.6094 17.9362 38.7366 18.2067L40.6185 22.2108L42.0433 20.2846C42.2029 20.0689 42.4552 19.9417 42.7234 19.9417H53.4226C53.8897 19.9417 54.2685 20.3205 54.2685 20.7876C54.2685 21.2548 53.8897 21.6335 53.4226 21.6335H43.1498L41.1358 24.3563C40.9754 24.5733 40.7224 24.6993 40.4558 24.6993Z" fill="#EB5468"/>
<path fill-rule="evenodd" clip-rule="evenodd" d="M3.97609 16.3395C4.65323 17.2604 5.79336 17.8787 7.30405 17.6971C9.56844 15.3994 8.89775 12.9297 7.1507 11.2695H6.47039C3.14244 11.2694 2.57401 14.4434 3.97609 16.3395Z" fill="#FFBC85"/>
<path fill-rule="evenodd" clip-rule="evenodd" d="M26.9523 11.298C24.8827 12.6682 24.7581 15.7594 26.799 17.6968C26.7958 17.7064 26.7958 17.716 26.7926 17.7255C28.3033 17.9072 29.4434 17.2857 30.1206 16.3679C31.5226 14.4686 30.9541 11.2979 27.6262 11.2979L26.9523 11.298Z" fill="#FFBC85"/>
<path fill-rule="evenodd" clip-rule="evenodd" d="M34.1257 45.8316V51.7272H0V39.6045C0.360937 33.8567 4.51609 32.0781 7.24675 30.826L8.52348 30.243L25.5052 30.1719L29.1369 31.7972C27.7282 35.3704 28.52 40.3918 33.2222 44.9552L34.1257 45.8316Z" fill="#F9F7F8"/>
<path fill-rule="evenodd" clip-rule="evenodd" d="M17.0515 24.7173C15.3333 24.7173 13.7172 24.2744 12.3055 23.5V30.7593L17.0133 33.2195L21.7975 30.7593V23.5C20.3858 24.2745 18.7665 24.7173 17.0515 24.7173Z" fill="#FED1A3"/>
<path fill-rule="evenodd" clip-rule="evenodd" d="M19.4532 32.8754L17.0132 30.9697L14.3784 33.0411V39.3444C14.3784 39.7905 14.7425 40.1537 15.1896 40.1537H18.9104C19.3575 40.1537 19.7248 39.7905 19.7248 39.3444V33.0857L19.4532 32.8754Z" fill="#BEB9DD"/>
<path fill-rule="evenodd" clip-rule="evenodd" d="M17.0132 30.9699L12.3055 28.5098L8.52405 30.2434L10.4309 35.5884C10.5063 35.7995 10.7662 35.8746 10.9425 35.7363L17.0132 30.9699Z" fill="#DDDAEC"/>
<path fill-rule="evenodd" clip-rule="evenodd" d="M21.7976 28.5098L17.0133 30.9699L19.4534 32.8756L23.0894 35.7147C23.2662 35.8527 23.526 35.7768 23.6007 35.5654L25.5056 30.1733L21.7976 28.5098Z" fill="#DDDAEC"/>
<path fill-rule="evenodd" clip-rule="evenodd" d="M24.3877 33.3377L25.5055 30.1732L21.7974 28.5098L19.9546 29.4594C20.2421 29.638 23.42 32.0279 24.3877 33.3377Z" fill="#BEB9DD"/>
<path fill-rule="evenodd" clip-rule="evenodd" d="M25.5055 30.1729L24.3877 33.3373C29.4403 39.6087 27.4154 49.4334 26.6681 51.7278H34.1256V45.8324L33.2217 44.9561C28.5204 40.3927 27.7283 35.3705 29.1369 31.7982L25.5055 30.1729Z" fill="#DDDAEC"/>
<path fill-rule="evenodd" clip-rule="evenodd" d="M12.3055 27.015C14.554 27.6173 17.1793 28.3119 19.2936 27.5184C20.0442 27.238 19.9548 27.4196 19.9548 28.2864V29.4592L21.7977 28.5096V24.625C20.3859 25.3994 18.7668 25.8392 17.0517 25.8392C15.3334 25.8392 13.7174 25.3994 12.3057 24.625L12.3055 27.015Z" fill="#FFBC85"/>
<path fill-rule="evenodd" clip-rule="evenodd" d="M21.4558 1.42871C21.3832 2.50026 19.9546 4.37888 19.9546 4.37888C19.9546 4.37888 20.1644 6.62949 19.6129 7.45473C22.2957 7.71285 26.9076 10.9155 26.9523 14.542V11.2693V10.2686C26.9523 6.40637 24.7039 3.05402 21.4558 1.42871Z" fill="#2B4D66"/>
<path fill-rule="evenodd" clip-rule="evenodd" d="M19.613 7.45481C20.6606 5.88692 21.3025 3.69133 21.4559 1.4288C20.0794 0.740503 18.5176 0.364471 16.8727 0.393128C11.5103 0.485549 7.15082 4.89599 7.15082 10.2687V11.2694C10.0444 11.3395 15.8635 11.1993 18.6581 8.59253C19.0061 8.26736 19.3255 7.88499 19.613 7.45481Z" fill="#375E7D"/>
<path fill-rule="evenodd" clip-rule="evenodd" d="M26.9523 14.5424C26.9075 10.9159 22.2957 7.7132 19.6129 7.45508C19.3254 7.88525 19.0061 8.26773 18.6579 8.59269C15.8634 11.1994 10.0442 11.3396 7.1507 11.2695V15.9604C7.1507 16.7508 7.24334 17.5187 7.42216 18.2549C8.08006 20.9923 9.88781 23.2963 12.3055 24.6251C13.7172 25.3995 15.3333 25.8393 17.0515 25.8393C18.7666 25.8393 20.3858 25.3995 21.7975 24.6251C23.2347 23.8348 24.458 22.6971 25.3522 21.3301C25.959 20.3995 26.4126 19.3638 26.6808 18.2549C26.8565 17.5188 26.9523 16.7508 26.9523 15.9604V14.6506V14.5424Z" fill="#FFE5C1"/>
<path fill-rule="evenodd" clip-rule="evenodd" d="M20.8202 7.72266C22.7013 8.99414 24.5377 11.04 24.5377 13.4332C24.5377 16.0336 24.4483 17.8022 22.9377 20.1125C22.0466 21.4796 20.8233 22.6173 19.383 23.4076C16.9525 24.7428 14.0653 24.9913 11.4464 24.0927C11.7211 24.2839 12.0085 24.4624 12.3056 24.6249C13.7173 25.3993 15.3333 25.8391 17.0516 25.8391C18.7667 25.8391 20.3858 25.3993 21.7976 24.6249C23.2347 23.8346 24.458 22.697 25.3522 21.3299C25.9591 20.3993 26.4126 19.3637 26.6808 18.2547C26.7256 18.073 26.7638 17.885 26.7989 17.697C26.8979 17.133 26.9523 16.5529 26.9523 15.9602V14.5422C26.914 11.416 23.4871 8.60859 20.8202 7.72266Z" fill="#FED1A3"/>
<path fill-rule="evenodd" clip-rule="evenodd" d="M29.1368 31.7984C27.7284 35.3707 28.5204 40.393 33.2217 44.9563L34.1255 45.8326L42.0412 53.517C42.1685 53.6406 42.371 53.6406 42.4983 53.517L51.321 44.9562C54.3584 42.0053 55.7636 38.8632 56 36.0462V34.3573C55.457 28.0221 48.8171 24.1216 42.2698 29.6314C36.6647 24.9151 30.9893 27.0948 29.1368 31.7984Z" fill="#EB5468"/>
<path fill-rule="evenodd" clip-rule="evenodd" d="M48.1368 27.0176C50.4396 28.1967 52.0365 30.6313 52.2888 33.6077V35.2935C52.0556 38.1105 50.6504 41.2558 47.6099 44.2035L40.0309 51.5616L42.0413 53.516C42.1686 53.6397 42.3711 53.6398 42.4984 53.5162L51.321 44.9555C54.3583 42.0046 55.7636 38.8626 55.9999 36.0455V34.3567C55.6231 29.9622 52.3144 26.7403 48.1368 27.0176Z" fill="#E5384F"/>
<path fill-rule="evenodd" clip-rule="evenodd" d="M36.2272 37.3938V41.1732C36.2272 41.3549 36.3741 41.5015 36.5562 41.5015H40.047V44.9877C40.047 45.1662 40.197 45.3159 40.376 45.3159H44.1639C44.3459 45.3159 44.4929 45.1662 44.4929 44.9877V41.5015H47.9868C48.1688 41.5015 48.3158 41.3549 48.3158 41.1732V37.3938C48.3158 37.2121 48.169 37.0655 47.9868 37.0655H44.4929V33.5792C44.4929 33.3975 44.346 33.251 44.1639 33.251H40.376C40.1972 33.251 40.047 33.3975 40.047 33.5792V37.0654H36.5562C36.3741 37.0655 36.2272 37.2121 36.2272 37.3938Z" fill="#F9F7F8"/>
<path fill-rule="evenodd" clip-rule="evenodd" d="M44.1637 33.251H41.6407C42.075 35.163 42.3242 37.4256 42.3242 39.8538C42.3242 41.8136 42.1613 43.6683 41.8707 45.3158H44.1639C44.3459 45.3158 44.4929 45.1661 44.4929 44.9876V41.5014H47.9868C48.1688 41.5014 48.3158 41.3548 48.3158 41.1731V37.3937C48.3158 37.212 48.169 37.0654 47.9868 37.0654H44.4929V33.5791C44.4927 33.3975 44.3457 33.251 44.1637 33.251Z" fill="#DDDAEC"/>
<path d="M7.14402 45.9943V51.7275H5.45221V45.9943C5.45221 45.5274 5.83119 45.1484 6.29812 45.1484C6.76515 45.1484 7.14402 45.5274 7.14402 45.9943Z" fill="#BEB9DD"/>
<path d="M28.6508 45.9943V51.7275H26.959V45.9943C26.959 45.5274 27.338 45.1484 27.8049 45.1484C28.2718 45.1484 28.6508 45.5274 28.6508 45.9943Z" fill="#BEB9DD"/>
<path d="M17.0516 37.3608H17.0293C16.5621 37.3608 16.1833 36.982 16.1833 36.5148C16.1833 36.0477 16.5621 35.6689 17.0293 35.6689H17.0516C17.5187 35.6689 17.8975 36.0477 17.8975 36.5148C17.8975 36.982 17.5187 37.3608 17.0516 37.3608Z" fill="#375E7D"/>
</svg>
