<svg width="108" height="108" viewBox="0 0 108 108" fill="none" xmlns="http://www.w3.org/2000/svg">
<path d="M90 18H27C22.0365 18 18 22.0365 18 27V49.5H27V36L55.8 57.6C56.5792 58.1835 57.5265 58.4989 58.5 58.4989C59.4735 58.4989 60.4208 58.1835 61.2 57.6L90 36V76.5H54V85.5H90C94.9635 85.5 99 81.4635 99 76.5V27C99 22.0365 94.9635 18 90 18ZM58.5 48.375L29.997 27H87.003L58.5 48.375Z" fill="#CD0404"/>
<path d="M9 54H40.5V63H9V54ZM18 67.5H45V76.5H18V67.5ZM31.5 81H49.5V90H31.5V81Z" fill="#CD0404"/>
</svg>
