<svg width="56" height="56" viewBox="0 0 56 56" fill="none" xmlns="http://www.w3.org/2000/svg">
<g clip-path="url(#clip0_1351_3789)">
<path d="M11.288 5.21875H44.3552C45.6205 5.21875 46.6433 6.24553 46.6433 7.50677V53.7079C46.6433 54.9732 45.6165 55.9959 44.3552 55.9959H11.288C10.0268 55.9959 9 54.9691 9 53.7079V7.50677C9 6.24553 10.0268 5.21875 11.288 5.21875Z" fill="#CC694F"/>
<path d="M34.6389 52.5767C34.2611 52.9765 33.7353 53.2031 33.1853 53.2031H12.7625C11.6579 53.2031 10.7625 52.3076 10.7625 51.2031V10.0166C10.7625 8.91203 11.6579 8.0166 12.7625 8.0166H42.8808C43.9853 8.0166 44.8808 8.91203 44.8808 10.0166V40.9432C44.8808 41.4541 44.6853 41.9456 44.3344 42.3169L34.6389 52.5767Z" fill="white"/>
<path d="M16.2966 13.7803H39.3507" stroke="#443344" stroke-width="0.5" stroke-miterlimit="10" stroke-linecap="round"/>
<path d="M16.2966 19.1973H39.3507" stroke="#443344" stroke-width="0.5" stroke-miterlimit="10" stroke-linecap="round"/>
<path d="M16.2966 24.6143H39.3507" stroke="#443344" stroke-width="0.5" stroke-miterlimit="10" stroke-linecap="round"/>
<path d="M16.2966 30.0312H39.3507" stroke="#443344" stroke-width="0.5" stroke-miterlimit="10" stroke-linecap="round"/>
<path d="M16.2966 35.4521H39.3507" stroke="#443344" stroke-width="0.5" stroke-miterlimit="10" stroke-linecap="round"/>
<path d="M16.2966 40.8691H28.9737" stroke="#443344" stroke-width="0.5" stroke-miterlimit="10" stroke-linecap="round"/>
<path d="M16.2966 46.2861H28.9737" stroke="#443344" stroke-width="0.5" stroke-miterlimit="10" stroke-linecap="round"/>
<path d="M33.8449 3.81607H31.666C31.666 1.70995 29.9601 0 27.8499 0C25.7398 0 24.0338 1.70591 24.0338 3.81607H21.7984C21.2243 3.81607 20.7595 4.28095 20.7595 4.85498V10.1829C20.7595 10.7569 21.2243 11.2218 21.7984 11.2218H33.8449C34.4189 11.2218 34.8838 10.7569 34.8838 10.1829V4.85498C34.8838 4.28095 34.4189 3.81607 33.8449 3.81607ZM27.8499 0.869126C28.6624 0.869126 29.3214 1.52804 29.3214 2.34058C29.3214 3.15311 28.6624 3.81203 27.8499 3.81203C27.0374 3.81203 26.3785 3.15311 26.3785 2.34058C26.3785 1.52804 27.0374 0.869126 27.8499 0.869126Z" fill="#FFCAD6"/>
<path d="M33.8449 3.81607H31.666C31.666 1.70995 29.9601 0 27.85 0V0.865083C28.6625 0.865083 29.3214 1.524 29.3214 2.33653C29.3214 3.14907 28.6625 3.80798 27.85 3.80798L27.8217 11.2137H33.8449C34.4189 11.2137 34.8838 10.7489 34.8838 10.1748V4.84689C34.8838 4.27287 34.4189 3.80798 33.8449 3.80798V3.81607Z" fill="#FFB4B3"/>
</g>
<defs>
<clipPath id="clip0_1351_3789">
<rect width="37.6473" height="56" fill="white" transform="translate(9)"/>
</clipPath>
</defs>
</svg>
