<svg width="53" height="50" viewBox="0 0 53 50" fill="none" xmlns="http://www.w3.org/2000/svg">
<path d="M7.37315 3.68575V11.2151H0V3.68575C0 1.65034 1.65034 0 3.6873 0C4.70495 0 5.62641 0.413358 6.29377 1.07928C6.96124 1.74664 7.37315 2.6681 7.37315 3.68575Z" fill="#BCBCCE"/>
<path d="M7.37311 3.68575V50H44.2971V11.2151V3.68575C44.2971 2.6681 43.8853 1.74664 43.2178 1.07928C42.5504 0.413358 41.629 0 40.6112 0H3.68726C4.70491 0 5.62637 0.413358 6.29384 1.07928C6.9612 1.74664 7.37311 2.6681 7.37311 3.68575Z" fill="white"/>
<path d="M43.2179 1.07928C42.5505 0.41346 41.6291 0 40.6114 0H37.946C38.9637 0 39.8852 0.413358 40.5525 1.07928C41.22 1.74664 41.6318 2.6681 41.6318 3.68575V11.2151V50H44.2971V11.2151V3.68575C44.297 2.6681 43.8853 1.74664 43.2179 1.07928Z" fill="#BCBCCE"/>
<path d="M40.6808 24.0064H10.9894C10.5568 24.0064 10.2064 23.6559 10.2064 23.2234C10.2064 22.7909 10.5569 22.4404 10.9894 22.4404H40.6809C41.1135 22.4404 41.464 22.7909 41.464 23.2234C41.4639 23.6559 41.1133 24.0064 40.6808 24.0064Z" fill="#2B2F52"/>
<path d="M40.6808 31.485H10.9894C10.5568 31.485 10.2064 31.1344 10.2064 30.702C10.2064 30.2694 10.5569 29.9189 10.9894 29.9189H40.6809C41.1135 29.9189 41.464 30.2694 41.464 30.702C41.4639 31.1345 41.1133 31.485 40.6808 31.485Z" fill="#2B2F52"/>
<path d="M40.6808 38.9635H10.9894C10.5568 38.9635 10.2064 38.613 10.2064 38.1806C10.2064 37.748 10.5569 37.3975 10.9894 37.3975H40.6809C41.1135 37.3975 41.464 37.748 41.464 38.1806C41.4639 38.613 41.1133 38.9635 40.6808 38.9635Z" fill="#2B2F52"/>
<path d="M23.9923 46.444H10.9894C10.5568 46.444 10.2064 46.0935 10.2064 45.6609C10.2064 45.2283 10.5569 44.8779 10.9894 44.8779H23.9923C24.4249 44.8779 24.7753 45.2284 24.7753 45.6609C24.7753 46.0934 24.4248 46.444 23.9923 46.444Z" fill="#2B2F52"/>
<path d="M52.6513 26.4709C52.6353 26.1037 52.3657 25.797 52.0036 25.7337C49.3399 25.2689 47.138 23.2871 46.3938 20.685C46.2976 20.3489 45.9905 20.1172 45.6409 20.1172H32.8637C32.5141 20.1172 32.2069 20.3489 32.1108 20.685C31.3666 23.2872 29.1645 25.2689 26.501 25.7337C26.1387 25.7969 25.8693 26.1037 25.8532 26.4709C25.8391 26.7961 25.8318 27.1174 25.8318 27.4258C25.8318 36.0901 30.9786 43.8948 38.9438 47.3094C39.0422 47.3516 39.1472 47.3727 39.2523 47.3727C39.3573 47.3727 39.4624 47.3516 39.5608 47.3094C47.5259 43.8948 52.6727 36.0901 52.6727 27.4257C52.6727 27.1174 52.6655 26.7962 52.6513 26.4709Z" fill="#D07D62"/>
<path d="M52.6513 26.4709C52.6353 26.1037 52.3657 25.797 52.0036 25.7337C49.3399 25.2689 47.138 23.2871 46.3938 20.685C46.2976 20.3489 45.9905 20.1172 45.6409 20.1172H43.9345C44.1907 20.1172 44.4157 20.3489 44.4863 20.685C45.0318 23.2872 46.6455 25.2689 48.5978 25.7337C48.8632 25.7969 49.0607 26.1037 49.0726 26.4709C49.0828 26.7961 49.0882 27.1174 49.0882 27.4258C49.0882 36.0901 45.3161 43.8948 39.4784 47.3094C39.4063 47.3516 39.3293 47.3727 39.2524 47.3727C39.3574 47.3727 39.4624 47.3516 39.5609 47.3094C47.5259 43.8948 52.6727 36.0901 52.6727 27.4257C52.6727 27.1174 52.6655 26.7962 52.6513 26.4709Z" fill="#CA6348"/>
<path d="M34.0853 30.6649H37.1448V27.6055C37.1448 27.3881 37.321 27.2119 37.5384 27.2119H40.9662C41.1836 27.2119 41.3598 27.3881 41.3598 27.6055V30.6649H44.4193C44.6366 30.6649 44.8129 30.8411 44.8129 31.0585V34.4863C44.8129 34.7037 44.6366 34.8799 44.4193 34.8799H41.3598V37.9394C41.3598 38.1567 41.1836 38.333 40.9662 38.333H37.5384C37.321 38.333 37.1448 38.1567 37.1448 37.9394V34.8799H34.0853C33.8679 34.8799 33.6917 34.7037 33.6917 34.4863V31.0585C33.6917 30.8411 33.8679 30.6649 34.0853 30.6649Z" fill="white"/>
<path d="M24.9978 10.847C24.9978 13.4262 23.603 15.6792 21.5268 16.8945C20.4901 17.5026 19.2823 17.8503 17.9936 17.8503C16.7049 17.8503 15.4971 17.5025 14.4603 16.8945C12.384 15.6792 10.9893 13.4263 10.9893 10.847C10.9893 6.97814 14.1256 3.84277 17.9936 3.84277C21.8615 3.84277 24.9978 6.97803 24.9978 10.847Z" fill="#7EBFE7"/>
<path d="M20.4267 9.71633V11.1353C20.4267 11.8029 20.1583 12.4074 19.7234 12.8469L19.7144 12.8559C19.2742 13.2962 18.6658 13.5683 17.9938 13.5683C17.3171 13.5683 16.7058 13.2923 16.264 12.8468C15.829 12.4073 15.5607 11.8028 15.5607 11.1352V9.71623C15.5607 8.37277 16.6503 7.2832 17.9938 7.2832C19.337 7.2832 20.4267 8.37277 20.4267 9.71633Z" fill="#FFD2C0"/>
<path d="M21.5268 15.9272V16.8952C20.49 17.5033 19.2822 17.851 17.9935 17.851C16.7049 17.851 15.497 17.5032 14.4602 16.8952V15.9272C14.4602 14.6041 15.1873 13.4521 16.264 12.8467C16.7057 13.292 17.3166 13.5683 17.9934 13.5683C18.6657 13.5683 19.2737 13.2958 19.7144 12.856L19.7227 12.8468C20.0063 13.0049 20.2648 13.202 20.4917 13.4289C21.1316 14.0684 21.5268 14.9518 21.5268 15.9272Z" fill="#E36F91"/>
<path d="M40.2721 13.7375H29.1463C28.9206 13.7375 28.7375 13.5545 28.7375 13.3288V8.36478C28.7375 8.13907 28.9206 7.95605 29.1463 7.95605H40.2722C40.4979 7.95605 40.6809 8.13907 40.6809 8.36478V13.3288C40.6808 13.5545 40.4978 13.7375 40.2721 13.7375Z" fill="#E8C778"/>
</svg>
