<svg width="32" height="28" viewBox="0 0 32 28" fill="none" xmlns="http://www.w3.org/2000/svg">
<path d="M15.0391 27.2182C15.0388 27.2182 15.0392 27.2182 15.0389 27.2182C10.8898 27.2182 7.39882 27.0235 4.67894 26.7849C3.00238 26.6379 1.95263 24.9022 2.59538 23.3468C4.37825 19.0321 6.57944 14.7699 9.16169 10.6361C10.9194 7.82231 12.6162 5.45063 14.0511 3.58463C15.0518 2.28325 17.0094 2.28287 18.0102 3.58419C19.4379 5.44088 21.1257 7.79913 22.8746 10.5956C25.4437 14.7034 27.6366 18.9389 29.4166 23.227C30.0628 24.7838 29.009 26.522 27.3299 26.6696C23.1835 27.034 19.0629 27.2182 15.0391 27.2182Z" fill="#DD636E"/>
<path d="M16.6169 2.67805C16.1301 2.80605 15.6743 3.11137 15.3373 3.5933C14.021 5.4758 12.4646 7.86874 10.8523 10.7076C8.48344 14.878 6.46413 19.1781 4.82894 23.5306C4.29444 24.9525 5.03519 26.5237 6.32357 26.9165C5.7475 26.8749 5.19932 26.8306 4.679 26.7852C3.00219 26.638 1.95288 24.9027 2.59519 23.3467C4.37813 19.0326 6.57963 14.7702 9.16188 10.6364C10.9196 7.8228 12.6162 5.45062 14.0512 3.58512C14.6846 2.76118 15.7023 2.45868 16.6169 2.67805Z" fill="#DA4A54"/>
<path d="M27.6149 15.0039V14.8231C27.6149 14.1851 28.1089 13.656 28.7454 13.6123L30.7034 13.478C31.4047 13.4299 32 13.9858 32 14.6888V15.1383C32 15.8412 31.4046 16.3971 30.7034 16.349L28.7454 16.2147C28.1089 16.1711 27.6149 15.642 27.6149 15.0039Z" fill="#DD636E"/>
<path d="M26.104 9.18435L26.0136 9.02766C25.6946 8.4751 25.8579 7.76991 26.3872 7.41385L28.0157 6.3186C28.599 5.92629 29.3925 6.11004 29.744 6.71879L29.9687 7.1081C30.3202 7.71685 30.0826 8.49598 29.4512 8.80498L27.6884 9.6676C27.1154 9.9481 26.423 9.73691 26.104 9.18435Z" fill="#DD636E"/>
<path d="M21.8857 4.89979L21.7291 4.80935C21.1765 4.49035 20.9654 3.79798 21.2458 3.22491L22.1084 1.46216C22.4174 0.83079 23.1966 0.593165 23.8053 0.944602L24.1946 1.16935C24.8034 1.52085 24.9871 2.31435 24.5948 2.89766L23.4996 4.5261C23.1435 5.05548 22.4383 5.21879 21.8857 4.89979Z" fill="#DD636E"/>
<path d="M4.38513 15.0039V14.8231C4.38513 14.1851 3.89113 13.656 3.25456 13.6123L1.29663 13.478C0.595375 13.4299 0 13.9858 0 14.6888V15.1383C0 15.8412 0.595375 16.3971 1.29663 16.349L3.25456 16.2147C3.89106 16.1711 4.38513 15.642 4.38513 15.0039Z" fill="#DD636E"/>
<path d="M5.896 9.18435L5.98643 9.02766C6.30543 8.4751 6.14212 7.76991 5.61275 7.41385L3.98431 6.3186C3.401 5.92629 2.6075 6.11004 2.256 6.71879L2.03125 7.1081C1.67975 7.71685 1.91743 8.49598 2.54881 8.80498L4.31156 9.6676C4.88462 9.9481 5.577 9.73691 5.896 9.18435Z" fill="#DD636E"/>
<path d="M10.1142 4.89979L10.2709 4.80935C10.8235 4.49035 11.0346 3.79798 10.7542 3.22491L9.89156 1.46216C9.58256 0.83079 8.80344 0.593165 8.19469 0.944602L7.80537 1.16935C7.19662 1.52085 7.01287 2.31435 7.40519 2.89766L8.50044 4.5261C8.8565 5.05548 9.56169 5.21879 10.1142 4.89979Z" fill="#DD636E"/>
<path d="M15.3063 9.25737C15.7732 9.21043 16.2401 9.21043 16.7069 9.25737C17.2976 9.31681 17.7498 9.81012 17.7716 10.4034C17.8428 12.3439 17.8428 14.2845 17.7716 16.2251C17.7499 16.8183 17.2976 17.3117 16.7069 17.3711C16.2401 17.418 15.7732 17.418 15.3063 17.3711C14.7156 17.3116 14.2634 16.8183 14.2416 16.2251C14.1704 14.2845 14.1704 12.3439 14.2416 10.4034C14.2634 9.81006 14.7156 9.31675 15.3063 9.25737Z" fill="white"/>
<path d="M15.3402 19.5008C15.7845 19.4796 16.2288 19.4796 16.6731 19.5008C17.2854 19.5301 17.7772 20.023 17.8048 20.6354C17.8317 21.2324 17.8317 21.8294 17.8048 22.4264C17.7772 23.0388 17.2854 23.5317 16.6731 23.561C16.2288 23.5822 15.7845 23.5822 15.3402 23.561C14.7279 23.5317 14.2361 23.0388 14.2085 22.4264C14.1816 21.8294 14.1816 21.2324 14.2085 20.6354C14.2361 20.023 14.7279 19.5301 15.3402 19.5008Z" fill="white"/>
</svg>
